STARTFONT 2.1
COMMENT
COMMENT Converted from OpenType font "ipaexg.ttf" by "..\otf2bdf.exe 3.0".
COMMENT
FONT -FreeType-IPAexGothic-Medium-R-Normal--32-320-72-72-P-277-ISO10646-1
SIZE 32 72 72
FONTBOUNDINGBOX 40 39 -8 -9
STARTPROPERTIES 19
FOUNDRY "FreeType"
FAMILY_NAME "IPAexGothic"
WEIGHT_NAME "Medium"
SLANT "R"
SETWIDTH_NAME "Normal"
ADD_STYLE_NAME ""
PIXEL_SIZE 32
POINT_SIZE 320
RESOLUTION_X 72
RESOLUTION_Y 72
SPACING "P"
AVERAGE_WIDTH 277
CHARSET_REGISTRY "ISO10646"
CHARSET_ENCODING "1"
FONT_ASCENT 28
FONT_DESCENT 3
COPYRIGHT "Copyright(c) Information-technology Promotion Agency, Japan (IPA), 2003-2019. You must accept "https://opensource.org/licenses/IPA/" to use this product."
_OTF_FONTFILE "ipaexg.ttf"
_OTF_PSNAME "IPAexGothic"
ENDPROPERTIES
CHARS 11691
STARTCHAR 0020
ENCODING 32
SWIDTH 281 0
DWIDTH 9 0
BBX 0 0 0 0
BITMAP
ENDCHAR
STARTCHAR 0021
ENCODING 33
SWIDTH 312 0
DWIDTH 10 0
BBX 3 23 3 0
BITMAP
E0
E0
E0
E0
E0
E0
E0
E0
E0
E0
E0
E0
E0
E0
E0
E0
60
00
00
00
E0
E0
E0
ENDCHAR
STARTCHAR 0022
ENCODING 34
SWIDTH 343 0
DWIDTH 11 0
BBX 7 9 2 15
BITMAP
CE
CE
CE
CE
CE
CE
C6
C6
C6
ENDCHAR
STARTCHAR 0023
ENCODING 35
SWIDTH 625 0
DWIDTH 20 0
BBX 17 24 2 0
BITMAP
030C00
030C00
070C00
060C00
061800
061800
FFFF80
FFFF80
041800
0C1800
0C3000
0C3000
0C3000
FFFF80
FFFF80
183000
186000
186000
186000
306000
306000
306000
30C000
304000
ENDCHAR
STARTCHAR 0024
ENCODING 36
SWIDTH 625 0
DWIDTH 20 0
BBX 15 27 3 -2
BITMAP
0300
0300
0FC0
3FF0
7878
F01C
E008
E000
E000
F000
7800
3F00
1FC0
03F0
00F8
003C
001E
000E
000E
400E
E01E
F83C
7FF8
1FF0
0300
0300
0300
ENDCHAR
STARTCHAR 0025
ENCODING 37
SWIDTH 843 0
DWIDTH 27 0
BBX 23 25 2 0
BITMAP
000010
1E0038
7F8030
618060
C1C0C0
C0C0C0
C0C180
C0C300
C0C700
C0C600
618C00
7F9800
1E38F0
0033FC
00630C
00C606
00C606
018606
030606
070606
060606
0C030C
1803FC
1800F0
100000
ENDCHAR
STARTCHAR 0026
ENCODING 38
SWIDTH 687 0
DWIDTH 22 0
BBX 20 23 2 -1
BITMAP
07E000
0FF800
1C3800
381C00
381C00
381C00
381C00
1C3800
1C7800
0FF000
07C000
1F8080
3DC0C0
70E1C0
7071C0
E03980
E01F80
E00F00
E00F80
F01FC0
783DE0
3FF0F0
1FC060
ENDCHAR
STARTCHAR 0027
ENCODING 39
SWIDTH 187 0
DWIDTH 6 0
BBX 2 9 2 15
BITMAP
C0
C0
C0
C0
C0
C0
C0
C0
C0
ENDCHAR
STARTCHAR 0028
ENCODING 40
SWIDTH 343 0
DWIDTH 11 0
BBX 7 30 2 -5
BITMAP
06
0E
0C
1C
38
38
70
70
70
60
E0
E0
E0
E0
E0
E0
E0
E0
E0
E0
70
70
70
38
38
18
0C
0E
06
02
ENDCHAR
STARTCHAR 0029
ENCODING 41
SWIDTH 343 0
DWIDTH 11 0
BBX 7 30 1 -5
BITMAP
C0
60
70
30
38
38
1C
1C
1C
0C
0E
0E
0E
0E
0E
0E
0E
0E
0E
0E
1C
1C
1C
18
38
30
70
60
C0
40
ENDCHAR
STARTCHAR 002A
ENCODING 42
SWIDTH 375 0
DWIDTH 12 0
BBX 9 10 1 13
BITMAP
0C00
0C80
6D80
7F80
1E00
3F00
EF80
4C80
0C00
0C00
ENDCHAR
STARTCHAR 002B
ENCODING 43
SWIDTH 687 0
DWIDTH 22 0
BBX 18 18 2 0
BITMAP
00C000
00C000
00C000
00C000
00C000
00C000
00C000
00C000
FFFFC0
FFFFC0
00C000
00C000
00C000
00C000
00C000
00C000
00C000
00C000
ENDCHAR
STARTCHAR 002C
ENCODING 44
SWIDTH 250 0
DWIDTH 8 0
BBX 5 9 1 -6
BITMAP
38
38
30
70
70
60
60
E0
C0
ENDCHAR
STARTCHAR 002D
ENCODING 45
SWIDTH 343 0
DWIDTH 11 0
BBX 8 2 2 9
BITMAP
FF
FF
ENDCHAR
STARTCHAR 002E
ENCODING 46
SWIDTH 250 0
DWIDTH 8 0
BBX 4 4 2 0
BITMAP
F0
F0
F0
F0
ENDCHAR
STARTCHAR 002F
ENCODING 47
SWIDTH 500 0
DWIDTH 16 0
BBX 12 28 2 -4
BITMAP
0030
0060
0060
0040
00C0
00C0
0080
0180
0180
0300
0300
0200
0600
0600
0400
0C00
0C00
1800
1800
1000
3000
3000
2000
6000
6000
C000
C000
8000
ENDCHAR
STARTCHAR 0030
ENCODING 48
SWIDTH 625 0
DWIDTH 20 0
BBX 16 23 2 0
BITMAP
07E0
0FF0
1C38
381C
700E
700E
700E
E007
E007
E007
E007
E007
E007
E007
E007
E007
700E
700E
700E
381C
1C38
0FF0
07E0
ENDCHAR
STARTCHAR 0031
ENCODING 49
SWIDTH 625 0
DWIDTH 20 0
BBX 9 23 3 0
BITMAP
0380
0F80
FF80
7B80
0380
0380
0380
0380
0380
0380
0380
0380
0380
0380
0380
0380
0380
0380
0380
0380
0380
0380
0380
ENDCHAR
STARTCHAR 0032
ENCODING 50
SWIDTH 625 0
DWIDTH 20 0
BBX 16 23 2 0
BITMAP
07F0
1FFC
3C1E
700E
7007
6007
0007
0007
000E
001E
003C
00F0
01E0
0780
0F00
1C00
3800
3000
7000
E000
FFFF
FFFF
FFFF
ENDCHAR
STARTCHAR 0033
ENCODING 51
SWIDTH 625 0
DWIDTH 20 0
BBX 16 23 2 0
BITMAP
0FE0
3FF8
783C
701E
600E
000E
000E
000E
001C
0078
07F0
07E0
007C
001E
000F
0007
0007
0007
C007
E00E
783E
3FFC
0FF0
ENDCHAR
STARTCHAR 0034
ENCODING 52
SWIDTH 625 0
DWIDTH 20 0
BBX 18 23 1 0
BITMAP
001C00
003C00
007C00
006C00
00CC00
01CC00
038C00
030C00
070C00
0E0C00
1C0C00
180C00
380C00
700C00
E00C00
FFFFC0
FFFFC0
FFFFC0
000C00
000C00
000C00
000C00
000C00
ENDCHAR
STARTCHAR 0035
ENCODING 53
SWIDTH 625 0
DWIDTH 20 0
BBX 16 23 2 0
BITMAP
3FFE
3FFE
3800
3800
3000
3000
3000
3000
73F0
7FF8
7C3C
700E
700E
0007
0007
0007
0007
0007
200E
F01E
783C
3FF8
07E0
ENDCHAR
STARTCHAR 0036
ENCODING 54
SWIDTH 625 0
DWIDTH 20 0
BBX 16 23 2 0
BITMAP
03F8
0FFC
1E0F
3C06
3800
7000
7000
7000
E1F0
E7F8
EC3C
F80E
F00F
E007
E007
E007
6007
6007
700E
380E
1C3C
0FF8
03E0
ENDCHAR
STARTCHAR 0037
ENCODING 55
SWIDTH 625 0
DWIDTH 20 0
BBX 16 23 2 0
BITMAP
FFFF
FFFF
FFFF
000E
000E
001C
0018
0038
0030
0070
0060
00E0
00C0
01C0
01C0
0380
0380
0700
0700
0700
0F00
0E00
0E00
ENDCHAR
STARTCHAR 0038
ENCODING 56
SWIDTH 625 0
DWIDTH 20 0
BBX 17 23 2 0
BITMAP
07F000
3FFC00
781E00
700F00
E00700
E00700
E00700
E00700
700E00
3C3C00
1FF000
07F000
1E3C00
780E00
700700
E00380
E00380
E00380
E00380
700700
7C1F00
3FFC00
07F000
ENDCHAR
STARTCHAR 0039
ENCODING 57
SWIDTH 625 0
DWIDTH 20 0
BBX 16 23 2 0
BITMAP
07E0
1FF0
3C38
701C
700E
E006
E006
E007
E007
E007
F00F
701F
3C37
1FE7
0FC7
000F
000E
000E
001C
E01C
7078
3FF0
0FC0
ENDCHAR
STARTCHAR 003A
ENCODING 58
SWIDTH 312 0
DWIDTH 10 0
BBX 4 16 3 0
BITMAP
F0
F0
F0
F0
00
00
00
00
00
00
00
00
F0
F0
F0
F0
ENDCHAR
STARTCHAR 003B
ENCODING 59
SWIDTH 312 0
DWIDTH 10 0
BBX 6 21 1 -6
BITMAP
3C
3C
3C
3C
00
00
00
00
00
00
00
00
00
3C
38
38
38
30
70
70
E0
ENDCHAR
STARTCHAR 003C
ENCODING 60
SWIDTH 687 0
DWIDTH 22 0
BBX 18 18 2 1
BITMAP
000080
0003C0
000F00
003C00
00F000
07C000
1F0000
780000
E00000
F00000
3C0000
0F0000
03C000
00F000
003E00
000F80
000380
000080
ENDCHAR
STARTCHAR 003D
ENCODING 61
SWIDTH 687 0
DWIDTH 22 0
BBX 18 8 2 6
BITMAP
FFFFC0
FFFFC0
000000
000000
000000
000000
FFFFC0
FFFFC0
ENDCHAR
STARTCHAR 003E
ENCODING 62
SWIDTH 687 0
DWIDTH 22 0
BBX 18 17 2 1
BITMAP
400000
F00000
3C0000
0F0000
03C000
00F000
003C00
000F00
0003C0
0003C0
000F00
003C00
01F000
07C000
1E0000
780000
E00000
ENDCHAR
STARTCHAR 003F
ENCODING 63
SWIDTH 562 0
DWIDTH 18 0
BBX 14 23 2 0
BITMAP
0FC0
3FF0
7878
E038
E01C
C01C
001C
001C
0038
0078
00F0
01E0
03C0
0300
0300
0700
0700
0000
0000
0000
0700
0700
0700
ENDCHAR
STARTCHAR 0040
ENCODING 64
SWIDTH 906 0
DWIDTH 29 0
BBX 24 23 2 0
BITMAP
007F00
03FFE0
0780F0
0E0038
1C1E6C
307F66
70F1E6
61E0C3
E1C0C3
C3C0C3
C380C3
C380C3
C38183
C38187
C38386
61C78E
61FF9C
70F9F8
3800F0
1C0008
0F807C
03FFF8
00FFC0
ENDCHAR
STARTCHAR 0041
ENCODING 65
SWIDTH 625 0
DWIDTH 20 0
BBX 20 23 0 1
BITMAP
006000
00F000
00F000
00F800
01F800
019800
039C00
039C00
030E00
070E00
070600
0E0700
0E0700
0E0380
1FFF80
1FFF80
1801C0
3801C0
3800E0
7000E0
7000E0
700070
E00070
ENDCHAR
STARTCHAR 0042
ENCODING 66
SWIDTH 656 0
DWIDTH 21 0
BBX 16 23 3 0
BITMAP
FFE0
FFF8
E03C
E01E
E00E
E00E
E00E
E00E
E01C
E03C
FFF0
FFF0
E03C
E00E
E00F
E007
E007
E007
E007
E00E
E03E
FFFC
FFE0
ENDCHAR
STARTCHAR 0043
ENCODING 67
SWIDTH 718 0
DWIDTH 23 0
BBX 19 23 2 0
BITMAP
01FC00
07FF80
0F07C0
1C01E0
3800E0
780040
700000
700000
E00000
E00000
E00000
E00000
E00000
E00000
E00000
700000
700000
780060
3800E0
1C01E0
0F03C0
07FF00
01FC00
ENDCHAR
STARTCHAR 0044
ENCODING 68
SWIDTH 750 0
DWIDTH 24 0
BBX 19 23 3 0
BITMAP
FFE000
FFFC00
E03E00
E00700
E00380
E001C0
E001C0
E001C0
E000E0
E000E0
E000E0
E000E0
E000E0
E000E0
E000E0
E001C0
E001C0
E001C0
E00380
E00700
E03E00
FFFC00
FFE000
ENDCHAR
STARTCHAR 0045
ENCODING 69
SWIDTH 593 0
DWIDTH 19 0
BBX 15 23 3 0
BITMAP
FFFE
FFFE
E000
E000
E000
E000
E000
E000
E000
E000
FFF8
FFF8
E000
E000
E000
E000
E000
E000
E000
E000
E000
FFFE
FFFE
ENDCHAR
STARTCHAR 0046
ENCODING 70
SWIDTH 562 0
DWIDTH 18 0
BBX 14 23 3 0
BITMAP
FFFC
FFFC
E000
E000
E000
E000
E000
E000
E000
E000
FFF8
FFF8
E000
E000
E000
E000
E000
E000
E000
E000
E000
E000
E000
ENDCHAR
STARTCHAR 0047
ENCODING 71
SWIDTH 750 0
DWIDTH 24 0
BBX 21 23 1 0
BITMAP
00FE00
07FF80
0F03E0
1C00F0
380070
780060
700000
700000
E00000
E00000
E00000
E00000
E007F8
E007F8
E00038
700038
700038
780038
380038
1C0078
0F01F0
07FFC0
00FE00
ENDCHAR
STARTCHAR 0048
ENCODING 72
SWIDTH 750 0
DWIDTH 24 0
BBX 18 23 3 0
BITMAP
E001C0
E001C0
E001C0
E001C0
E001C0
E001C0
E001C0
E001C0
E001C0
E001C0
FFFFC0
FFFFC0
E001C0
E001C0
E001C0
E001C0
E001C0
E001C0
E001C0
E001C0
E001C0
E001C0
E001C0
ENDCHAR
STARTCHAR 0049
ENCODING 73
SWIDTH 281 0
DWIDTH 9 0
BBX 3 23 3 1
BITMAP
E0
E0
E0
E0
E0
E0
E0
E0
E0
E0
E0
E0
E0
E0
E0
E0
E0
E0
E0
E0
E0
E0
E0
ENDCHAR
STARTCHAR 004A
ENCODING 74
SWIDTH 375 0
DWIDTH 12 0
BBX 10 23 -1 0
BITMAP
01C0
01C0
01C0
01C0
01C0
01C0
01C0
01C0
01C0
01C0
01C0
01C0
01C0
01C0
01C0
01C0
01C0
01C0
01C0
01C0
4380
FF80
7E00
ENDCHAR
STARTCHAR 004B
ENCODING 75
SWIDTH 656 0
DWIDTH 21 0
BBX 17 23 3 0
BITMAP
E00700
E00E00
E01C00
E03C00
E07800
E0F000
E1E000
E3C000
E78000
EF0000
FF0000
FF8000
FBC000
E1C000
E0E000
E07000
E07800
E03800
E01C00
E00E00
E00F00
E00780
E00380
ENDCHAR
STARTCHAR 004C
ENCODING 76
SWIDTH 531 0
DWIDTH 17 0
BBX 14 22 3 1
BITMAP
E000
E000
E000
E000
E000
E000
E000
E000
E000
E000
E000
E000
E000
E000
E000
E000
E000
E000
E000
E000
FFFC
FFFC
ENDCHAR
STARTCHAR 004D
ENCODING 77
SWIDTH 906 0
DWIDTH 29 0
BBX 23 23 3 0
BITMAP
F8003E
F8003E
F8003E
FC007E
EC006E
EE00EE
EE00EE
E600CE
E701CE
E701CE
E3838E
E3838E
E1830E
E1C70E
E1C70E
E0C60E
E0EE0E
E06C0E
E06C0E
E07C0E
E0380E
E0380E
E0000E
ENDCHAR
STARTCHAR 004E
ENCODING 78
SWIDTH 750 0
DWIDTH 24 0
BBX 18 23 3 0
BITMAP
F001C0
F801C0
FC01C0
FC01C0
EE01C0
EE01C0
E701C0
E381C0
E381C0
E1C1C0
E1E1C0
E0E1C0
E071C0
E071C0
E039C0
E01DC0
E01DC0
E00FC0
E00FC0
E007C0
E003C0
E003C0
E001C0
ENDCHAR
STARTCHAR 004F
ENCODING 79
SWIDTH 812 0
DWIDTH 26 0
BBX 22 23 2 0
BITMAP
01FC00
07FF80
0F03C0
1E01E0
380070
780078
700038
700038
E0001C
E0001C
E0001C
E0001C
E0001C
E0001C
E0001C
700038
700038
780078
380070
1C00E0
0F03C0
07FF80
01FE00
ENDCHAR
STARTCHAR 0050
ENCODING 80
SWIDTH 625 0
DWIDTH 20 0
BBX 16 22 3 0
BITMAP
FFE0
FFFC
E03E
E00E
E007
E007
E007
E007
E00F
E00E
E03E
FFF8
FFE0
E000
E000
E000
E000
E000
E000
E000
E000
E000
ENDCHAR
STARTCHAR 0051
ENCODING 81
SWIDTH 812 0
DWIDTH 26 0
BBX 22 25 2 -2
BITMAP
01FC00
07FF80
0F03C0
1C01E0
380070
780078
700038
700038
E0001C
E0001C
E0001C
E0001C
E0001C
E0001C
E0001C
701038
703838
783E78
380F70
1C07E0
0F03C0
07FFF0
01FE78
00001C
000008
ENDCHAR
STARTCHAR 0052
ENCODING 82
SWIDTH 656 0
DWIDTH 21 0
BBX 17 23 3 0
BITMAP
FFE000
FFF800
E03E00
E00E00
E00700
E00700
E00700
E00700
E00F00
E00E00
E03C00
FFF000
FFC000
E1F000
E07800
E03800
E01C00
E01E00
E00E00
E00F00
E00700
E00780
E00380
ENDCHAR
STARTCHAR 0053
ENCODING 83
SWIDTH 593 0
DWIDTH 19 0
BBX 15 23 2 0
BITMAP
0FE0
3FF8
783C
701E
E008
E000
E000
F000
7800
7E00
3FC0
0FF0
01F8
007C
001E
001E
000E
000E
400E
E01C
F83C
3FF8
0FE0
ENDCHAR
STARTCHAR 0054
ENCODING 84
SWIDTH 593 0
DWIDTH 19 0
BBX 19 22 0 0
BITMAP
FFFFE0
FFFFE0
00E000
00E000
00E000
00E000
00E000
00E000
00E000
00E000
00E000
00E000
00E000
00E000
00E000
00E000
00E000
00E000
00E000
00E000
00E000
00E000
ENDCHAR
STARTCHAR 0055
ENCODING 85
SWIDTH 750 0
DWIDTH 24 0
BBX 18 23 3 0
BITMAP
E001C0
E001C0
E001C0
E001C0
E001C0
E001C0
E001C0
E001C0
E001C0
E001C0
E001C0
E001C0
E001C0
E001C0
E001C0
E001C0
E001C0
E001C0
700380
780780
3C0F00
1FFE00
07F800
ENDCHAR
STARTCHAR 0056
ENCODING 86
SWIDTH 625 0
DWIDTH 20 0
BBX 20 23 0 -1
BITMAP
E00070
700070
7000E0
7000E0
3800E0
3801C0
1C01C0
1C0380
1C0380
0E0380
0E0700
0E0700
070600
070E00
038E00
039C00
039C00
01D800
01F800
00F800
00F000
00F000
006000
ENDCHAR
STARTCHAR 0057
ENCODING 87
SWIDTH 937 0
DWIDTH 30 0
BBX 29 23 0 -1
BITMAP
F0030038
70070038
70078038
70078070
380F8070
380FC070
380DC060
180CC0E0
1C1CE0E0
1C1CE0E0
1C18E1C0
0E3861C0
0E3871C0
0E307180
06303380
07703B80
07603B00
03601B00
03601F00
03E01E00
03C01E00
01C00E00
01C00E00
ENDCHAR
STARTCHAR 0058
ENCODING 88
SWIDTH 687 0
DWIDTH 22 0
BBX 20 23 1 0
BITMAP
F000E0
7801E0
3801C0
1C0380
1E0780
0E0700
070E00
079C00
039C00
01F800
01F000
00F000
01F000
01F800
039C00
071E00
0F0E00
0E0700
1C0780
3C0380
3801C0
7001E0
F000F0
ENDCHAR
STARTCHAR 0059
ENCODING 89
SWIDTH 625 0
DWIDTH 20 0
BBX 19 23 0 0
BITMAP
E000E0
7001E0
7803C0
380380
1C0700
1E0F00
0E0E00
071C00
079C00
03B800
01F000
01F000
00E000
00E000
00E000
00E000
00E000
00E000
00E000
00E000
00E000
00E000
00E000
ENDCHAR
STARTCHAR 005A
ENCODING 90
SWIDTH 656 0
DWIDTH 21 0
BBX 18 23 1 0
BITMAP
7FFFC0
7FFFC0
000380
000700
000F00
001E00
001C00
003C00
007800
007000
00E000
01E000
03C000
038000
078000
0F0000
0E0000
1C0000
3C0000
780000
700000
FFFFC0
FFFFC0
ENDCHAR
STARTCHAR 005B
ENCODING 91
SWIDTH 312 0
DWIDTH 10 0
BBX 5 29 3 -5
BITMAP
F8
F8
C0
C0
C0
C0
C0
C0
C0
C0
C0
C0
C0
C0
C0
C0
C0
C0
C0
C0
C0
C0
C0
C0
C0
C0
C0
F8
F8
ENDCHAR
STARTCHAR 005C
ENCODING 92
SWIDTH 500 0
DWIDTH 16 0
BBX 12 28 2 -4
BITMAP
C000
6000
6000
2000
3000
3000
1000
1800
1800
0C00
0C00
0400
0600
0600
0200
0300
0300
0180
0180
0080
00C0
00C0
0040
0060
0060
0030
0030
0010
ENDCHAR
STARTCHAR 005D
ENCODING 93
SWIDTH 312 0
DWIDTH 10 0
BBX 5 29 2 -5
BITMAP
F8
F8
18
18
18
18
18
18
18
18
18
18
18
18
18
18
18
18
18
18
18
18
18
18
18
18
18
F8
F8
ENDCHAR
STARTCHAR 005E
ENCODING 94
SWIDTH 500 0
DWIDTH 16 0
BBX 14 9 1 11
BITMAP
0300
0780
0780
0CC0
1860
3030
7038
E01C
C00C
ENDCHAR
STARTCHAR 005F
ENCODING 95
SWIDTH 500 0
DWIDTH 16 0
BBX 16 2 0 -4
BITMAP
FFFF
FFFF
ENDCHAR
STARTCHAR 0060
ENCODING 96
SWIDTH 500 0
DWIDTH 16 0
BBX 4 4 5 19
BITMAP
E0
60
70
30
ENDCHAR
STARTCHAR 0061
ENCODING 97
SWIDTH 562 0
DWIDTH 18 0
BBX 14 16 2 0
BITMAP
0FC0
3FE0
7870
7038
0038
0038
01F8
3FF8
7C18
F018
E038
E038
E078
70F8
7FD8
1F1C
ENDCHAR
STARTCHAR 0062
ENCODING 98
SWIDTH 625 0
DWIDTH 20 0
BBX 16 24 3 -1
BITMAP
E000
E000
E000
E000
E000
E000
E000
E000
E3E0
EFF8
FC3C
F81E
F00E
E007
E007
E007
E007
E007
E007
E00E
F01E
FC3C
EFF8
C3E0
ENDCHAR
STARTCHAR 0063
ENCODING 99
SWIDTH 531 0
DWIDTH 17 0
BBX 14 16 2 0
BITMAP
07E0
1FF0
3C38
781C
7000
E000
E000
E000
E000
E000
E000
7008
781C
3C3C
1FF8
07E0
ENDCHAR
STARTCHAR 0064
ENCODING 100
SWIDTH 625 0
DWIDTH 20 0
BBX 16 24 1 0
BITMAP
0007
0007
0007
0007
0007
0007
0007
0007
07C7
1FF7
3C3F
780F
7007
E007
E007
E007
E007
E007
E007
700F
781F
3C3F
1FF7
07C7
ENDCHAR
STARTCHAR 0065
ENCODING 101
SWIDTH 562 0
DWIDTH 18 0
BBX 15 16 2 0
BITMAP
07C0
1FF0
3878
701C
601C
E00C
FFFE
FFFE
C000
E000
E000
6000
700E
3C3C
1FF8
07E0
ENDCHAR
STARTCHAR 0066
ENCODING 102
SWIDTH 312 0
DWIDTH 10 0
BBX 12 24 0 0
BITMAP
03E0
07F0
0E00
1C00
1C00
1C00
1C00
1C00
FFC0
FFC0
1C00
1C00
1C00
1C00
1C00
1C00
1C00
1C00
1C00
1C00
1C00
1C00
1C00
1C00
ENDCHAR
STARTCHAR 0067
ENCODING 103
SWIDTH 562 0
DWIDTH 18 0
BBX 15 23 2 -5
BITMAP
001C
0FFC
3FF0
78F0
F078
E038
E038
E038
F078
78F0
3FE0
3FC0
7000
7000
7FC0
3FF8
3FFC
701E
E00E
E00E
F01C
7FF8
1FE0
ENDCHAR
STARTCHAR 0068
ENCODING 104
SWIDTH 593 0
DWIDTH 19 0
BBX 14 24 3 0
BITMAP
E000
E000
E000
E000
E000
E000
E000
E000
E3E0
EFF8
FC38
F03C
F01C
E01C
E01C
E01C
E01C
E01C
E01C
E01C
E01C
E01C
E01C
E01C
ENDCHAR
STARTCHAR 0069
ENCODING 105
SWIDTH 281 0
DWIDTH 9 0
BBX 3 23 3 0
BITMAP
E0
E0
E0
00
00
00
00
E0
E0
E0
E0
E0
E0
E0
E0
E0
E0
E0
E0
E0
E0
E0
E0
ENDCHAR
STARTCHAR 006A
ENCODING 106
SWIDTH 281 0
DWIDTH 9 0
BBX 7 29 -1 -7
BITMAP
0E
0E
0E
00
00
00
0E
0E
0E
0E
0E
0E
0E
0E
0E
0E
0E
0E
0E
0E
0E
0E
0E
0E
0E
1C
3C
F8
70
ENDCHAR
STARTCHAR 006B
ENCODING 107
SWIDTH 531 0
DWIDTH 17 0
BBX 13 24 3 0
BITMAP
E000
E000
E000
E000
E000
E000
E000
E000
E078
E0F0
E1E0
E1C0
E380
E700
EE00
FE00
FF00
F380
E380
E1C0
E0E0
E070
E070
E038
ENDCHAR
STARTCHAR 006C
ENCODING 108
SWIDTH 281 0
DWIDTH 9 0
BBX 3 24 3 0
BITMAP
E0
E0
E0
E0
E0
E0
E0
E0
E0
E0
E0
E0
E0
E0
E0
E0
E0
E0
E0
E0
E0
E0
E0
E0
ENDCHAR
STARTCHAR 006D
ENCODING 109
SWIDTH 875 0
DWIDTH 28 0
BBX 22 16 3 0
BITMAP
E7C1E0
EFE3F8
F87638
F03C1C
E0381C
E0381C
E0381C
E0381C
E0381C
E0381C
E0381C
E0381C
E0381C
E0381C
E0381C
E0381C
ENDCHAR
STARTCHAR 006E
ENCODING 110
SWIDTH 593 0
DWIDTH 19 0
BBX 14 16 3 0
BITMAP
E3E0
EFF8
FC38
F03C
F01C
E01C
E01C
E01C
E01C
E01C
E01C
E01C
E01C
E01C
E01C
E01C
ENDCHAR
STARTCHAR 006F
ENCODING 111
SWIDTH 593 0
DWIDTH 19 0
BBX 16 16 2 0
BITMAP
07E0
1FF8
3C3C
781E
700E
E007
E007
E007
E007
E007
E007
700E
781E
3C3C
1FF8
07E0
ENDCHAR
STARTCHAR 0070
ENCODING 112
SWIDTH 625 0
DWIDTH 20 0
BBX 16 22 3 -7
BITMAP
E3E0
EFF8
FC3C
F81E
F00E
E007
E007
E007
E007
E007
E007
E00E
F01E
FC3C
EFF8
E3E0
E000
E000
E000
E000
E000
E000
ENDCHAR
STARTCHAR 0071
ENCODING 113
SWIDTH 625 0
DWIDTH 20 0
BBX 16 22 1 -6
BITMAP
07E3
1FF7
3C3F
780F
700F
E007
E007
E007
E007
E007
E007
700F
781F
3C3F
1FF7
07C7
0007
0007
0007
0007
0007
0007
ENDCHAR
STARTCHAR 0072
ENCODING 114
SWIDTH 375 0
DWIDTH 12 0
BBX 9 16 3 1
BITMAP
E380
E780
EF00
FC00
F800
F000
E000
E000
E000
E000
E000
E000
E000
E000
E000
E000
ENDCHAR
STARTCHAR 0073
ENCODING 115
SWIDTH 468 0
DWIDTH 15 0
BBX 11 16 2 0
BITMAP
1F00
7FC0
F0E0
E000
E000
F000
7800
3F00
0FC0
03C0
00E0
00E0
00E0
E1E0
FFC0
3F00
ENDCHAR
STARTCHAR 0074
ENCODING 116
SWIDTH 343 0
DWIDTH 11 0
BBX 9 21 1 0
BITMAP
0800
3800
3800
3800
3800
FF80
FF80
3800
3800
3800
3800
3800
3800
3800
3800
3800
3800
3800
3800
1F80
0F80
ENDCHAR
STARTCHAR 0075
ENCODING 117
SWIDTH 593 0
DWIDTH 19 0
BBX 13 16 3 0
BITMAP
E038
E038
E038
E038
E038
E038
E038
E038
E038
E038
E038
E078
E078
70F8
7FB8
1E38
ENDCHAR
STARTCHAR 0076
ENCODING 118
SWIDTH 500 0
DWIDTH 16 0
BBX 15 16 0 0
BITMAP
E00E
700E
700C
301C
381C
3818
1C38
1C30
0C70
0E60
0660
06E0
07C0
03C0
0380
0180
ENDCHAR
STARTCHAR 0077
ENCODING 119
SWIDTH 750 0
DWIDTH 24 0
BBX 24 16 0 0
BITMAP
E01807
703C06
703C0E
703C0E
307E0C
38661C
38661C
18E718
1CC318
0CC338
0DC3B0
0F81B0
0781F0
0780E0
0700E0
0300E0
ENDCHAR
STARTCHAR 0078
ENCODING 120
SWIDTH 500 0
DWIDTH 16 0
BBX 14 16 1 0
BITMAP
E01C
7038
7070
3870
1CE0
0DC0
0F80
0780
0780
0FC0
1DC0
18E0
3870
7070
E038
E01C
ENDCHAR
STARTCHAR 0079
ENCODING 121
SWIDTH 500 0
DWIDTH 16 0
BBX 15 22 0 -7
BITMAP
F00E
700E
700E
381C
381C
1818
1C38
0C38
0E70
0E70
0660
07E0
03C0
03C0
01C0
0180
0380
0300
0700
0E00
3E00
3C00
ENDCHAR
STARTCHAR 007A
ENCODING 122
SWIDTH 468 0
DWIDTH 15 0
BBX 13 16 1 0
BITMAP
7FF8
7FF8
0070
00E0
01C0
01C0
0380
0700
0F00
0E00
1C00
3800
3800
7000
FFF8
FFF8
ENDCHAR
STARTCHAR 007B
ENCODING 123
SWIDTH 343 0
DWIDTH 11 0
BBX 7 29 2 -5
BITMAP
0E
1E
38
30
30
30
30
30
30
30
30
30
30
60
C0
60
30
30
30
30
30
30
30
30
30
30
30
1E
0E
ENDCHAR
STARTCHAR 007C
ENCODING 124
SWIDTH 187 0
DWIDTH 6 0
BBX 2 29 2 -5
BITMAP
C0
C0
C0
C0
C0
C0
C0
C0
C0
C0
C0
C0
C0
C0
C0
C0
C0
C0
C0
C0
C0
C0
C0
C0
C0
C0
C0
C0
C0
ENDCHAR
STARTCHAR 007D
ENCODING 125
SWIDTH 343 0
DWIDTH 11 0
BBX 7 29 1 -5
BITMAP
E0
F0
38
18
18
18
18
18
18
18
18
18
18
0C
06
0C
18
18
18
18
18
18
18
18
18
18
38
F0
E0
ENDCHAR
STARTCHAR 007E
ENCODING 126
SWIDTH 500 0
DWIDTH 16 0
BBX 10 4 3 19
BITMAP
7000
FCC0
CFC0
0780
ENDCHAR
STARTCHAR 00A0
ENCODING 160
SWIDTH 281 0
DWIDTH 9 0
BBX 0 0 0 0
BITMAP
ENDCHAR
STARTCHAR 00A1
ENCODING 161
SWIDTH 312 0
DWIDTH 10 0
BBX 3 23 3 0
BITMAP
E0
E0
E0
00
00
00
C0
E0
E0
E0
E0
E0
E0
E0
E0
E0
E0
E0
E0
E0
E0
E0
E0
ENDCHAR
STARTCHAR 00A2
ENCODING 162
SWIDTH 625 0
DWIDTH 20 0
BBX 16 24 2 0
BITMAP
0018
0018
0038
0030
07F0
1FF8
3C7C
786E
70C6
E0C0
E1C0
E180
E180
E380
E307
7307
7E0E
3E1C
1FF8
0FE0
0C00
1C00
1800
1800
ENDCHAR
STARTCHAR 00A3
ENCODING 163
SWIDTH 843 0
DWIDTH 27 0
BBX 22 24 2 0
BITMAP
007E00
00FF80
01C380
0381C0
0381C0
0380C0
038000
038000
018000
1FFF80
1FFF80
00E000
006000
006000
006000
3E6000
7FE000
E1E008
E0E01C
E0F01C
E0F838
E1DC70
7F87F0
1E03C0
ENDCHAR
STARTCHAR 00A4
ENCODING 164
SWIDTH 625 0
DWIDTH 20 0
BBX 14 15 3 2
BITMAP
0004
CFCC
FFFC
7878
6018
E01C
C00C
C00C
C00C
C00C
E01C
6018
7878
FFFC
CFCC
ENDCHAR
STARTCHAR 00A5
ENCODING 165
SWIDTH 625 0
DWIDTH 20 0
BBX 19 23 1 0
BITMAP
E000E0
7001C0
3803C0
3C0380
1C0700
0E0E00
070C00
071C00
03B800
01F000
3FFF80
3FFF80
00E000
00E000
00E000
3FFF80
3FFF80
00E000
00E000
00E000
00E000
00E000
00E000
ENDCHAR
STARTCHAR 00A6
ENCODING 166
SWIDTH 187 0
DWIDTH 6 0
BBX 2 29 2 -5
BITMAP
C0
C0
C0
C0
C0
C0
C0
C0
C0
C0
C0
C0
00
00
00
00
00
C0
C0
C0
C0
C0
C0
C0
C0
C0
C0
C0
C0
ENDCHAR
STARTCHAR 00A7
ENCODING 167
SWIDTH 593 0
DWIDTH 19 0
BBX 13 28 3 -2
BITMAP
1F80
3FE0
70F0
E070
E038
E038
E000
7000
3C00
3F00
77C0
E1E0
E070
E038
E038
7038
3C38
1F70
07E0
01E0
0070
0038
E038
E038
E038
7070
3FE0
0FC0
ENDCHAR
STARTCHAR 00A8
ENCODING 168
SWIDTH 500 0
DWIDTH 16 0
BBX 10 3 3 19
BITMAP
E1C0
E1C0
E1C0
ENDCHAR
STARTCHAR 00A9
ENCODING 169
SWIDTH 1000 0
DWIDTH 32 0
BBX 26 26 3 -1
BITMAP
007F8000
01C0E000
07003800
0C000C00
181F0600
307FC300
20E1E100
61C07180
43807080
C3800080
87000040
87000040
87000040
87000040
87000040
87000040
838000C0
43807080
43C07180
21E1E100
30FFC300
103F0600
0C000C00
06003800
01C0E000
007F0000
ENDCHAR
STARTCHAR 00AA
ENCODING 170
SWIDTH 437 0
DWIDTH 14 0
BBX 11 14 2 9
BITMAP
1F00
7FC0
30C0
00C0
1FC0
78C0
60C0
61C0
7FC0
3EC0
0000
0000
FFE0
FFE0
ENDCHAR
STARTCHAR 00AB
ENCODING 171
SWIDTH 593 0
DWIDTH 19 0
BBX 13 14 3 2
BITMAP
0410
0E38
1C30
1860
38E0
71C0
6180
E180
71C0
30E0
1860
1C70
0C38
0410
ENDCHAR
STARTCHAR 00AC
ENCODING 172
SWIDTH 687 0
DWIDTH 22 0
BBX 16 8 2 5
BITMAP
FFFF
FFFF
0003
0003
0003
0003
0003
0003
ENDCHAR
STARTCHAR 00AD
ENCODING 173
SWIDTH 687 0
DWIDTH 22 0
BBX 18 2 2 9
BITMAP
FFFFC0
FFFFC0
ENDCHAR
STARTCHAR 00AE
ENCODING 174
SWIDTH 1000 0
DWIDTH 32 0
BBX 26 25 3 0
BITMAP
007F0000
01C0E000
07003000
0C001800
18000400
31FF0200
21FFC100
41C3E180
41C0E080
C1C0E080
81C0E040
81C1E040
81FFC040
81FF0040
81CF8040
81C3C040
41C1C080
41C0E080
21C0E100
21C07300
11C07600
08000C00
06001800
0180E000
007F8000
ENDCHAR
STARTCHAR 00AF
ENCODING 175
SWIDTH 500 0
DWIDTH 16 0
BBX 8 2 4 20
BITMAP
FF
FF
ENDCHAR
STARTCHAR 00B0
ENCODING 176
SWIDTH 343 0
DWIDTH 11 0
BBX 7 8 2 19
BITMAP
38
44
82
82
82
82
44
38
ENDCHAR
STARTCHAR 00B1
ENCODING 177
SWIDTH 687 0
DWIDTH 22 0
BBX 18 18 2 3
BITMAP
00C000
00C000
00C000
00C000
00C000
00C000
FFFFC0
FFFFC0
00C000
00C000
00C000
00C000
00C000
00C000
00C000
000000
FFFFC0
FFFFC0
ENDCHAR
STARTCHAR 00B2
ENCODING 178
SWIDTH 406 0
DWIDTH 13 0
BBX 9 12 2 11
BITMAP
3E00
7F00
E180
4180
0380
0700
1E00
3800
6000
C000
FF80
FF80
ENDCHAR
STARTCHAR 00B3
ENCODING 179
SWIDTH 406 0
DWIDTH 13 0
BBX 9 12 2 11
BITMAP
3C00
7E00
C300
0300
0700
1C00
0F00
0180
0180
C380
FF00
3E00
ENDCHAR
STARTCHAR 00B4
ENCODING 180
SWIDTH 500 0
DWIDTH 16 0
BBX 4 4 7 19
BITMAP
70
70
E0
C0
ENDCHAR
STARTCHAR 00B6
ENCODING 182
SWIDTH 1000 0
DWIDTH 32 0
BBX 13 29 8 -3
BITMAP
0FF8
3FF8
7F18
FF18
FF18
FF18
FF18
FF18
7F18
7F18
3F18
0718
0318
0318
0318
0318
0318
0318
0318
0318
0318
0318
0318
0318
0318
0318
0318
0318
0318
ENDCHAR
STARTCHAR 00B7
ENCODING 183
SWIDTH 250 0
DWIDTH 8 0
BBX 4 4 2 8
BITMAP
F0
F0
F0
F0
ENDCHAR
STARTCHAR 00B8
ENCODING 184
SWIDTH 500 0
DWIDTH 16 0
BBX 6 7 5 -7
BITMAP
30
60
7C
0C
0C
FC
F0
ENDCHAR
STARTCHAR 00B9
ENCODING 185
SWIDTH 406 0
DWIDTH 13 0
BBX 5 13 3 11
BITMAP
18
78
F8
98
18
18
18
18
18
18
18
18
18
ENDCHAR
STARTCHAR 00BA
ENCODING 186
SWIDTH 437 0
DWIDTH 14 0
BBX 11 14 2 9
BITMAP
1F00
7FC0
61C0
C0E0
C0E0
C0E0
C0E0
61C0
7FC0
1F00
0000
0000
FFC0
FFC0
ENDCHAR
STARTCHAR 00BB
ENCODING 187
SWIDTH 593 0
DWIDTH 19 0
BBX 13 14 3 2
BITMAP
4100
E380
61C0
30C0
38E0
1C70
0C38
0E38
1C70
3860
30C0
71C0
6180
4100
ENDCHAR
STARTCHAR 00BC
ENCODING 188
SWIDTH 843 0
DWIDTH 27 0
BBX 22 24 3 -1
BITMAP
180020
780030
F80060
9800C0
180180
180180
180300
180600
180C00
180C00
181800
183070
0070F0
0061F0
00C1B0
018330
038630
030E30
060C30
0C1FFC
0C1FFC
180030
300030
200000
ENDCHAR
STARTCHAR 00BD
ENCODING 189
SWIDTH 843 0
DWIDTH 27 0
BBX 22 25 3 -1
BITMAP
000020
780060
F80060
9800C0
180180
180380
180300
180600
180C00
180C00
181800
183000
1831F0
0063F8
00C70C
01820C
01801C
030038
0600F0
0601C0
0C0300
180600
3007FC
3007FC
200000
ENDCHAR
STARTCHAR 00BE
ENCODING 190
SWIDTH 843 0
DWIDTH 27 0
BBX 23 24 2 -1
BITMAP
000010
3E0018
7F0030
E18060
0180E0
0700C0
1C0180
070300
018700
418600
C38C00
FF1838
3E3878
003078
0060D8
00C198
01C398
018318
030618
0607FE
0E07FE
0C0018
180018
100000
ENDCHAR
STARTCHAR 00BF
ENCODING 191
SWIDTH 562 0
DWIDTH 18 0
BBX 14 23 2 0
BITMAP
0380
0380
0380
0000
0000
0380
0380
0380
0300
0700
0E00
1E00
3C00
7800
7000
E000
E008
E00C
E01C
F01C
7878
3FF0
0FC0
ENDCHAR
STARTCHAR 00C0
ENCODING 192
SWIDTH 625 0
DWIDTH 20 0
BBX 20 29 0 0
BITMAP
01C000
00C000
00E000
006000
000000
000000
007000
00F000
00F000
00F800
01F800
019C00
039C00
039C00
030E00
070E00
070600
0E0700
0E0700
0E0380
1FFF80
1FFF80
1801C0
3801C0
3800E0
7000E0
7000E0
700070
E00070
ENDCHAR
STARTCHAR 00C1
ENCODING 193
SWIDTH 625 0
DWIDTH 20 0
BBX 20 29 0 0
BITMAP
001C00
003800
003000
007000
000000
000000
007000
00F000
00F000
00F800
01F800
019C00
039C00
039C00
030E00
070E00
070600
0E0700
0E0700
0E0380
1FFF80
1FFF80
1801C0
3801C0
3800E0
7000E0
7000E0
700070
E00070
ENDCHAR
STARTCHAR 00C2
ENCODING 194
SWIDTH 625 0
DWIDTH 20 0
BBX 20 29 0 0
BITMAP
007000
00F000
00D800
018C00
030400
000000
007000
00F000
00F000
00F800
01F800
019800
039C00
039C00
030E00
070E00
070600
060700
0E0700
0E0380
1FFF80
1FFF80
1801C0
3801C0
3800E0
7000E0
7000E0
700070
E00070
ENDCHAR
STARTCHAR 00C3
ENCODING 195
SWIDTH 625 0
DWIDTH 20 0
BBX 20 28 0 1
BITMAP
03C300
07FF00
063E00
000000
000000
007000
00F000
00F000
00F800
01F800
019800
039C00
039C00
030E00
070E00
070600
060700
0E0700
0E0380
1FFF80
1FFF80
1801C0
3801C0
3800E0
7000E0
7000E0
700070
E00070
ENDCHAR
STARTCHAR 00C4
ENCODING 196
SWIDTH 625 0
DWIDTH 20 0
BBX 20 28 0 0
BITMAP
030E00
030E00
030E00
000000
000000
007000
00F000
00F000
00F800
01F800
019800
039C00
039C00
030E00
070E00
070600
060700
0E0700
0E0380
1FFF80
1FFF80
1801C0
3801C0
3800E0
7000E0
7000E0
700070
E00070
ENDCHAR
STARTCHAR 00C5
ENCODING 197
SWIDTH 625 0
DWIDTH 20 0
BBX 20 30 0 0
BITMAP
00F000
019800
010800
010800
011800
00F000
000000
007000
00F000
00F000
00F800
01F800
019C00
039C00
039C00
030E00
070E00
070600
0E0700
0E0700
0E0380
1FFF80
1FFF80
1801C0
3801C0
3800E0
7000E0
7000E0
700070
E00070
ENDCHAR
STARTCHAR 00C6
ENCODING 198
SWIDTH 875 0
DWIDTH 28 0
BBX 27 23 0 0
BITMAP
003FFFC0
007FFFC0
006E0000
00EE0000
00EE0000
00CE0000
01C60000
01860000
03870000
03870000
0707FF80
0707FF80
06030000
0FFF0000
0FFF8000
1C038000
1C038000
38038000
38038000
70018000
70018000
7001FFE0
E001FFE0
ENDCHAR
STARTCHAR 00C7
ENCODING 199
SWIDTH 718 0
DWIDTH 23 0
BBX 20 31 2 -8
BITMAP
01FC00
07FF80
0F07C0
1C01E0
3800E0
700040
700000
700000
E00000
E00000
E00000
E00000
E00000
E00000
E00000
700000
700040
7800F0
3C01E0
1F03C0
0FFFC0
07FF00
01FC00
007000
006000
00FC00
001E00
000E00
001E00
00FC00
00E000
ENDCHAR
STARTCHAR 00C8
ENCODING 200
SWIDTH 593 0
DWIDTH 19 0
BBX 15 29 3 0
BITMAP
0E00
0600
0700
0380
0000
0000
FFFC
FFFC
E000
E000
E000
E000
E000
E000
E000
E000
FFF8
FFF8
E000
E000
E000
E000
E000
E000
E000
E000
E000
FFFE
FFFE
ENDCHAR
STARTCHAR 00C9
ENCODING 201
SWIDTH 593 0
DWIDTH 19 0
BBX 15 29 3 0
BITMAP
00E0
01C0
0180
0380
0000
0000
FFFC
FFFC
E000
E000
E000
E000
E000
E000
E000
E000
FFF8
FFF8
E000
E000
E000
E000
E000
E000
E000
E000
E000
FFFE
FFFE
ENDCHAR
STARTCHAR 00CA
ENCODING 202
SWIDTH 593 0
DWIDTH 19 0
BBX 15 29 3 0
BITMAP
0380
0780
0EC0
0C60
1830
0000
FFFC
FFFC
E000
E000
E000
E000
E000
E000
E000
E000
FFF8
FFF8
E000
E000
E000
E000
E000
E000
E000
E000
E000
FFFE
FFFE
ENDCHAR
STARTCHAR 00CB
ENCODING 203
SWIDTH 593 0
DWIDTH 19 0
BBX 15 28 3 0
BITMAP
1C70
1C70
1C70
0000
0000
FFFC
FFFC
E000
E000
E000
E000
E000
E000
E000
E000
FFF8
FFF8
E000
E000
E000
E000
E000
E000
E000
E000
E000
FFFE
FFFE
ENDCHAR
STARTCHAR 00CC
ENCODING 204
SWIDTH 281 0
DWIDTH 9 0
BBX 5 29 1 0
BITMAP
E0
70
70
38
00
00
38
38
38
38
38
38
38
38
38
38
38
38
38
38
38
38
38
38
38
38
38
38
38
ENDCHAR
STARTCHAR 00CD
ENCODING 205
SWIDTH 281 0
DWIDTH 9 0
BBX 5 29 3 0
BITMAP
38
70
70
E0
00
00
E0
E0
E0
E0
E0
E0
E0
E0
E0
E0
E0
E0
E0
E0
E0
E0
E0
E0
E0
E0
E0
E0
E0
ENDCHAR
STARTCHAR 00CE
ENCODING 206
SWIDTH 281 0
DWIDTH 9 0
BBX 9 29 0 0
BITMAP
1C00
3E00
3600
6300
C180
0000
1C00
1C00
1C00
1C00
1C00
1C00
1C00
1C00
1C00
1C00
1C00
1C00
1C00
1C00
1C00
1C00
1C00
1C00
1C00
1C00
1C00
1C00
1C00
ENDCHAR
STARTCHAR 00CF
ENCODING 207
SWIDTH 281 0
DWIDTH 9 0
BBX 9 28 0 0
BITMAP
E380
E380
E380
0000
0000
1C00
1C00
1C00
1C00
1C00
1C00
1C00
1C00
1C00
1C00
1C00
1C00
1C00
1C00
1C00
1C00
1C00
1C00
1C00
1C00
1C00
1C00
1C00
ENDCHAR
STARTCHAR 00D0
ENCODING 208
SWIDTH 750 0
DWIDTH 24 0
BBX 21 23 1 0
BITMAP
3FF800
3FFF00
380F80
3801C0
3800E0
380070
380070
380070
380038
380038
FFC038
FFC038
380038
380038
380038
380070
380070
380070
3800E0
3801C0
380F80
3FFF00
3FF800
ENDCHAR
STARTCHAR 00D1
ENCODING 209
SWIDTH 750 0
DWIDTH 24 0
BBX 18 28 3 1
BITMAP
078400
0FFC00
0C7800
000000
000000
F001C0
F801C0
FC01C0
FC01C0
EE01C0
EE01C0
E701C0
E381C0
E381C0
E1C1C0
E0E1C0
E0E1C0
E071C0
E071C0
E039C0
E01DC0
E01DC0
E00FC0
E00FC0
E007C0
E003C0
E003C0
E001C0
ENDCHAR
STARTCHAR 00D2
ENCODING 210
SWIDTH 812 0
DWIDTH 26 0
BBX 22 29 2 0
BITMAP
01C000
00E000
006000
007000
000000
000000
00FE00
07FF80
0F07C0
1C01E0
3800F0
780078
700038
700038
E0001C
E0001C
E0001C
E0001C
E0001C
E0001C
E0001C
700038
700038
780078
380070
1C00E0
0F03C0
07FF80
01FE00
ENDCHAR
STARTCHAR 00D3
ENCODING 211
SWIDTH 812 0
DWIDTH 26 0
BBX 22 29 2 0
BITMAP
001C00
001800
003800
003000
000000
000000
00FE00
07FF80
0F07C0
1C01E0
3800F0
780078
700038
700038
E0001C
E0001C
E0001C
E0001C
E0001C
E0001C
E0001C
700038
700038
780078
380070
1C00E0
0F03C0
07FF80
01FE00
ENDCHAR
STARTCHAR 00D4
ENCODING 212
SWIDTH 812 0
DWIDTH 26 0
BBX 22 29 2 0
BITMAP
007000
007800
00DC00
018C00
030600
000000
00FE00
07FF80
0F07C0
1C01E0
3800F0
780078
700038
700038
E0001C
E0001C
E0001C
E0001C
E0001C
E0001C
E0001C
700038
700038
780078
380070
1C00E0
0F03C0
07FF80
01FE00
ENDCHAR
STARTCHAR 00D5
ENCODING 213
SWIDTH 812 0
DWIDTH 26 0
BBX 22 28 2 1
BITMAP
01E100
03FF00
021E00
000000
000000
00FE00
07FF80
0F07C0
1C01E0
3800F0
780078
700038
700038
E0001C
E0001C
E0001C
E0001C
E0001C
E0001C
E0001C
700038
700038
780078
380070
1C00E0
0F03C0
07FF80
01FE00
ENDCHAR
STARTCHAR 00D6
ENCODING 214
SWIDTH 812 0
DWIDTH 26 0
BBX 22 28 2 0
BITMAP
038E00
038E00
038E00
000000
000000
00FE00
07FF80
0F07C0
1C01E0
3800F0
780078
700038
700038
E0001C
E0001C
E0001C
E0001C
E0001C
E0001C
E0001C
700038
700038
780078
380070
1C00E0
0F03C0
07FF80
01FE00
ENDCHAR
STARTCHAR 00D7
ENCODING 215
SWIDTH 687 0
DWIDTH 22 0
BBX 13 13 4 4
BITMAP
4008
E018
7030
3860
1CC0
0F80
0700
0780
0DC0
18E0
3070
6038
C018
ENDCHAR
STARTCHAR 00D8
ENCODING 216
SWIDTH 812 0
DWIDTH 26 0
BBX 22 23 2 0
BITMAP
01FC30
07FFE0
0F07C0
1C01E0
3801F0
780378
700638
700E38
E00C1C
E0181C
E0301C
E0601C
E0601C
E0C01C
E1801C
F30038
770038
760078
3C0070
3C00E0
3F03C0
37FF80
61FC00
ENDCHAR
STARTCHAR 00D9
ENCODING 217
SWIDTH 750 0
DWIDTH 24 0
BBX 18 29 3 0
BITMAP
038000
038000
01C000
00C000
000000
000000
E001C0
E001C0
E001C0
E001C0
E001C0
E001C0
E001C0
E001C0
E001C0
E001C0
E001C0
E001C0
E001C0
E001C0
E001C0
E001C0
E001C0
E001C0
700380
780780
3C0F00
1FFE00
07F800
ENDCHAR
STARTCHAR 00DA
ENCODING 218
SWIDTH 750 0
DWIDTH 24 0
BBX 18 29 3 0
BITMAP
007000
007000
00E000
00C000
000000
000000
E001C0
E001C0
E001C0
E001C0
E001C0
E001C0
E001C0
E001C0
E001C0
E001C0
E001C0
E001C0
E001C0
E001C0
E001C0
E001C0
E001C0
E001C0
700380
780780
3C0F00
1FFE00
07F800
ENDCHAR
STARTCHAR 00DB
ENCODING 219
SWIDTH 750 0
DWIDTH 24 0
BBX 18 29 3 0
BITMAP
00C000
01E000
03F000
033000
061800
000000
E001C0
E001C0
E001C0
E001C0
E001C0
E001C0
E001C0
E001C0
E001C0
E001C0
E001C0
E001C0
E001C0
E001C0
E001C0
E001C0
E001C0
E001C0
700380
780780
3C0F00
1FFE00
07F800
ENDCHAR
STARTCHAR 00DC
ENCODING 220
SWIDTH 750 0
DWIDTH 24 0
BBX 18 28 3 0
BITMAP
061800
061800
061800
000000
000000
E001C0
E001C0
E001C0
E001C0
E001C0
E001C0
E001C0
E001C0
E001C0
E001C0
E001C0
E001C0
E001C0
E001C0
E001C0
E001C0
E001C0
E001C0
700380
780780
3C0F00
1FFE00
07F800
ENDCHAR
STARTCHAR 00DD
ENCODING 221
SWIDTH 625 0
DWIDTH 20 0
BBX 19 29 0 0
BITMAP
003800
007000
007000
00E000
000000
000000
E000E0
7001E0
7803C0
380380
1C0700
1E0F00
0E0E00
071C00
079C00
03B800
01F000
00F000
00E000
00E000
00E000
00E000
00E000
00E000
00E000
00E000
00E000
00E000
00E000
ENDCHAR
STARTCHAR 00DE
ENCODING 222
SWIDTH 625 0
DWIDTH 20 0
BBX 16 22 3 0
BITMAP
E000
E000
E000
E000
FFE0
FFF8
E03C
E00E
E007
E007
E007
E007
E007
E00E
E03C
FFF8
FFE0
E000
E000
E000
E000
E000
ENDCHAR
STARTCHAR 00DF
ENCODING 223
SWIDTH 562 0
DWIDTH 18 0
BBX 14 23 3 0
BITMAP
0FC0
3FF0
78F0
7078
E038
E038
E038
E030
E070
E1E0
E380
E3E0
E070
E038
E01C
E01C
E01C
E01C
E01C
E038
E078
E7F0
EFC0
ENDCHAR
STARTCHAR 00E0
ENCODING 224
SWIDTH 562 0
DWIDTH 18 0
BBX 14 23 2 0
BITMAP
1C00
0E00
0600
0300
0000
0000
0000
0FC0
3FE0
7870
7038
0038
0038
03F8
3FF8
7C18
F018
E038
E038
E078
70F8
7FD8
1F1C
ENDCHAR
STARTCHAR 00E1
ENCODING 225
SWIDTH 562 0
DWIDTH 18 0
BBX 14 23 2 0
BITMAP
01C0
01C0
0380
0300
0000
0000
0000
0FC0
3FE0
7870
7038
0038
0038
03F8
3FF8
7C18
F018
E038
E038
E078
70F8
7FD8
1F1C
ENDCHAR
STARTCHAR 00E2
ENCODING 226
SWIDTH 562 0
DWIDTH 18 0
BBX 14 23 2 0
BITMAP
0700
0780
0DC0
18E0
0000
0000
0000
0FC0
3FE0
7870
7038
0038
0038
03F8
3FF8
7C18
F018
E038
E038
E078
70F8
7FD8
1F1C
ENDCHAR
STARTCHAR 00E3
ENCODING 227
SWIDTH 562 0
DWIDTH 18 0
BBX 14 23 2 0
BITMAP
1C00
3F30
33F0
01E0
0000
0000
0000
0FC0
3FE0
7870
7038
0038
0038
03F8
3FF8
7C18
F018
E038
E038
E078
70F8
7FD8
1F1C
ENDCHAR
STARTCHAR 00E4
ENCODING 228
SWIDTH 562 0
DWIDTH 18 0
BBX 14 22 2 1
BITMAP
3860
3860
3860
0000
0000
0000
0FC0
3FE0
7870
7038
0038
0038
03F8
3FF8
7C18
F018
E038
E038
E078
70F8
7FD8
1F1C
ENDCHAR
STARTCHAR 00E5
ENCODING 229
SWIDTH 562 0
DWIDTH 18 0
BBX 14 23 2 0
BITMAP
0780
0840
0840
0840
0780
0000
0000
0FC0
3FE0
7870
7038
0038
0038
03F8
3FF8
7C18
F018
E038
E038
E078
70F8
7FD8
1F1C
ENDCHAR
STARTCHAR 00E6
ENCODING 230
SWIDTH 906 0
DWIDTH 29 0
BBX 25 16 2 0
BITMAP
0FC1F000
3FE7FC00
787E0E00
603C0700
00380300
00380380
0FFFFF80
3FFFFF80
78380000
F0380000
E0380000
E03C0000
E07C0380
70EF0700
7FC7FE00
1F01F800
ENDCHAR
STARTCHAR 00E7
ENCODING 231
SWIDTH 531 0
DWIDTH 17 0
BBX 14 23 2 -8
BITMAP
07E0
1FF0
3C38
781C
7000
E000
E000
E000
E000
E000
E000
F008
701C
7C3C
3FF8
0FE0
0300
0300
03C0
00E0
0060
01E0
07C0
ENDCHAR
STARTCHAR 00E8
ENCODING 232
SWIDTH 562 0
DWIDTH 18 0
BBX 15 23 2 0
BITMAP
0C00
0E00
0700
0300
0000
0000
0000
07C0
1FF0
3878
701C
601C
E00C
FFFC
FFFE
C000
E000
E000
6000
700C
3C3C
1FF8
07E0
ENDCHAR
STARTCHAR 00E9
ENCODING 233
SWIDTH 562 0
DWIDTH 18 0
BBX 15 23 2 0
BITMAP
00E0
01C0
0180
0300
0000
0000
0000
07C0
1FF0
3878
701C
601C
E00C
FFFC
FFFE
C000
E000
E000
6000
700C
3C3C
1FF8
07E0
ENDCHAR
STARTCHAR 00EA
ENCODING 234
SWIDTH 562 0
DWIDTH 18 0
BBX 15 23 2 0
BITMAP
0380
0780
0EC0
1C60
0000
0000
0000
07C0
1FF0
3878
701C
601C
E00C
FFFC
FFFE
C000
E000
E000
6000
700C
3C3C
1FF8
07E0
ENDCHAR
STARTCHAR 00EB
ENCODING 235
SWIDTH 562 0
DWIDTH 18 0
BBX 15 22 2 1
BITMAP
3870
3870
3870
0000
0000
0000
07C0
1FF0
3878
701C
601C
E00C
FFFC
FFFE
C000
E000
E000
6000
700C
3C3C
1FF8
07E0
ENDCHAR
STARTCHAR 00EC
ENCODING 236
SWIDTH 281 0
DWIDTH 9 0
BBX 5 23 1 0
BITMAP
E0
60
30
38
00
00
00
38
38
38
38
38
38
38
38
38
38
38
38
38
38
38
38
ENDCHAR
STARTCHAR 00ED
ENCODING 237
SWIDTH 281 0
DWIDTH 9 0
BBX 5 23 3 0
BITMAP
38
30
70
E0
00
00
00
E0
E0
E0
E0
E0
E0
E0
E0
E0
E0
E0
E0
E0
E0
E0
E0
ENDCHAR
STARTCHAR 00EE
ENCODING 238
SWIDTH 281 0
DWIDTH 9 0
BBX 9 23 0 0
BITMAP
1C00
3E00
7700
6300
C180
0000
0000
1C00
1C00
1C00
1C00
1C00
1C00
1C00
1C00
1C00
1C00
1C00
1C00
1C00
1C00
1C00
1C00
ENDCHAR
STARTCHAR 00EF
ENCODING 239
SWIDTH 281 0
DWIDTH 9 0
BBX 9 22 0 1
BITMAP
E380
E380
E380
0000
0000
0000
1C00
1C00
1C00
1C00
1C00
1C00
1C00
1C00
1C00
1C00
1C00
1C00
1C00
1C00
1C00
1C00
ENDCHAR
STARTCHAR 00F0
ENCODING 240
SWIDTH 593 0
DWIDTH 19 0
BBX 16 24 2 0
BITMAP
0810
1F70
07E0
07C0
1EE0
7870
2038
001C
07CC
1FFE
3C3E
780F
700F
E007
E007
E007
E007
E007
E00E
700E
701E
3C3C
1FF8
07E0
ENDCHAR
STARTCHAR 00F1
ENCODING 241
SWIDTH 593 0
DWIDTH 19 0
BBX 14 23 3 0
BITMAP
1E00
1F18
33F0
10E0
0000
0000
0000
E3E0
EFF8
FC38
F03C
F01C
E01C
E01C
E01C
E01C
E01C
E01C
E01C
E01C
E01C
E01C
E01C
ENDCHAR
STARTCHAR 00F2
ENCODING 242
SWIDTH 593 0
DWIDTH 19 0
BBX 16 23 2 0
BITMAP
0E00
0700
0300
0180
0000
0000
0000
07E0
1FF8
3C3C
781E
700E
E007
E007
E007
E007
E007
E007
F00E
701E
7C3C
3FF8
0FE0
ENDCHAR
STARTCHAR 00F3
ENCODING 243
SWIDTH 593 0
DWIDTH 19 0
BBX 16 23 2 0
BITMAP
00E0
00C0
01C0
0180
0000
0000
0000
07E0
1FF8
3C3C
781E
700E
E007
E007
E007
E007
E007
E007
F00E
701E
7C3C
3FF8
0FE0
ENDCHAR
STARTCHAR 00F4
ENCODING 244
SWIDTH 593 0
DWIDTH 19 0
BBX 16 23 2 0
BITMAP
0380
07C0
06E0
0C60
0010
0000
0000
07E0
1FF8
3C3C
781E
700E
E007
E007
E007
E007
E007
E007
F00E
701E
7C3C
3FF8
0FE0
ENDCHAR
STARTCHAR 00F5
ENCODING 245
SWIDTH 593 0
DWIDTH 19 0
BBX 16 23 2 0
BITMAP
0E00
1F98
19F8
10F0
0000
0000
0000
07E0
1FF8
3C3C
781E
700E
E007
E007
E007
E007
E007
E007
F00E
701E
7C3C
3FF8
0FE0
ENDCHAR
STARTCHAR 00F6
ENCODING 246
SWIDTH 593 0
DWIDTH 19 0
BBX 16 22 2 1
BITMAP
1C70
1C70
1C70
0000
0000
0000
07E0
1FF8
3C3C
781E
700E
E007
E007
E007
E007
E007
E007
F00E
701E
7C3C
3FF8
0FE0
ENDCHAR
STARTCHAR 00F7
ENCODING 247
SWIDTH 687 0
DWIDTH 22 0
BBX 18 16 2 2
BITMAP
00C000
01E000
01E000
00C000
000000
000000
000000
FFFFC0
FFFFC0
000000
000000
000000
00C000
01E000
01E000
00C000
ENDCHAR
STARTCHAR 00F8
ENCODING 248
SWIDTH 593 0
DWIDTH 19 0
BBX 16 17 2 0
BITMAP
0004
07E6
1FFC
3C3C
783E
707E
E067
E0C7
E187
E307
E607
EE07
EC0E
781E
783C
7FF8
CFE0
ENDCHAR
STARTCHAR 00F9
ENCODING 249
SWIDTH 593 0
DWIDTH 19 0
BBX 13 23 3 0
BITMAP
0C00
0C00
0600
0600
0000
0000
0000
E038
E038
E038
E038
E038
E038
E038
E038
E038
E038
E038
E078
E078
70F8
7FB8
1E38
ENDCHAR
STARTCHAR 00FA
ENCODING 250
SWIDTH 593 0
DWIDTH 19 0
BBX 13 23 3 0
BITMAP
0180
0180
0300
0300
0000
0000
0000
E038
E038
E038
E038
E038
E038
E038
E038
E038
E038
E038
E078
E078
70F8
7FB8
1E38
ENDCHAR
STARTCHAR 00FB
ENCODING 251
SWIDTH 593 0
DWIDTH 19 0
BBX 13 23 3 0
BITMAP
0700
0700
0D80
18C0
1840
0000
0000
E038
E038
E038
E038
E038
E038
E038
E038
E038
E038
E038
E078
E078
70F8
7FB8
1E38
ENDCHAR
STARTCHAR 00FC
ENCODING 252
SWIDTH 593 0
DWIDTH 19 0
BBX 13 22 3 1
BITMAP
18C0
18C0
18C0
0000
0000
0000
E038
E038
E038
E038
E038
E038
E038
E038
E038
E038
E038
E078
E078
70F8
7FB8
1E38
ENDCHAR
STARTCHAR 00FD
ENCODING 253
SWIDTH 500 0
DWIDTH 16 0
BBX 15 29 0 -7
BITMAP
00E0
00E0
01C0
0180
0000
0000
0000
E00E
700E
700E
381C
381C
1818
1C38
0C38
0E70
0E70
0660
07E0
03C0
03C0
01C0
0180
0380
0300
0700
0F00
3E00
3C00
ENDCHAR
STARTCHAR 00FE
ENCODING 254
SWIDTH 625 0
DWIDTH 20 0
BBX 16 30 3 -7
BITMAP
E000
E000
E000
E000
E000
E000
E000
E000
E3E0
EFF8
FC3C
F81E
F00E
E007
E007
E007
E007
E007
E007
F00E
F00E
FC3C
EFF8
E3E0
E000
E000
E000
E000
E000
E000
ENDCHAR
STARTCHAR 00FF
ENCODING 255
SWIDTH 500 0
DWIDTH 16 0
BBX 15 28 0 -6
BITMAP
1C70
1C70
1C70
0000
0000
0000
E00E
700E
700E
381C
381C
1818
1C38
0C38
0E70
0E70
0660
07E0
03C0
03C0
01C0
0180
0380
0300
0700
0F00
3E00
3C00
ENDCHAR
STARTCHAR 0100
ENCODING 256
SWIDTH 625 0
DWIDTH 20 0
BBX 20 28 0 0
BITMAP
03FC00
03FC00
000000
000000
000000
007000
00F000
00F000
00F800
01D800
019C00
039C00
038C00
030E00
070E00
070600
0E0700
0E0700
0E0380
1FFF80
1FFF80
3801C0
3801C0
3800E0
7000E0
7000E0
700070
E00070
ENDCHAR
STARTCHAR 0101
ENCODING 257
SWIDTH 562 0
DWIDTH 18 0
BBX 14 22 2 0
BITMAP
1FE0
1FE0
0000
0000
0000
0000
0FC0
3FE0
7870
7038
0038
0038
03F8
3FF8
7C18
F018
E038
E038
E078
70F8
7FD8
1F1C
ENDCHAR
STARTCHAR 0102
ENCODING 258
SWIDTH 625 0
DWIDTH 20 0
BBX 20 28 0 1
BITMAP
030E00
03FC00
01F800
000000
000000
007000
00F000
00F000
00F800
01F800
019800
039C00
039C00
030E00
070E00
070600
0E0700
0E0700
0E0380
1FFF80
1FFF80
1801C0
3801C0
3800E0
7000E0
7000E0
700070
E00070
ENDCHAR
STARTCHAR 0103
ENCODING 259
SWIDTH 562 0
DWIDTH 18 0
BBX 14 22 2 1
BITMAP
1860
1FE0
0FC0
0000
0000
0000
0FC0
3FE0
7870
7038
0038
0038
03F8
3FF8
7C18
F018
E038
E038
E078
70F8
7FD8
1F1C
ENDCHAR
STARTCHAR 0104
ENCODING 260
SWIDTH 625 0
DWIDTH 20 0
BBX 21 31 0 -8
BITMAP
007000
00F000
00F000
00F800
01F800
019800
039C00
039C00
030E00
070E00
070600
0E0700
0E0700
0E0380
1FFF80
1FFF80
1801C0
3801C0
3800E0
7000E0
7000E0
700070
E00070
000070
0000E0
0001C0
000380
000380
000388
0003F8
0001E0
ENDCHAR
STARTCHAR 0105
ENCODING 261
SWIDTH 562 0
DWIDTH 18 0
BBX 15 24 2 -8
BITMAP
0FC0
3FE0
7870
7038
0038
0038
03F8
3FF8
7C18
F018
E038
E038
E078
70F8
7FD8
1F1C
0038
0070
00E0
01C0
01C0
01C6
01FC
00F8
ENDCHAR
STARTCHAR 0106
ENCODING 262
SWIDTH 718 0
DWIDTH 23 0
BBX 19 29 2 0
BITMAP
001C00
001800
003800
007000
000000
000000
01FC00
07FF80
0F03C0
1C01E0
3800E0
780040
700000
700000
E00000
E00000
E00000
E00000
E00000
E00000
E00000
700000
700000
780060
3800E0
1C01E0
0F07C0
07FF00
01FC00
ENDCHAR
STARTCHAR 0107
ENCODING 263
SWIDTH 531 0
DWIDTH 17 0
BBX 14 23 2 0
BITMAP
00E0
00C0
0180
0380
0000
0000
0000
07E0
1FF0
3C38
781C
7000
E000
E000
E000
E000
E000
E000
F008
701C
7C3C
3FF8
0FE0
ENDCHAR
STARTCHAR 0108
ENCODING 264
SWIDTH 718 0
DWIDTH 23 0
BBX 19 29 2 0
BITMAP
007000
007800
00DC00
018C00
030600
000000
01FC00
07FF80
0F03C0
1C01E0
3800E0
780040
700000
700000
E00000
E00000
E00000
E00000
E00000
E00000
E00000
700000
700000
780060
3800E0
1C01E0
0F07C0
07FF00
01FC00
ENDCHAR
STARTCHAR 0109
ENCODING 265
SWIDTH 531 0
DWIDTH 17 0
BBX 14 23 2 0
BITMAP
0380
07C0
06E0
0C60
0000
0000
0000
07E0
1FF0
3C38
781C
7000
E000
E000
E000
E000
E000
E000
F008
701C
7C3C
3FF8
0FE0
ENDCHAR
STARTCHAR 010C
ENCODING 268
SWIDTH 718 0
DWIDTH 23 0
BBX 19 29 2 0
BITMAP
018600
01CC00
00DC00
007800
007000
000000
01FC00
07FF80
0F03C0
1C01E0
3800E0
780040
700000
700000
E00000
E00000
E00000
E00000
E00000
E00000
E00000
700000
700000
780060
3800E0
1C01E0
0F07C0
07FF00
01FC00
ENDCHAR
STARTCHAR 010D
ENCODING 269
SWIDTH 531 0
DWIDTH 17 0
BBX 14 23 2 0
BITMAP
1830
0C60
06C0
0380
0000
0000
0000
07E0
1FF0
3C38
781C
7000
E000
E000
E000
E000
E000
E000
F008
701C
7C3C
3FF8
0FE0
ENDCHAR
STARTCHAR 010E
ENCODING 270
SWIDTH 750 0
DWIDTH 24 0
BBX 19 29 3 0
BITMAP
0C1800
063000
036000
01E000
01C000
000000
FFE000
FFFC00
E03E00
E00700
E00380
E001C0
E001C0
E001C0
E000E0
E000E0
E000E0
E000E0
E000E0
E000E0
E000E0
E001C0
E001C0
E001C0
E00380
E00700
E03E00
FFFC00
FFE000
ENDCHAR
STARTCHAR 010F
ENCODING 271
SWIDTH 656 0
DWIDTH 21 0
BBX 21 24 1 0
BITMAP
000718
000718
000730
000730
000730
000720
000760
000700
07C700
1FF700
3C1F00
700F00
700700
E00700
E00700
E00700
E00700
E00700
E00700
700F00
781F00
3C3F00
1FF700
07C700
ENDCHAR
STARTCHAR 0111
ENCODING 273
SWIDTH 625 0
DWIDTH 20 0
BBX 18 24 1 0
BITMAP
000700
000700
000700
00FFC0
00FFC0
000700
000700
000700
07C700
1FF700
3C1F00
700F00
700700
E00700
E00700
E00700
E00700
E00700
E00700
700F00
781F00
3C3F00
1FF700
07C700
ENDCHAR
STARTCHAR 0112
ENCODING 274
SWIDTH 593 0
DWIDTH 19 0
BBX 15 28 3 0
BITMAP
1FF0
1FF0
0000
0000
0000
FFFC
FFFC
E000
E000
E000
E000
E000
E000
E000
E000
FFF8
FFF8
E000
E000
E000
E000
E000
E000
E000
E000
E000
FFFE
FFFE
ENDCHAR
STARTCHAR 0113
ENCODING 275
SWIDTH 562 0
DWIDTH 18 0
BBX 15 22 2 0
BITMAP
1FE0
1FE0
0000
0000
0000
0000
07C0
1FF0
3878
701C
601C
E00C
FFFC
FFFE
C000
E000
E000
6000
700C
3C3C
1FF8
07E0
ENDCHAR
STARTCHAR 0118
ENCODING 280
SWIDTH 593 0
DWIDTH 19 0
BBX 15 31 3 -8
BITMAP
FFFC
FFFC
E000
E000
E000
E000
E000
E000
E000
E000
FFF8
FFF8
E000
E000
E000
E000
E000
E000
E000
E000
E000
FFFE
FFFE
0380
0700
0E00
1C00
1C00
1C40
1FC0
0F80
ENDCHAR
STARTCHAR 0119
ENCODING 281
SWIDTH 562 0
DWIDTH 18 0
BBX 15 23 2 -7
BITMAP
07C0
1FF0
3878
701C
601C
E00C
FFFC
FFFE
C000
E000
E000
6008
700C
3C3C
1FF8
0FE0
0380
0700
0E00
1C00
1C00
1FC0
0F80
ENDCHAR
STARTCHAR 011A
ENCODING 282
SWIDTH 593 0
DWIDTH 19 0
BBX 15 29 3 0
BITMAP
0C30
0E60
06C0
03C0
0380
0000
FFFC
FFFC
E000
E000
E000
E000
E000
E000
E000
E000
FFF8
FFF8
E000
E000
E000
E000
E000
E000
E000
E000
E000
FFFE
FFFE
ENDCHAR
STARTCHAR 011B
ENCODING 283
SWIDTH 562 0
DWIDTH 18 0
BBX 15 23 2 0
BITMAP
1860
0CE0
07C0
0780
0000
0000
0000
07C0
1FF0
3878
701C
601C
E00C
FFFC
FFFE
C000
E000
E000
6000
700C
3C3C
1FF8
07E0
ENDCHAR
STARTCHAR 011C
ENCODING 284
SWIDTH 750 0
DWIDTH 24 0
BBX 21 29 1 0
BITMAP
003800
007800
00EC00
00C600
018300
000000
00FE00
03FF80
0F03E0
1C00F0
380070
380060
700000
700000
E00000
E00000
E00000
E00000
E007F8
E007F8
E00038
700038
700038
780038
380038
1E0078
0F01F0
07FFC0
00FF00
ENDCHAR
STARTCHAR 011D
ENCODING 285
SWIDTH 562 0
DWIDTH 18 0
BBX 14 29 2 -6
BITMAP
0700
0780
0DC0
18E0
0000
0000
001C
0FFC
3FF0
70F0
E078
E038
E038
E038
F078
78F0
3FE0
3FC0
7000
7000
7FC0
3FF8
3FFC
703C
E01C
E01C
F038
7FF0
1FC0
ENDCHAR
STARTCHAR 0124
ENCODING 292
SWIDTH 750 0
DWIDTH 24 0
BBX 18 29 3 0
BITMAP
00C000
01E000
03F000
033000
061800
000000
E001C0
E001C0
E001C0
E001C0
E001C0
E001C0
E001C0
E001C0
E001C0
E001C0
FFFFC0
FFFFC0
E001C0
E001C0
E001C0
E001C0
E001C0
E001C0
E001C0
E001C0
E001C0
E001C0
E001C0
ENDCHAR
STARTCHAR 0125
ENCODING 293
SWIDTH 593 0
DWIDTH 19 0
BBX 16 29 1 1
BITMAP
3800
7C00
EE00
C600
0000
3800
3800
3800
3800
3800
3800
3800
3800
38F8
3BFE
3F0E
3C0F
3C07
3807
3807
3807
3807
3807
3807
3807
3807
3807
3807
3807
ENDCHAR
STARTCHAR 0127
ENCODING 295
SWIDTH 593 0
DWIDTH 19 0
BBX 16 24 1 0
BITMAP
3800
3800
3800
FFC0
FFC0
3800
3800
3800
38F8
3BFE
3F0E
3C0F
3C07
3807
3807
3807
3807
3807
3807
3807
3807
3807
3807
3807
ENDCHAR
STARTCHAR 012A
ENCODING 298
SWIDTH 281 0
DWIDTH 9 0
BBX 9 28 0 0
BITMAP
FF80
FF80
0000
0000
0000
1C00
1C00
1C00
1C00
1C00
1C00
1C00
1C00
1C00
1C00
1C00
1C00
1C00
1C00
1C00
1C00
1C00
1C00
1C00
1C00
1C00
1C00
1C00
ENDCHAR
STARTCHAR 012B
ENCODING 299
SWIDTH 281 0
DWIDTH 9 0
BBX 9 22 0 0
BITMAP
FF80
FF80
0000
0000
0000
0000
1C00
1C00
1C00
1C00
1C00
1C00
1C00
1C00
1C00
1C00
1C00
1C00
1C00
1C00
1C00
1C00
ENDCHAR
STARTCHAR 0134
ENCODING 308
SWIDTH 375 0
DWIDTH 12 0
BBX 13 29 -1 0
BITMAP
01C0
03E0
0360
0630
0C18
0000
01C0
01C0
01C0
01C0
01C0
01C0
01C0
01C0
01C0
01C0
01C0
01C0
01C0
01C0
01C0
01C0
01C0
01C0
01C0
01C0
4380
FF80
7E00
ENDCHAR
STARTCHAR 0135
ENCODING 309
SWIDTH 281 0
DWIDTH 9 0
BBX 10 29 -1 -6
BITMAP
0E00
1F00
3B80
71C0
0000
0000
0000
0E00
0E00
0E00
0E00
0E00
0E00
0E00
0E00
0E00
0E00
0E00
0E00
0E00
0E00
0E00
0E00
0E00
0E00
1C00
3C00
F800
6000
ENDCHAR
STARTCHAR 0139
ENCODING 313
SWIDTH 531 0
DWIDTH 17 0
BBX 14 29 3 0
BITMAP
0700
0E00
0C00
1C00
0000
0000
E000
E000
E000
E000
E000
E000
E000
E000
E000
E000
E000
E000
E000
E000
E000
E000
E000
E000
E000
E000
FFFC
FFFC
FFFC
ENDCHAR
STARTCHAR 013A
ENCODING 314
SWIDTH 281 0
DWIDTH 9 0
BBX 5 29 3 1
BITMAP
38
70
60
E0
00
E0
E0
E0
E0
E0
E0
E0
E0
E0
E0
E0
E0
E0
E0
E0
E0
E0
E0
E0
E0
E0
E0
E0
E0
ENDCHAR
STARTCHAR 013D
ENCODING 317
SWIDTH 531 0
DWIDTH 17 0
BBX 14 23 3 1
BITMAP
E0E0
E0C0
E0C0
E1C0
E180
E180
E000
E000
E000
E000
E000
E000
E000
E000
E000
E000
E000
E000
E000
E000
FFFC
FFFC
FFFC
ENDCHAR
STARTCHAR 013E
ENCODING 318
SWIDTH 281 0
DWIDTH 9 0
BBX 8 24 3 0
BITMAP
E7
E6
E6
E6
EC
EC
E0
E0
E0
E0
E0
E0
E0
E0
E0
E0
E0
E0
E0
E0
E0
E0
E0
E0
ENDCHAR
STARTCHAR 0141
ENCODING 321
SWIDTH 531 0
DWIDTH 17 0
BBX 17 23 0 1
BITMAP
1C0000
1C0000
1C0000
1C0000
1C0000
1C2000
1C7000
1DE000
1F8000
1F0000
3C0000
FC0000
FC0000
1C0000
1C0000
1C0000
1C0000
1C0000
1C0000
1C0000
1FFF80
1FFF80
1FFF80
ENDCHAR
STARTCHAR 0142
ENCODING 322
SWIDTH 281 0
DWIDTH 9 0
BBX 9 24 0 0
BITMAP
1C00
1C00
1C00
1C00
1C00
1C00
1C00
1D00
1F80
1F00
1C00
7C00
FC00
5C00
1C00
1C00
1C00
1C00
1C00
1C00
1C00
1C00
1C00
1C00
ENDCHAR
STARTCHAR 0143
ENCODING 323
SWIDTH 750 0
DWIDTH 24 0
BBX 18 29 3 0
BITMAP
003800
007000
006000
00E000
000000
000000
F001C0
F801C0
FC01C0
FC01C0
EE01C0
EE01C0
E701C0
E381C0
E381C0
E1C1C0
E0E1C0
E0E1C0
E071C0
E071C0
E039C0
E01DC0
E01DC0
E00FC0
E00FC0
E007C0
E003C0
E003C0
E001C0
ENDCHAR
STARTCHAR 0144
ENCODING 324
SWIDTH 593 0
DWIDTH 19 0
BBX 14 23 3 0
BITMAP
00E0
00C0
0180
0180
0000
0000
0000
E3E0
EFF8
FC38
F03C
F01C
E01C
E01C
E01C
E01C
E01C
E01C
E01C
E01C
E01C
E01C
E01C
ENDCHAR
STARTCHAR 0147
ENCODING 327
SWIDTH 750 0
DWIDTH 24 0
BBX 18 29 3 0
BITMAP
061800
033000
01B000
01E000
00E000
000000
F001C0
F801C0
FC01C0
FC01C0
EE01C0
EE01C0
E701C0
E381C0
E381C0
E1C1C0
E0E1C0
E0E1C0
E071C0
E071C0
E039C0
E01DC0
E01DC0
E00FC0
E00FC0
E007C0
E003C0
E003C0
E001C0
ENDCHAR
STARTCHAR 0148
ENCODING 328
SWIDTH 593 0
DWIDTH 19 0
BBX 14 23 3 0
BITMAP
1860
0CE0
07C0
0780
0000
0000
0000
E3E0
EFF8
FC38
F03C
F01C
E01C
E01C
E01C
E01C
E01C
E01C
E01C
E01C
E01C
E01C
E01C
ENDCHAR
STARTCHAR 014B
ENCODING 331
SWIDTH 593 0
DWIDTH 19 0
BBX 14 22 3 -7
BITMAP
E3E0
EFF8
FC38
F01C
F01C
E01C
E01C
E01C
E01C
E01C
E01C
E01C
E01C
E01C
E01C
E01C
001C
001C
003C
0078
01F0
01C0
ENDCHAR
STARTCHAR 014C
ENCODING 332
SWIDTH 812 0
DWIDTH 26 0
BBX 22 28 2 0
BITMAP
03FE00
03FE00
000000
000000
000000
00FE00
07FF80
0F07C0
1C01E0
3800F0
780078
700038
700038
E0001C
E0001C
E0001C
E0001C
E0001C
E0001C
E0001C
700038
700038
780078
380070
1C00E0
0F03C0
07FF80
01FE00
ENDCHAR
STARTCHAR 014D
ENCODING 333
SWIDTH 593 0
DWIDTH 19 0
BBX 16 22 2 0
BITMAP
0FF0
0FF0
0000
0000
0000
0000
07E0
1FF8
3C3C
781E
700E
E007
E007
E007
E007
E007
E007
F00E
701E
7C3C
3FF8
0FE0
ENDCHAR
STARTCHAR 0150
ENCODING 336
SWIDTH 812 0
DWIDTH 26 0
BBX 22 29 2 0
BITMAP
007380
006300
006600
00CE00
00CC00
000000
00FE00
07FF80
0F07C0
1C01E0
3800F0
780078
700038
700038
E0001C
E0001C
E0001C
E0001C
E0001C
E0001C
E0001C
700038
700038
780078
380070
1C00E0
0F03C0
07FF80
01FE00
ENDCHAR
STARTCHAR 0151
ENCODING 337
SWIDTH 593 0
DWIDTH 19 0
BBX 16 23 2 0
BITMAP
0318
0338
0670
0660
0000
0000
0000
07E0
1FF8
3C3C
781E
700E
E007
E007
E007
E007
E007
E007
F00E
701E
7C3C
3FF8
0FE0
ENDCHAR
STARTCHAR 0152
ENCODING 338
SWIDTH 1000 0
DWIDTH 32 0
BBX 28 23 2 0
BITMAP
01FFFFF0
07FFFFF0
0F038000
1C038000
38038000
78038000
70038000
70038000
E0038000
E0038000
E003FFE0
E003FFE0
E0038000
E0038000
E0038000
70038000
70038000
78038000
38038000
1C038000
0F038000
07FFFFF0
01FFFFF0
ENDCHAR
STARTCHAR 0153
ENCODING 339
SWIDTH 968 0
DWIDTH 31 0
BBX 27 16 2 0
BITMAP
07E07E00
1FF9FF80
3C3FC3C0
781F01C0
700F00E0
E00600E0
E007FFE0
E007FFE0
E0060000
E0060000
E0070000
700F0040
781F80E0
3C3FC1E0
1FF9FF80
07E07F00
ENDCHAR
STARTCHAR 0154
ENCODING 340
SWIDTH 656 0
DWIDTH 21 0
BBX 17 29 3 0
BITMAP
00E000
01C000
018000
038000
000000
000000
FFE000
FFF800
E03E00
E00E00
E00700
E00700
E00700
E00700
E00700
E00E00
E03C00
FFF800
FFC000
E1F000
E07800
E03800
E01C00
E01E00
E00E00
E00F00
E00700
E00780
E00380
ENDCHAR
STARTCHAR 0155
ENCODING 341
SWIDTH 375 0
DWIDTH 12 0
BBX 9 23 3 0
BITMAP
0700
0E00
0C00
1C00
0000
0000
0000
E380
E780
EF00
FC00
F000
F000
E000
E000
E000
E000
E000
E000
E000
E000
E000
E000
ENDCHAR
STARTCHAR 0158
ENCODING 344
SWIDTH 656 0
DWIDTH 21 0
BBX 17 29 3 0
BITMAP
183000
0C6000
06C000
078000
038000
000000
FFE000
FFF800
E03E00
E00E00
E00700
E00700
E00700
E00700
E00700
E00E00
E03C00
FFF800
FFC000
E1F000
E07800
E03800
E01C00
E01E00
E00E00
E00F00
E00700
E00780
E00380
ENDCHAR
STARTCHAR 0159
ENCODING 345
SWIDTH 375 0
DWIDTH 12 0
BBX 10 23 2 0
BITMAP
E180
7300
3E00
1E00
0000
0000
0000
71C0
73C0
7780
7E00
7800
7800
7000
7000
7000
7000
7000
7000
7000
7000
7000
7000
ENDCHAR
STARTCHAR 015A
ENCODING 346
SWIDTH 593 0
DWIDTH 19 0
BBX 15 29 2 0
BITMAP
00E0
00E0
01C0
0180
0000
0000
0FE0
3FF8
783C
701E
E008
E000
E000
F000
7800
7E00
3FC0
0FF0
01F8
007C
001E
001E
000E
000E
400E
E01C
F83C
3FF8
0FE0
ENDCHAR
STARTCHAR 015B
ENCODING 347
SWIDTH 468 0
DWIDTH 15 0
BBX 11 23 2 0
BITMAP
0380
0300
0700
0600
0000
0000
0000
1F80
7FC0
F0E0
E000
E000
F000
7800
3F00
0FC0
03C0
01E0
00E0
00E0
E1E0
FFC0
3F00
ENDCHAR
STARTCHAR 015C
ENCODING 348
SWIDTH 593 0
DWIDTH 19 0
BBX 15 29 2 0
BITMAP
0380
07C0
06E0
0C60
1830
0000
0FE0
3FF8
783C
701E
E008
E000
E000
F000
7800
7E00
3FC0
0FF0
01F8
007C
001E
001E
000E
000E
400E
E01C
F83C
3FF8
0FE0
ENDCHAR
STARTCHAR 015D
ENCODING 349
SWIDTH 468 0
DWIDTH 15 0
BBX 11 23 2 0
BITMAP
0E00
1F00
1B80
3180
0000
0000
0000
1F80
7FC0
F0E0
E000
E000
F000
7800
3F00
0FC0
03C0
01E0
00E0
00E0
E1E0
FFC0
3F00
ENDCHAR
STARTCHAR 015E
ENCODING 350
SWIDTH 593 0
DWIDTH 19 0
BBX 15 31 2 -9
BITMAP
0FE0
3FF8
783C
701E
E008
E000
E000
F000
7800
7E00
3FC0
0FF0
01F8
007C
001E
001E
000E
000E
400E
E01C
F83C
3FF8
0FE0
0000
0000
0300
0300
0300
0600
0600
0600
ENDCHAR
STARTCHAR 015F
ENCODING 351
SWIDTH 468 0
DWIDTH 15 0
BBX 11 24 2 -9
BITMAP
1F80
7FC0
F0E0
E000
E000
F000
7800
3F00
0FC0
03C0
01E0
00E0
00E0
E1E0
FFC0
3F00
0000
0000
1C00
1800
1800
1800
3000
3000
ENDCHAR
STARTCHAR 0160
ENCODING 352
SWIDTH 593 0
DWIDTH 19 0
BBX 15 29 2 0
BITMAP
1860
0CE0
06C0
0780
0380
0000
0FE0
3FF8
783C
701E
E008
E000
E000
F000
7800
7E00
3FC0
0FF0
01F8
007C
001E
001E
000E
000E
400E
E01C
F83C
3FF8
0FE0
ENDCHAR
STARTCHAR 0161
ENCODING 353
SWIDTH 468 0
DWIDTH 15 0
BBX 11 23 2 0
BITMAP
6180
3380
1F00
1E00
0000
0000
0000
1F80
7FC0
F0E0
E000
E000
F000
7800
3F00
0FC0
03C0
01E0
00E0
00E0
E1E0
FFC0
3F00
ENDCHAR
STARTCHAR 0162
ENCODING 354
SWIDTH 593 0
DWIDTH 19 0
BBX 19 30 0 -8
BITMAP
FFFFE0
FFFFE0
00E000
00E000
00E000
00E000
00E000
00E000
00E000
00E000
00E000
00E000
00E000
00E000
00E000
00E000
00E000
00E000
00E000
00E000
00E000
00E000
000000
000000
00E000
00C000
00C000
01C000
018000
018000
ENDCHAR
STARTCHAR 0163
ENCODING 355
SWIDTH 343 0
DWIDTH 11 0
BBX 9 29 1 -9
BITMAP
0800
3800
3800
3800
3800
FF80
FF80
3800
3800
3800
3800
3800
3800
3800
3800
3800
3800
3800
3C00
1F80
0F80
0000
0000
0E00
0C00
0C00
1C00
1800
1800
ENDCHAR
STARTCHAR 0164
ENCODING 356
SWIDTH 593 0
DWIDTH 19 0
BBX 19 28 0 0
BITMAP
060C00
031800
01B000
00F000
00E000
000000
FFFFE0
FFFFE0
00E000
00E000
00E000
00E000
00E000
00E000
00E000
00E000
00E000
00E000
00E000
00E000
00E000
00E000
00E000
00E000
00E000
00E000
00E000
00E000
ENDCHAR
STARTCHAR 0165
ENCODING 357
SWIDTH 343 0
DWIDTH 11 0
BBX 11 24 1 1
BITMAP
0060
0060
00E0
08C0
38C0
3880
3800
3800
FF80
FF80
3800
3800
3800
3800
3800
3800
3800
3800
3800
3800
3800
3C00
1F80
0F80
ENDCHAR
STARTCHAR 016A
ENCODING 362
SWIDTH 750 0
DWIDTH 24 0
BBX 18 28 3 0
BITMAP
07F800
07F800
000000
000000
000000
E001C0
E001C0
E001C0
E001C0
E001C0
E001C0
E001C0
E001C0
E001C0
E001C0
E001C0
E001C0
E001C0
E001C0
E001C0
E001C0
E001C0
E001C0
700380
780780
3C0F00
1FFE00
07F800
ENDCHAR
STARTCHAR 016B
ENCODING 363
SWIDTH 593 0
DWIDTH 19 0
BBX 13 22 3 0
BITMAP
1FC0
1FC0
0000
0000
0000
0000
E038
E038
E038
E038
E038
E038
E038
E038
E038
E038
E038
E078
E078
70F8
7FB8
1E38
ENDCHAR
STARTCHAR 016C
ENCODING 364
SWIDTH 750 0
DWIDTH 24 0
BBX 18 28 3 1
BITMAP
061800
07F800
03F000
000000
000000
E001C0
E001C0
E001C0
E001C0
E001C0
E001C0
E001C0
E001C0
E001C0
E001C0
E001C0
E001C0
E001C0
E001C0
E001C0
E001C0
E001C0
E001C0
700380
780780
3C0F00
1FFE00
07F800
ENDCHAR
STARTCHAR 016D
ENCODING 365
SWIDTH 593 0
DWIDTH 19 0
BBX 13 22 3 1
BITMAP
18C0
1FC0
0F80
0000
0000
0000
E038
E038
E038
E038
E038
E038
E038
E038
E038
E038
E038
E078
E078
70F8
7FB8
1E38
ENDCHAR
STARTCHAR 016E
ENCODING 366
SWIDTH 750 0
DWIDTH 24 0
BBX 18 30 3 0
BITMAP
01E000
033000
021000
021000
023000
01E000
000000
E001C0
E001C0
E001C0
E001C0
E001C0
E001C0
E001C0
E001C0
E001C0
E001C0
E001C0
E001C0
E001C0
E001C0
E001C0
E001C0
E001C0
E001C0
700380
780780
3C0F00
1FFE00
07F800
ENDCHAR
STARTCHAR 016F
ENCODING 367
SWIDTH 593 0
DWIDTH 19 0
BBX 13 23 3 0
BITMAP
0700
0880
0880
0880
0700
0000
0000
E038
E038
E038
E038
E038
E038
E038
E038
E038
E038
E038
E078
E078
70F8
7FB8
1E38
ENDCHAR
STARTCHAR 0170
ENCODING 368
SWIDTH 750 0
DWIDTH 24 0
BBX 18 29 3 0
BITMAP
00CE00
01CC00
019800
019800
033000
000000
E001C0
E001C0
E001C0
E001C0
E001C0
E001C0
E001C0
E001C0
E001C0
E001C0
E001C0
E001C0
E001C0
E001C0
E001C0
E001C0
E001C0
E001C0
700380
780780
3C0F00
1FFE00
07F800
ENDCHAR
STARTCHAR 0171
ENCODING 369
SWIDTH 593 0
DWIDTH 19 0
BBX 13 23 3 0
BITMAP
0370
0670
06E0
0CC0
0D80
0000
0000
E038
E038
E038
E038
E038
E038
E038
E038
E038
E038
E038
E078
E078
70F8
7FB8
1E38
ENDCHAR
STARTCHAR 0179
ENCODING 377
SWIDTH 656 0
DWIDTH 21 0
BBX 18 29 1 0
BITMAP
003800
007000
006000
00E000
000000
000000
7FFFC0
7FFFC0
000380
000700
000F00
001E00
001C00
003800
007800
00F000
00E000
01C000
03C000
078000
070000
0E0000
1E0000
3C0000
380000
700000
FFFFC0
FFFFC0
FFFFC0
ENDCHAR
STARTCHAR 017A
ENCODING 378
SWIDTH 468 0
DWIDTH 15 0
BBX 13 23 1 0
BITMAP
01C0
0180
0300
0700
0000
0000
0000
7FF8
7FF8
0070
00E0
01C0
01C0
0380
0700
0700
0E00
1C00
3800
3800
7000
FFF8
FFF8
ENDCHAR
STARTCHAR 017B
ENCODING 379
SWIDTH 656 0
DWIDTH 21 0
BBX 19 29 1 0
BITMAP
00E000
00E000
00E000
000000
000000
000000
7FFFC0
7FFFC0
000380
000780
000F00
000E00
001C00
003C00
007800
007000
00E000
01E000
03C000
038000
070000
0F0000
1E0000
1C0000
380000
780000
7FFFE0
FFFFE0
FFFFE0
ENDCHAR
STARTCHAR 017C
ENCODING 380
SWIDTH 468 0
DWIDTH 15 0
BBX 12 23 1 0
BITMAP
0700
0700
0700
0000
0000
0000
0000
7FF0
7FF0
0070
00E0
01C0
0380
0380
0700
0E00
1E00
1C00
3800
7000
7000
FFF0
FFF0
ENDCHAR
STARTCHAR 017D
ENCODING 381
SWIDTH 656 0
DWIDTH 21 0
BBX 18 29 1 0
BITMAP
061800
033800
03F000
01E000
00C000
000000
7FFFC0
7FFFC0
000380
000700
000F00
001E00
001C00
003800
007800
00F000
00E000
01C000
03C000
078000
070000
0E0000
1E0000
3C0000
380000
700000
FFFFC0
FFFFC0
FFFFC0
ENDCHAR
STARTCHAR 017E
ENCODING 382
SWIDTH 468 0
DWIDTH 15 0
BBX 13 23 1 0
BITMAP
1860
1CC0
0F80
0780
0000
0000
0000
7FF8
7FF8
0070
00E0
00E0
01C0
0380
0700
0700
0E00
1C00
3800
3800
7000
FFF8
FFF8
ENDCHAR
STARTCHAR 0193
ENCODING 403
SWIDTH 750 0
DWIDTH 24 0
BBX 24 26 1 0
BITMAP
00001F
00003F
000038
00FE78
07FFF8
0F03F8
1C00F8
380078
380060
700000
700000
E00000
E00000
E00000
E00000
E007F8
E007F8
E00038
700038
700038
780038
380038
1E0078
0F01F0
07FFC0
00FF00
ENDCHAR
STARTCHAR 01C2
ENCODING 450
SWIDTH 500 0
DWIDTH 16 0
BBX 14 23 1 1
BITMAP
0300
0300
0300
0300
0300
0300
0300
FFFC
FFFC
0300
0300
0300
FFFC
FFFC
0300
0300
0300
0300
0300
0300
0300
0300
0300
ENDCHAR
STARTCHAR 01CD
ENCODING 461
SWIDTH 625 0
DWIDTH 20 0
BBX 20 29 0 0
BITMAP
030C00
018C00
01D800
00F000
007000
000000
006000
00F000
00F000
00F800
01F800
019800
039C00
039C00
030E00
070E00
070600
0E0700
0E0700
0E0380
1FFF80
1FFF80
1801C0
3801C0
3800E0
7000E0
7000E0
700070
E00070
ENDCHAR
STARTCHAR 01CE
ENCODING 462
SWIDTH 562 0
DWIDTH 18 0
BBX 14 23 2 0
BITMAP
1860
0CC0
0FC0
0780
0000
0000
0000
0FC0
3FE0
7870
7038
0038
0038
01F8
3FF8
7C18
F018
E038
E038
E078
70F8
7FD8
1F1C
ENDCHAR
STARTCHAR 01D0
ENCODING 464
SWIDTH 281 0
DWIDTH 9 0
BBX 9 23 0 1
BITMAP
E380
7700
3E00
1C00
0000
0000
0000
1C00
1C00
1C00
1C00
1C00
1C00
1C00
1C00
1C00
1C00
1C00
1C00
1C00
1C00
1C00
1C00
ENDCHAR
STARTCHAR 01D1
ENCODING 465
SWIDTH 812 0
DWIDTH 26 0
BBX 22 29 2 0
BITMAP
010600
018C00
00D800
007800
007000
000000
01FC00
07FF80
0F03C0
1E01E0
380070
780078
700038
700038
E0001C
E0001C
E0001C
E0001C
E0001C
E0001C
E0001C
700038
700038
780078
380070
1C00E0
0F03C0
07FF80
01FE00
ENDCHAR
STARTCHAR 01D2
ENCODING 466
SWIDTH 593 0
DWIDTH 19 0
BBX 16 23 2 0
BITMAP
0C30
0E60
07C0
03C0
0000
0000
0000
07E0
1FF8
3C3C
781E
700E
E007
E007
E007
E007
E007
E007
700E
781E
3C3C
1FF8
07E0
ENDCHAR
STARTCHAR 01D4
ENCODING 468
SWIDTH 593 0
DWIDTH 19 0
BBX 13 23 3 0
BITMAP
18C0
0D80
0D80
0700
0000
0000
0000
E038
E038
E038
E038
E038
E038
E038
E038
E038
E038
E038
E078
E078
70F8
7FB8
1E38
ENDCHAR
STARTCHAR 01D6
ENCODING 470
SWIDTH 593 0
DWIDTH 19 0
BBX 13 26 3 0
BITMAP
1FC0
1FC0
0000
0000
18C0
18C0
18C0
0000
0000
0000
E038
E038
E038
E038
E038
E038
E038
E038
E038
E038
E038
E078
E078
70F8
7FB8
1E38
ENDCHAR
STARTCHAR 01D8
ENCODING 472
SWIDTH 593 0
DWIDTH 19 0
BBX 13 28 3 0
BITMAP
01C0
0180
0300
0300
0600
0000
18C0
18C0
18C0
0000
0000
0000
E038
E038
E038
E038
E038
E038
E038
E038
E038
E038
E038
E078
E078
70F8
7FB8
1E38
ENDCHAR
STARTCHAR 01DA
ENCODING 474
SWIDTH 593 0
DWIDTH 19 0
BBX 13 28 3 0
BITMAP
18C0
18C0
0D80
0700
0700
0000
18C0
18C0
18C0
0000
0000
0000
E038
E038
E038
E038
E038
E038
E038
E038
E038
E038
E038
E078
E078
70F8
7FB8
1E38
ENDCHAR
STARTCHAR 01DC
ENCODING 476
SWIDTH 593 0
DWIDTH 19 0
BBX 13 28 3 0
BITMAP
1C00
0C00
0600
0600
0300
0000
18C0
18C0
18C0
0000
0000
0000
E038
E038
E038
E038
E038
E038
E038
E038
E038
E038
E038
E078
E078
70F8
7FB8
1E38
ENDCHAR
STARTCHAR 01F8
ENCODING 504
SWIDTH 750 0
DWIDTH 24 0
BBX 18 29 3 0
BITMAP
038000
038000
01C000
00C000
000000
000000
F001C0
F801C0
FC01C0
FC01C0
EE01C0
EE01C0
E701C0
E381C0
E381C0
E1C1C0
E0E1C0
E0E1C0
E071C0
E071C0
E039C0
E01DC0
E01DC0
E00FC0
E00FC0
E007C0
E003C0
E003C0
E001C0
ENDCHAR
STARTCHAR 01F9
ENCODING 505
SWIDTH 593 0
DWIDTH 19 0
BBX 14 23 3 0
BITMAP
1C00
0E00
0600
0700
0000
0000
0000
E3E0
EFF8
FC38
F03C
F01C
E01C
E01C
E01C
E01C
E01C
E01C
E01C
E01C
E01C
E01C
E01C
ENDCHAR
STARTCHAR 01FD
ENCODING 509
SWIDTH 906 0
DWIDTH 29 0
BBX 25 23 2 0
BITMAP
00070000
00060000
000E0000
000C0000
00000000
00000000
00000000
0FC1F000
3FE7FC00
787E0E00
603C0700
00380300
00380380
0FFFFF80
3FFFFF80
78380000
F0380000
E0380000
E03C0000
E07C0380
70EF0700
7FC7FE00
1F01F800
ENDCHAR
STARTCHAR 0250
ENCODING 592
SWIDTH 562 0
DWIDTH 18 0
BBX 14 16 2 0
BITMAP
E3E0
6FF8
7C38
781C
701C
701C
603C
60F8
7FF0
7F00
7000
7000
7038
3878
3FF0
0FC0
ENDCHAR
STARTCHAR 0251
ENCODING 593
SWIDTH 625 0
DWIDTH 20 0
BBX 17 16 1 0
BITMAP
07E300
1FFF00
3C3F00
780F00
700700
E00700
E00700
E00700
E00700
E00700
E00700
700F00
701F00
3C3F00
1FF300
0FC380
ENDCHAR
STARTCHAR 0252
ENCODING 594
SWIDTH 625 0
DWIDTH 20 0
BBX 17 16 2 0
BITMAP
E1F000
67FC00
6E1E00
7C0F00
780700
700380
700380
700380
700380
700380
700380
700700
780F00
7C1E00
7FFC00
63F000
ENDCHAR
STARTCHAR 0253
ENCODING 595
SWIDTH 625 0
DWIDTH 20 0
BBX 16 23 3 -1
BITMAP
0FE0
1FF0
7838
7018
E000
E000
E000
E3E0
EFF8
FC3C
F01E
F00E
E007
E007
E007
E007
E007
E007
E00E
F01E
FC3C
EFF8
C3E0
ENDCHAR
STARTCHAR 0254
ENCODING 596
SWIDTH 531 0
DWIDTH 17 0
BBX 15 16 1 0
BITMAP
0FC0
3FF0
7878
E03C
201C
000E
000E
000E
000E
000E
000E
201C
E03C
7078
3FF0
0FC0
ENDCHAR
STARTCHAR 0255
ENCODING 597
SWIDTH 562 0
DWIDTH 18 0
BBX 15 19 2 -4
BITMAP
07E0
1FF0
3C38
781C
7000
E000
E000
E000
E000
E03C
E0FE
F1C6
7386
7B0E
3FFC
0FF0
0E00
0C00
0C00
ENDCHAR
STARTCHAR 0256
ENCODING 598
SWIDTH 625 0
DWIDTH 20 0
BBX 21 30 1 -6
BITMAP
000700
000700
000700
000700
000700
000700
000700
000700
07C700
1FF700
3C3F00
700F00
700F00
E00700
E00700
E00700
E00700
E00700
E00700
700F00
781F00
3C3F00
1FF700
07C700
000700
000700
000700
000790
0003F8
0001E0
ENDCHAR
STARTCHAR 0257
ENCODING 599
SWIDTH 625 0
DWIDTH 20 0
BBX 20 24 1 0
BITMAP
0001E0
0003F0
000790
000700
000700
000700
000700
000700
07C700
1FF700
3C3F00
700F00
700F00
E00700
E00700
E00700
E00700
E00700
E00700
700F00
781F00
3C3F00
1FF700
07C700
ENDCHAR
STARTCHAR 0258
ENCODING 600
SWIDTH 562 0
DWIDTH 18 0
BBX 15 16 2 0
BITMAP
0FC0
3FF0
7878
E03C
E01C
E00E
FFFE
FFFE
000E
000E
001E
401C
C03C
F078
7FF0
1FC0
ENDCHAR
STARTCHAR 0259
ENCODING 601
SWIDTH 562 0
DWIDTH 18 0
BBX 15 16 2 0
BITMAP
0FC0
3FF0
F078
403C
001C
000E
000E
FFFE
FFFE
C01E
E01E
E01C
703C
7878
3FF0
0FC0
ENDCHAR
STARTCHAR 025A
ENCODING 602
SWIDTH 812 0
DWIDTH 26 0
BBX 24 16 2 0
BITMAP
0FC000
3FF000
787840
601DE0
E00FE0
C01E70
C03F30
00F73B
03C71E
07870C
1E0700
780700
380E00
1E1C00
0FF800
03E000
ENDCHAR
STARTCHAR 025C
ENCODING 604
SWIDTH 500 0
DWIDTH 16 0
BBX 13 16 1 0
BITMAP
7FC0
7FF0
4078
0038
0038
0078
1FF0
1F80
1FF0
0078
0038
0038
0038
C0F8
FFF0
7FC0
ENDCHAR
STARTCHAR 025E
ENCODING 606
SWIDTH 593 0
DWIDTH 19 0
BBX 15 16 2 0
BITMAP
07F0
1FFC
3C1E
780E
700E
E01E
E1FC
E3E0
E3FC
E01E
E00E
700E
700E
3C3C
1FF8
07E0
ENDCHAR
STARTCHAR 025F
ENCODING 607
SWIDTH 281 0
DWIDTH 9 0
BBX 10 22 -1 -6
BITMAP
0E00
0E00
0E00
0E00
0E00
0E00
0E00
0E00
0E00
0E00
0E00
0E00
0E00
0E00
7FC0
7FC0
0E00
0E00
1C00
3C00
F800
6000
ENDCHAR
STARTCHAR 0260
ENCODING 608
SWIDTH 625 0
DWIDTH 20 0
BBX 20 30 1 -6
BITMAP
0001E0
0003F0
000790
000700
000700
000700
000700
000700
07E700
1FFF00
3C3F00
780F00
700F00
E00700
E00700
E00700
E00700
E00700
E00700
700F00
700F00
3C3F00
1FF700
07C700
000700
000700
700E00
781E00
3FFC00
07F000
ENDCHAR
STARTCHAR 0261
ENCODING 609
SWIDTH 625 0
DWIDTH 20 0
BBX 16 22 1 -5
BITMAP
07E3
1FF7
3C3F
780F
700F
E007
E007
E007
E007
E007
E007
700F
700F
3C3F
1FF7
07C7
0007
0007
700E
781E
3FFC
07F0
ENDCHAR
STARTCHAR 0264
ENCODING 612
SWIDTH 593 0
DWIDTH 19 0
BBX 18 16 0 0
BITMAP
F003C0
7C0FC0
0F1E40
07B800
03F000
01E000
01F000
03B800
03B800
071C00
071C00
071C00
071C00
073C00
03F800
01F000
ENDCHAR
STARTCHAR 0265
ENCODING 613
SWIDTH 593 0
DWIDTH 19 0
BBX 13 22 3 -7
BITMAP
E038
E038
E038
E038
E038
E038
E038
E038
E038
E038
E038
E078
E078
70F8
7FB8
1E38
0038
0038
0038
0038
0038
0038
ENDCHAR
STARTCHAR 0266
ENCODING 614
SWIDTH 593 0
DWIDTH 19 0
BBX 14 23 3 0
BITMAP
0FC0
3FF0
7878
7018
E000
E000
E000
E3E0
EFF8
FC38
F03C
F01C
E01C
E01C
E01C
E01C
E01C
E01C
E01C
E01C
E01C
E01C
E01C
ENDCHAR
STARTCHAR 0267
ENCODING 615
SWIDTH 593 0
DWIDTH 19 0
BBX 14 29 3 -7
BITMAP
0FC0
3FF0
7878
7018
E000
E000
E000
E3E0
EFF8
FC38
F01C
F01C
E01C
E01C
E01C
E01C
E01C
E01C
E01C
E01C
E01C
E01C
E01C
001C
001C
0038
0078
01F0
01C0
ENDCHAR
STARTCHAR 0268
ENCODING 616
SWIDTH 281 0
DWIDTH 9 0
BBX 9 22 0 0
BITMAP
1C00
1C00
1C00
0000
0000
0000
1C00
1C00
1C00
1C00
1C00
1C00
FF80
FF80
1C00
1C00
1C00
1C00
1C00
1C00
1C00
1C00
ENDCHAR
STARTCHAR 026C
ENCODING 620
SWIDTH 343 0
DWIDTH 11 0
BBX 11 24 -1 0
BITMAP
0380
0380
0380
0380
0380
0380
7B80
FF80
C780
C380
E380
7F80
3FE0
03A0
0380
0380
0380
0380
0380
0380
0380
0380
0380
0380
ENDCHAR
STARTCHAR 026D
ENCODING 621
SWIDTH 312 0
DWIDTH 10 0
BBX 7 30 3 -5
BITMAP
E0
E0
E0
E0
E0
E0
E0
E0
E0
E0
E0
E0
E0
E0
E0
E0
E0
E0
E0
E0
E0
E0
E0
E0
E0
E0
E0
F2
7E
3C
ENDCHAR
STARTCHAR 026E
ENCODING 622
SWIDTH 656 0
DWIDTH 21 0
BBX 16 30 3 -6
BITMAP
E000
E000
E000
E000
E000
E000
E000
E000
FFFF
FFFF
E00E
E01C
E038
E070
E0E0
E3C0
E7F8
E7FC
E61E
E00E
E007
E007
E007
E007
0007
0807
1C0E
1E1E
0FFC
03F0
ENDCHAR
STARTCHAR 026F
ENCODING 623
SWIDTH 875 0
DWIDTH 28 0
BBX 22 16 3 0
BITMAP
E0381C
E0381C
E0381C
E0381C
E0381C
E0381C
E0381C
E0381C
E0381C
E0381C
E0381C
E0381C
E0783C
70DC7C
7F9FDC
1F079C
ENDCHAR
STARTCHAR 0270
ENCODING 624
SWIDTH 875 0
DWIDTH 28 0
BBX 22 22 3 -7
BITMAP
E0381C
E0381C
E0381C
E0381C
E0381C
E0381C
E0381C
E0381C
E0381C
E0381C
E0381C
E0381C
E0783C
70DC7C
7F9FDC
1F079C
00001C
00001C
00001C
00001C
00001C
00001C
ENDCHAR
STARTCHAR 0271
ENCODING 625
SWIDTH 875 0
DWIDTH 28 0
BBX 22 22 3 -7
BITMAP
E7C1E0
EFF7F8
F87638
F03C1C
E0381C
E0381C
E0381C
E0381C
E0381C
E0381C
E0381C
E0381C
E0381C
E0381C
E0381C
E0381C
00001C
00001C
00003C
000078
0001F0
0000E0
ENDCHAR
STARTCHAR 0272
ENCODING 626
SWIDTH 593 0
DWIDTH 19 0
BBX 18 22 -1 -7
BITMAP
0E3E00
0EFF80
0FC380
0F01C0
0F01C0
0E01C0
0E01C0
0E01C0
0E01C0
0E01C0
0E01C0
0E01C0
0E01C0
0E01C0
0E01C0
0E01C0
0E0000
0E0000
1C0000
3C0000
F80000
E00000
ENDCHAR
STARTCHAR 0273
ENCODING 627
SWIDTH 593 0
DWIDTH 19 0
BBX 19 22 3 -6
BITMAP
E3E000
EFF800
FC3800
F01C00
F01C00
E01C00
E01C00
E01C00
E01C00
E01C00
E01C00
E01C00
E01C00
E01C00
E01C00
E01C00
001C00
001C00
001C00
001E40
000FE0
000780
ENDCHAR
STARTCHAR 0275
ENCODING 629
SWIDTH 593 0
DWIDTH 19 0
BBX 16 16 2 0
BITMAP
0FE0
3FF8
783C
701E
E00E
E00F
E007
FFFF
FFFF
E007
E00F
600E
701E
383C
1FF8
07E0
ENDCHAR
STARTCHAR 0279
ENCODING 633
SWIDTH 375 0
DWIDTH 12 0
BBX 9 16 0 -1
BITMAP
0380
0380
0380
0380
0380
0380
0380
0380
0380
0380
0780
0780
1F80
7B80
F380
E380
ENDCHAR
STARTCHAR 027A
ENCODING 634
SWIDTH 375 0
DWIDTH 12 0
BBX 9 22 0 0
BITMAP
0380
0380
0380
0380
0380
0380
0380
0380
0380
0380
0380
0380
0380
0380
0380
0380
0780
0780
1F80
7B80
F380
E380
ENDCHAR
STARTCHAR 027B
ENCODING 635
SWIDTH 406 0
DWIDTH 13 0
BBX 12 22 0 -6
BITMAP
0300
0300
0300
0300
0300
0300
0300
0300
0300
0300
0700
0700
1B00
7B00
F300
E300
0300
0300
0300
0310
01F0
01E0
ENDCHAR
STARTCHAR 027D
ENCODING 637
SWIDTH 375 0
DWIDTH 12 0
BBX 9 22 3 -5
BITMAP
E380
E780
EF00
FC00
F000
F000
E000
E000
E000
E000
E000
E000
E000
E000
E000
E000
E000
E000
E000
F200
7F00
3C00
ENDCHAR
STARTCHAR 027E
ENCODING 638
SWIDTH 375 0
DWIDTH 12 0
BBX 9 16 3 0
BITMAP
1F80
7F80
7000
E000
E000
E000
E000
E000
E000
E000
E000
E000
E000
E000
E000
E000
ENDCHAR
STARTCHAR 0281
ENCODING 641
SWIDTH 531 0
DWIDTH 17 0
BBX 14 16 3 0
BITMAP
E01C
E038
E078
E070
E0E0
E1E0
E3C0
FF80
FFE0
E0F0
E070
E070
E070
E0F0
FFE0
FF80
ENDCHAR
STARTCHAR 0282
ENCODING 642
SWIDTH 468 0
DWIDTH 15 0
BBX 12 22 1 -6
BITMAP
1F80
7FE0
F0E0
E000
E000
F000
7C00
3F80
0FC0
01E0
00F0
0070
C070
F0F0
FFE0
DF80
C000
C000
C000
E400
7C00
7800
ENDCHAR
STARTCHAR 0283
ENCODING 643
SWIDTH 312 0
DWIDTH 10 0
BBX 9 32 0 -7
BITMAP
0380
0F80
0E00
1C00
1C00
1C00
1C00
1C00
1C00
1C00
1C00
1C00
1C00
1C00
1C00
1C00
1C00
1C00
1C00
1C00
1C00
1C00
1C00
1C00
1C00
1C00
1C00
1C00
3C00
F800
F000
8000
ENDCHAR
STARTCHAR 0284
ENCODING 644
SWIDTH 312 0
DWIDTH 10 0
BBX 13 30 -1 -7
BITMAP
01F0
03F8
0700
0E00
0E00
0E00
0E00
0E00
0E00
0E00
0E00
0E00
0E00
0E00
0E00
0E00
0E00
0E00
0E00
0E00
0E00
0E00
7FE0
7FE0
0E00
0E00
1E00
3C00
F800
6000
ENDCHAR
STARTCHAR 0288
ENCODING 648
SWIDTH 343 0
DWIDTH 11 0
BBX 10 27 1 -6
BITMAP
0800
3800
3800
3800
3800
FF80
FF80
3800
3800
3800
3800
3800
3800
3800
3800
3800
3800
3800
3800
3800
3800
3800
3800
3800
3C80
1FC0
0F00
ENDCHAR
STARTCHAR 0289
ENCODING 649
SWIDTH 593 0
DWIDTH 19 0
BBX 17 16 1 0
BITMAP
380E00
380E00
380E00
380E00
380E00
380E00
FFFF80
FFFF80
380E00
380E00
380E00
381E00
381E00
1C3E00
1FEE00
078E00
ENDCHAR
STARTCHAR 028A
ENCODING 650
SWIDTH 593 0
DWIDTH 19 0
BBX 16 16 2 0
BITMAP
FC3F
FC3F
1C38
381C
700E
700E
E007
E007
E007
E007
E007
F00F
701E
3C3C
1FF8
07E0
ENDCHAR
STARTCHAR 028B
ENCODING 651
SWIDTH 593 0
DWIDTH 19 0
BBX 14 16 3 1
BITMAP
E0E0
E0F8
E078
E01C
E01C
E01C
E01C
E01C
E01C
E01C
E01C
E038
F038
70F0
7FE0
1F80
ENDCHAR
STARTCHAR 028C
ENCODING 652
SWIDTH 500 0
DWIDTH 16 0
BBX 15 16 0 1
BITMAP
0180
0380
03C0
07C0
06E0
0EE0
0E60
0C70
1C30
1838
3838
381C
301C
701C
700E
E00E
ENDCHAR
STARTCHAR 028D
ENCODING 653
SWIDTH 750 0
DWIDTH 24 0
BBX 24 16 0 1
BITMAP
0300E0
0700E0
0781E0
0F81F0
0D81F0
0DC3B0
1CC338
1CC338
18E718
38661C
38661C
307E0C
703C0E
703C0E
603C06
E01807
ENDCHAR
STARTCHAR 028E
ENCODING 654
SWIDTH 500 0
DWIDTH 16 0
BBX 15 22 0 1
BITMAP
003C
007C
00F0
00E0
01C0
01C0
0180
0380
03C0
07C0
06E0
06E0
0E60
0C70
1C30
1C38
3838
381C
301C
700C
700E
E00E
ENDCHAR
STARTCHAR 0290
ENCODING 656
SWIDTH 468 0
DWIDTH 15 0
BBX 16 22 1 -6
BITMAP
FFF0
FFF0
0060
00E0
01C0
0380
0380
0700
0E00
1C00
1C00
3800
7000
E000
FFF0
FFF0
0030
0030
0030
0031
003F
001E
ENDCHAR
STARTCHAR 0291
ENCODING 657
SWIDTH 500 0
DWIDTH 16 0
BBX 15 19 1 -4
BITMAP
7FF8
7FF8
0070
00E0
01C0
01C0
0380
0700
0E00
0C38
1CFE
39C6
7386
6306
FFFC
FFF8
0E00
0C00
0C00
ENDCHAR
STARTCHAR 0292
ENCODING 658
SWIDTH 500 0
DWIDTH 16 0
BBX 14 22 1 -6
BITMAP
7FF8
7FF8
0070
00E0
01C0
0380
0700
0E00
1FC0
3FF0
3078
0038
001C
001C
001C
001C
001C
401C
E038
7070
3FE0
0FC0
ENDCHAR
STARTCHAR 0294
ENCODING 660
SWIDTH 468 0
DWIDTH 15 0
BBX 13 23 1 0
BITMAP
1F80
7FE0
F0F0
E078
C038
0038
0038
0038
0070
01F0
07E0
0780
0700
0700
0700
0700
0700
0700
0700
0700
0700
0700
0700
ENDCHAR
STARTCHAR 0295
ENCODING 661
SWIDTH 468 0
DWIDTH 15 0
BBX 13 23 1 0
BITMAP
0FC0
3FF0
7878
F038
E018
E000
E000
E000
7000
7C00
3F00
0F00
0700
0700
0700
0700
0700
0700
0700
0700
0700
0700
0700
ENDCHAR
STARTCHAR 0298
ENCODING 664
SWIDTH 625 0
DWIDTH 20 0
BBX 16 16 2 0
BITMAP
07E0
1FF8
3C3C
700E
6006
E007
C383
C7C3
C7C3
C7C3
E387
6006
700E
3C3C
1FF8
07E0
ENDCHAR
STARTCHAR 029D
ENCODING 669
SWIDTH 375 0
DWIDTH 12 0
BBX 12 29 0 -6
BITMAP
0380
0380
0380
0000
0000
0000
0700
0700
0700
0700
0700
0700
0700
0700
0700
0700
0700
0700
0700
0700
0700
0700
0700
7F00
FFC0
C7F0
C710
7E00
3C00
ENDCHAR
STARTCHAR 02A1
ENCODING 673
SWIDTH 468 0
DWIDTH 15 0
BBX 13 23 1 0
BITMAP
1F80
7FE0
F0F0
E078
C038
0038
0038
0038
0070
01F0
07E0
0780
0700
3FE0
3FE0
0700
0700
0700
0700
0700
0700
0700
0700
ENDCHAR
STARTCHAR 02A2
ENCODING 674
SWIDTH 468 0
DWIDTH 15 0
BBX 13 23 1 0
BITMAP
0FC0
3FF0
7878
F038
E018
E000
E000
E000
7000
7C00
3F00
0F00
0700
3FE0
3FE0
0700
0700
0700
0700
0700
0700
0700
0700
ENDCHAR
STARTCHAR 02BB
ENCODING 699
SWIDTH 1000 0
DWIDTH 32 0
BBX 5 9 26 18
BITMAP
18
30
60
60
C0
F0
F0
F0
F0
ENDCHAR
STARTCHAR 02BC
ENCODING 700
SWIDTH 1000 0
DWIDTH 32 0
BBX 5 9 1 18
BITMAP
78
78
78
78
18
30
30
60
C0
ENDCHAR
STARTCHAR 02C6
ENCODING 710
SWIDTH 500 0
DWIDTH 16 0
BBX 8 4 4 19
BITMAP
3C
3C
66
C3
ENDCHAR
STARTCHAR 02C7
ENCODING 711
SWIDTH 500 0
DWIDTH 16 0
BBX 8 4 4 19
BITMAP
C3
66
3E
3C
ENDCHAR
STARTCHAR 02C8
ENCODING 712
SWIDTH 187 0
DWIDTH 6 0
BBX 2 12 2 11
BITMAP
C0
C0
C0
C0
C0
C0
C0
C0
C0
C0
C0
C0
ENDCHAR
STARTCHAR 02CC
ENCODING 716
SWIDTH 187 0
DWIDTH 6 0
BBX 2 12 2 -4
BITMAP
C0
C0
C0
C0
C0
C0
C0
C0
C0
C0
C0
C0
ENDCHAR
STARTCHAR 02D0
ENCODING 720
SWIDTH 312 0
DWIDTH 10 0
BBX 4 16 3 0
BITMAP
F0
F0
60
40
00
00
00
00
00
00
00
00
40
60
F0
F0
ENDCHAR
STARTCHAR 02D1
ENCODING 721
SWIDTH 312 0
DWIDTH 10 0
BBX 4 4 3 11
BITMAP
F0
F0
60
40
ENDCHAR
STARTCHAR 02D8
ENCODING 728
SWIDTH 500 0
DWIDTH 16 0
BBX 8 4 4 19
BITMAP
81
C3
FF
7E
ENDCHAR
STARTCHAR 02D9
ENCODING 729
SWIDTH 500 0
DWIDTH 16 0
BBX 3 3 6 20
BITMAP
E0
E0
E0
ENDCHAR
STARTCHAR 02DB
ENCODING 731
SWIDTH 500 0
DWIDTH 16 0
BBX 7 7 5 -6
BITMAP
3C
70
70
E0
E0
FE
7C
ENDCHAR
STARTCHAR 02DC
ENCODING 732
SWIDTH 500 0
DWIDTH 16 0
BBX 11 4 3 19
BITMAP
7000
FC60
CFC0
0380
ENDCHAR
STARTCHAR 02DD
ENCODING 733
SWIDTH 500 0
DWIDTH 16 0
BBX 9 4 5 19
BITMAP
7380
6700
E600
CC00
ENDCHAR
STARTCHAR 02DE
ENCODING 734
SWIDTH 500 0
DWIDTH 16 0
BBX 8 8 5 1
BITMAP
F8
F0
30
30
31
33
3E
1C
ENDCHAR
STARTCHAR 02E5
ENCODING 741
SWIDTH 500 0
DWIDTH 16 0
BBX 8 24 1 0
BITMAP
FF
FF
03
03
03
03
03
03
03
03
03
03
03
03
03
03
03
03
03
03
03
03
03
03
ENDCHAR
STARTCHAR 02E6
ENCODING 742
SWIDTH 500 0
DWIDTH 16 0
BBX 8 23 1 0
BITMAP
03
03
03
03
03
FF
FF
03
03
03
03
03
03
03
03
03
03
03
03
03
03
03
03
ENDCHAR
STARTCHAR 02E7
ENCODING 743
SWIDTH 500 0
DWIDTH 16 0
BBX 8 24 1 0
BITMAP
03
03
03
03
03
03
03
03
03
03
03
FF
FF
03
03
03
03
03
03
03
03
03
03
03
ENDCHAR
STARTCHAR 02E8
ENCODING 744
SWIDTH 500 0
DWIDTH 16 0
BBX 8 23 1 1
BITMAP
03
03
03
03
03
03
03
03
03
03
03
03
03
03
03
03
FF
FF
03
03
03
03
03
ENDCHAR
STARTCHAR 02E9
ENCODING 745
SWIDTH 500 0
DWIDTH 16 0
BBX 8 23 1 1
BITMAP
03
03
03
03
03
03
03
03
03
03
03
03
03
03
03
03
03
03
03
03
03
FF
FF
ENDCHAR
STARTCHAR 0300
ENCODING 768
SWIDTH 500 0
DWIDTH 16 0
BBX 4 4 5 19
BITMAP
E0
60
70
30
ENDCHAR
STARTCHAR 0301
ENCODING 769
SWIDTH 500 0
DWIDTH 16 0
BBX 4 4 7 19
BITMAP
70
70
E0
C0
ENDCHAR
STARTCHAR 0302
ENCODING 770
SWIDTH 500 0
DWIDTH 16 0
BBX 8 4 4 19
BITMAP
3C
3C
66
C3
ENDCHAR
STARTCHAR 0303
ENCODING 771
SWIDTH 500 0
DWIDTH 16 0
BBX 11 4 3 19
BITMAP
7000
FC60
CFC0
0380
ENDCHAR
STARTCHAR 0304
ENCODING 772
SWIDTH 500 0
DWIDTH 16 0
BBX 8 2 4 20
BITMAP
FF
FF
ENDCHAR
STARTCHAR 0305
ENCODING 773
SWIDTH 500 0
DWIDTH 16 0
BBX 8 2 4 20
BITMAP
FF
FF
ENDCHAR
STARTCHAR 0306
ENCODING 774
SWIDTH 500 0
DWIDTH 16 0
BBX 8 4 4 19
BITMAP
81
C3
FF
7E
ENDCHAR
STARTCHAR 0308
ENCODING 776
SWIDTH 500 0
DWIDTH 16 0
BBX 10 3 3 19
BITMAP
E1C0
E1C0
E1C0
ENDCHAR
STARTCHAR 030B
ENCODING 779
SWIDTH 500 0
DWIDTH 16 0
BBX 9 4 5 19
BITMAP
7380
6700
E600
CC00
ENDCHAR
STARTCHAR 030C
ENCODING 780
SWIDTH 500 0
DWIDTH 16 0
BBX 8 4 4 19
BITMAP
C3
66
3E
3C
ENDCHAR
STARTCHAR 030F
ENCODING 783
SWIDTH 500 0
DWIDTH 16 0
BBX 9 4 2 19
BITMAP
E700
7300
3380
1980
ENDCHAR
STARTCHAR 0318
ENCODING 792
SWIDTH 500 0
DWIDTH 16 0
BBX 5 8 5 -9
BITMAP
18
18
18
F8
F8
18
18
18
ENDCHAR
STARTCHAR 0319
ENCODING 793
SWIDTH 500 0
DWIDTH 16 0
BBX 5 8 6 -9
BITMAP
C0
C0
C0
F8
F8
C0
C0
C0
ENDCHAR
STARTCHAR 031A
ENCODING 794
SWIDTH 500 0
DWIDTH 16 0
BBX 7 9 2 14
BITMAP
FE
FE
06
06
06
06
06
06
06
ENDCHAR
STARTCHAR 031C
ENCODING 796
SWIDTH 500 0
DWIDTH 16 0
BBX 4 7 6 -9
BITMAP
30
70
C0
C0
C0
E0
70
ENDCHAR
STARTCHAR 031D
ENCODING 797
SWIDTH 500 0
DWIDTH 16 0
BBX 8 5 4 -5
BITMAP
18
18
18
FF
FF
ENDCHAR
STARTCHAR 031E
ENCODING 798
SWIDTH 500 0
DWIDTH 16 0
BBX 8 5 4 -8
BITMAP
FF
FF
18
18
18
ENDCHAR
STARTCHAR 031F
ENCODING 799
SWIDTH 500 0
DWIDTH 16 0
BBX 8 8 4 -9
BITMAP
18
18
18
FF
FF
18
18
18
ENDCHAR
STARTCHAR 0320
ENCODING 800
SWIDTH 500 0
DWIDTH 16 0
BBX 8 2 4 -4
BITMAP
FF
FF
ENDCHAR
STARTCHAR 0324
ENCODING 804
SWIDTH 500 0
DWIDTH 16 0
BBX 10 3 3 -4
BITMAP
E1C0
E1C0
E1C0
ENDCHAR
STARTCHAR 0325
ENCODING 805
SWIDTH 500 0
DWIDTH 16 0
BBX 6 5 5 -6
BITMAP
78
84
84
84
78
ENDCHAR
STARTCHAR 0327
ENCODING 807
SWIDTH 500 0
DWIDTH 16 0
BBX 6 7 5 -7
BITMAP
30
60
7C
0C
0C
FC
F0
ENDCHAR
STARTCHAR 0329
ENCODING 809
SWIDTH 500 0
DWIDTH 16 0
BBX 2 8 7 -8
BITMAP
C0
C0
C0
C0
C0
C0
C0
C0
ENDCHAR
STARTCHAR 032A
ENCODING 810
SWIDTH 500 0
DWIDTH 16 0
BBX 8 5 4 -8
BITMAP
FF
FF
C3
C3
C3
ENDCHAR
STARTCHAR 032C
ENCODING 812
SWIDTH 500 0
DWIDTH 16 0
BBX 8 5 4 -6
BITMAP
C3
66
7E
3C
18
ENDCHAR
STARTCHAR 032F
ENCODING 815
SWIDTH 500 0
DWIDTH 16 0
BBX 8 3 4 -6
BITMAP
7E
FF
C3
ENDCHAR
STARTCHAR 0330
ENCODING 816
SWIDTH 500 0
DWIDTH 16 0
BBX 11 4 3 -5
BITMAP
7000
FCE0
CFC0
0380
ENDCHAR
STARTCHAR 0332
ENCODING 818
SWIDTH 500 0
DWIDTH 16 0
BBX 16 2 0 -4
BITMAP
FFFF
FFFF
ENDCHAR
STARTCHAR 0334
ENCODING 820
SWIDTH 500 0
DWIDTH 16 0
BBX 10 3 3 9
BITMAP
7840
FFC0
C780
ENDCHAR
STARTCHAR 0336
ENCODING 822
SWIDTH 968 0
DWIDTH 31 0
BBX 27 2 2 11
BITMAP
FFFFFFE0
FFFFFFE0
ENDCHAR
STARTCHAR 0339
ENCODING 825
SWIDTH 500 0
DWIDTH 16 0
BBX 4 7 6 -9
BITMAP
C0
E0
30
30
30
70
E0
ENDCHAR
STARTCHAR 033A
ENCODING 826
SWIDTH 500 0
DWIDTH 16 0
BBX 8 5 4 -6
BITMAP
C3
C3
C3
FF
FF
ENDCHAR
STARTCHAR 033B
ENCODING 827
SWIDTH 500 0
DWIDTH 16 0
BBX 8 5 4 -7
BITMAP
FF
FF
C3
FF
FF
ENDCHAR
STARTCHAR 033C
ENCODING 828
SWIDTH 500 0
DWIDTH 16 0
BBX 8 3 4 -5
BITMAP
FF
FF
81
ENDCHAR
STARTCHAR 033D
ENCODING 829
SWIDTH 500 0
DWIDTH 16 0
BBX 6 7 5 18
BITMAP
84
CC
78
30
78
CC
84
ENDCHAR
STARTCHAR 0361
ENCODING 865
SWIDTH 0 0
DWIDTH 0 0
BBX 16 4 -8 25
BITMAP
0FF0
7FFE
F00F
8001
ENDCHAR
STARTCHAR 0391
ENCODING 913
SWIDTH 1000 0
DWIDTH 32 0
BBX 20 22 6 2
BITMAP
00F000
01F800
01F800
019800
039C00
039C00
070C00
070E00
070E00
0E0700
0E0700
0E0700
1C0380
1FFF80
3FFFC0
3801C0
3801C0
7000E0
7000E0
F000F0
E00070
E00070
ENDCHAR
STARTCHAR 0392
ENCODING 914
SWIDTH 1000 0
DWIDTH 32 0
BBX 18 22 8 2
BITMAP
FFF800
FFFE00
FFFF00
E00780
E00380
E00380
E00380
E00300
E00F00
FFFC00
FFFE00
E00700
E00380
E001C0
E001C0
E001C0
E001C0
E003C0
E00780
FFFF80
FFFF00
FFF800
ENDCHAR
STARTCHAR 0393
ENCODING 915
SWIDTH 1000 0
DWIDTH 32 0
BBX 17 22 8 2
BITMAP
FFFF80
FFFF80
FFFF80
E00000
E00000
E00000
E00000
E00000
E00000
E00000
E00000
E00000
E00000
E00000
E00000
E00000
E00000
E00000
E00000
E00000
E00000
E00000
ENDCHAR
STARTCHAR 0394
ENCODING 916
SWIDTH 1000 0
DWIDTH 32 0
BBX 22 22 5 2
BITMAP
007800
007800
00FC00
00FC00
01CE00
01CE00
038700
038700
030300
070380
070380
0E01C0
0E01C0
1C00E0
1C00E0
380070
380070
300030
700038
7FFFF8
FFFFFC
FFFFFC
ENDCHAR
STARTCHAR 0395
ENCODING 917
SWIDTH 1000 0
DWIDTH 32 0
BBX 17 22 8 2
BITMAP
FFFF80
FFFF80
FFFF80
E00000
E00000
E00000
E00000
E00000
E00000
FFFF00
FFFF00
FFFF00
E00000
E00000
E00000
E00000
E00000
E00000
E00000
FFFF80
FFFF80
FFFF80
ENDCHAR
STARTCHAR 0396
ENCODING 918
SWIDTH 1000 0
DWIDTH 32 0
BBX 18 22 7 2
BITMAP
7FFF80
7FFF80
7FFF80
000780
000700
000E00
001C00
003800
007000
00F000
01E000
03C000
078000
070000
0E0000
1C0000
380000
780000
F00000
FFFFC0
FFFFC0
FFFFC0
ENDCHAR
STARTCHAR 0397
ENCODING 919
SWIDTH 1000 0
DWIDTH 32 0
BBX 18 22 7 2
BITMAP
E001C0
E001C0
E001C0
E001C0
E001C0
E001C0
E001C0
E001C0
E001C0
FFFFC0
FFFFC0
FFFFC0
E001C0
E001C0
E001C0
E001C0
E001C0
E001C0
E001C0
E001C0
E001C0
E001C0
ENDCHAR
STARTCHAR 0398
ENCODING 920
SWIDTH 1000 0
DWIDTH 32 0
BBX 20 24 6 0
BITMAP
01F800
07FE00
0F0F00
1C0380
3801C0
7801C0
7000E0
7000E0
E00070
E00070
EFFF70
EFFF70
EFFF70
E00070
E00070
E00070
7000E0
7000E0
7801E0
3801C0
1C0380
0F0F00
07FE00
01F800
ENDCHAR
STARTCHAR 0399
ENCODING 921
SWIDTH 1000 0
DWIDTH 32 0
BBX 3 22 14 2
BITMAP
E0
E0
E0
E0
E0
E0
E0
E0
E0
E0
E0
E0
E0
E0
E0
E0
E0
E0
E0
E0
E0
E0
ENDCHAR
STARTCHAR 039A
ENCODING 922
SWIDTH 1000 0
DWIDTH 32 0
BBX 20 22 7 2
BITMAP
E003C0
E00700
E00E00
E01C00
E03800
E07000
E1E000
E3C000
E78000
EFC000
FFC000
FCE000
F87000
F07800
E03C00
E01E00
E00E00
E00F00
E00780
E003C0
E001E0
E000F0
ENDCHAR
STARTCHAR 039B
ENCODING 923
SWIDTH 1000 0
DWIDTH 32 0
BBX 20 22 6 2
BITMAP
00F000
00F000
01F800
01F800
019800
039C00
039C00
070E00
070E00
070E00
0E0700
0E0700
1C0380
1C0380
1C0380
3801C0
3801C0
7000E0
7000E0
7000E0
E00070
E00070
ENDCHAR
STARTCHAR 039C
ENCODING 924
SWIDTH 1000 0
DWIDTH 32 0
BBX 22 22 5 2
BITMAP
F8007C
F8007C
F8007C
FC00FC
EC00DC
EC00DC
EE01DC
E6019C
E6019C
E7039C
E3031C
E3031C
E3871C
E1861C
E18E1C
E1CE1C
E0CC1C
E0DC1C
E0FC1C
E0781C
E0781C
E0781C
ENDCHAR
STARTCHAR 039D
ENCODING 925
SWIDTH 1000 0
DWIDTH 32 0
BBX 18 22 7 2
BITMAP
F801C0
F801C0
FC01C0
EC01C0
EE01C0
E701C0
E701C0
E381C0
E181C0
E1C1C0
E0C1C0
E0E1C0
E071C0
E031C0
E039C0
E019C0
E01DC0
E00FC0
E00FC0
E007C0
E003C0
E003C0
ENDCHAR
STARTCHAR 039E
ENCODING 926
SWIDTH 1000 0
DWIDTH 32 0
BBX 18 22 7 2
BITMAP
FFFFC0
FFFFC0
FFFFC0
000000
000000
000000
000000
000000
000000
3FFF00
3FFF00
3FFF00
000000
000000
000000
000000
000000
000000
000000
FFFFC0
FFFFC0
FFFFC0
ENDCHAR
STARTCHAR 039F
ENCODING 927
SWIDTH 1000 0
DWIDTH 32 0
BBX 20 24 6 0
BITMAP
01F800
07FE00
0F0F00
1C0380
3801C0
7801C0
7000E0
7000E0
E00070
E00070
E00070
E00070
E00070
E00070
E00070
E00070
7000E0
7000E0
7801E0
3801C0
1C0380
0F0F00
07FE00
01F800
ENDCHAR
STARTCHAR 03A0
ENCODING 928
SWIDTH 1000 0
DWIDTH 32 0
BBX 18 23 7 1
BITMAP
FFFFC0
FFFFC0
FFFFC0
E001C0
E001C0
E001C0
E001C0
E001C0
E001C0
E001C0
E001C0
E001C0
E001C0
E001C0
E001C0
E001C0
E001C0
E001C0
E001C0
E001C0
E001C0
E001C0
E001C0
ENDCHAR
STARTCHAR 03A1
ENCODING 929
SWIDTH 1000 0
DWIDTH 32 0
BBX 17 23 8 1
BITMAP
FFF800
FFFE00
FFFF00
E00F00
E00780
E00380
E00380
E00380
E00780
E00F00
FFFF00
FFFE00
FFF800
E00000
E00000
E00000
E00000
E00000
E00000
E00000
E00000
E00000
E00000
ENDCHAR
STARTCHAR 03A3
ENCODING 931
SWIDTH 1000 0
DWIDTH 32 0
BBX 20 22 6 2
BITMAP
FFFFE0
FFFFE0
FFFFE0
780000
3C0000
1E0000
070000
038000
01E000
00F000
003800
007000
00E000
03C000
078000
0F0000
1E0000
380000
700000
FFFFF0
FFFFF0
FFFFF0
ENDCHAR
STARTCHAR 03A4
ENCODING 932
SWIDTH 1000 0
DWIDTH 32 0
BBX 19 22 7 2
BITMAP
FFFFE0
FFFFE0
FFFFE0
00E000
00E000
00E000
00E000
00E000
00E000
00E000
00E000
00E000
00E000
00E000
00E000
00E000
00E000
00E000
00E000
00E000
00E000
00E000
ENDCHAR
STARTCHAR 03A5
ENCODING 933
SWIDTH 1000 0
DWIDTH 32 0
BBX 21 23 6 1
BITMAP
F00078
7800F0
3800E0
3C01E0
1C03C0
0E0380
0F0780
070700
038E00
03DE00
01DC00
00F800
00F800
007000
007000
007000
007000
007000
007000
007000
007000
007000
007000
ENDCHAR
STARTCHAR 03A6
ENCODING 934
SWIDTH 1000 0
DWIDTH 32 0
BBX 23 22 5 2
BITMAP
003800
003800
003800
00FE00
0FFFE0
1FFFF0
3C3878
70383C
F0381C
E0380E
E0380E
E0380E
E0380E
E0380E
70381C
78383C
3F39F8
0FFFE0
03FF80
003800
003800
003800
ENDCHAR
STARTCHAR 03A7
ENCODING 935
SWIDTH 1000 0
DWIDTH 32 0
BBX 22 22 5 2
BITMAP
3800F0
1C00E0
1E01E0
0F03C0
070380
038700
03CF00
01CE00
00FC00
007800
007800
00F800
00FC00
01CE00
03CF00
078780
0F03C0
0E01C0
1E01E0
3C00F0
780078
F0003C
ENDCHAR
STARTCHAR 03A8
ENCODING 936
SWIDTH 1000 0
DWIDTH 32 0
BBX 18 22 7 2
BITMAP
E0E1C0
E0E1C0
E0E1C0
E0E1C0
E0E1C0
E0E1C0
E0E1C0
E0E1C0
E0E1C0
E0E1C0
E0E1C0
E0E1C0
70E380
78E780
3FFF00
1FFE00
07F800
00E000
00E000
00E000
00E000
00E000
ENDCHAR
STARTCHAR 03A9
ENCODING 937
SWIDTH 1000 0
DWIDTH 32 0
BBX 21 22 5 2
BITMAP
01FC00
07FF00
1F07C0
3C01E0
7800F0
700070
F00078
E00038
E00038
E00038
E00038
E00038
700070
700070
3800E0
1C01C0
0F0780
038E00
038E00
FF8FF8
FF8FF8
FF8FF8
ENDCHAR
STARTCHAR 03B1
ENCODING 945
SWIDTH 1000 0
DWIDTH 32 0
BBX 20 17 6 0
BITMAP
01E0E0
07F8E0
0E39C0
1C39C0
381B80
381F00
701F00
701E00
E01E00
E01C00
E03C00
E07C70
E0EC60
F1EEE0
7FCFE0
7F07C0
1E0380
ENDCHAR
STARTCHAR 03B2
ENCODING 946
SWIDTH 1000 0
DWIDTH 32 0
BBX 18 27 6 -4
BITMAP
003E00
00FF00
01C380
0181C0
0301C0
0701C0
0601C0
0E01C0
0C0380
0C0780
1DFF00
18FC00
180E00
180700
380700
380380
300380
300380
700380
780380
7C0700
670F00
63FE00
60F800
600000
E00000
E00000
ENDCHAR
STARTCHAR 03B3
ENCODING 947
SWIDTH 1000 0
DWIDTH 32 0
BBX 18 20 7 -2
BITMAP
1E0080
7F01C0
FF83C0
E38780
01C700
01CE00
00DC00
00F800
00F000
00E000
00E000
00C000
01C000
03C000
038000
078000
078000
078000
070000
060000
ENDCHAR
STARTCHAR 03B4
ENCODING 948
SWIDTH 1000 0
DWIDTH 32 0
BBX 16 24 8 0
BITMAP
03E0
07F8
0E3E
0E0F
0E07
0702
0380
01C0
00E0
07F0
1C38
3838
301C
701C
E01C
E01C
E01C
E03C
E038
E038
7070
70E0
3FC0
1F80
ENDCHAR
STARTCHAR 03B5
ENCODING 949
SWIDTH 1000 0
DWIDTH 32 0
BBX 14 17 9 0
BITMAP
0FE0
3FF8
783C
7008
7000
7000
3FC0
1FE0
7BC0
7000
E000
E010
E018
E038
70F0
7FE0
1F80
ENDCHAR
STARTCHAR 03B6
ENCODING 950
SWIDTH 1000 0
DWIDTH 32 0
BBX 16 27 9 -2
BITMAP
0E07
0C1F
187E
18FC
1FF0
0F80
0700
0E00
0C00
1800
3800
3000
7000
6000
6000
C000
C000
C000
FE00
7FC0
03E0
0070
0070
0070
38F0
3FE0
0F80
ENDCHAR
STARTCHAR 03B7
ENCODING 951
SWIDTH 1000 0
DWIDTH 32 0
BBX 18 20 6 -3
BITMAP
0E0F00
3F3F80
7161C0
E1C1C0
2181C0
0181C0
0381C0
030380
030380
070380
060380
060300
0E0700
0C0700
1C0700
1C0700
000E00
000E00
000E00
000E00
ENDCHAR
STARTCHAR 03B8
ENCODING 952
SWIDTH 1000 0
DWIDTH 32 0
BBX 16 24 8 0
BITMAP
00F0
03FC
071C
0C0E
1C06
1807
3007
3007
7007
6007
7FFF
FFFF
E007
E00E
E00E
E00E
E00C
E01C
E01C
7038
7070
38E0
3FC0
0F80
ENDCHAR
STARTCHAR 03B9
ENCODING 953
SWIDTH 1000 0
DWIDTH 32 0
BBX 11 17 10 0
BITMAP
0700
0E00
0E00
1C00
1C00
3800
3800
7800
7000
7000
E040
E0E0
E0E0
E1C0
F380
7F00
3E00
ENDCHAR
STARTCHAR 03BA
ENCODING 954
SWIDTH 1000 0
DWIDTH 32 0
BBX 16 17 8 1
BITMAP
0E03
0C0F
1C1F
1C7C
1DF0
1BC0
3F00
3F00
3B80
3180
71C0
71C3
61C3
E0C7
E0CE
E0FC
0078
ENDCHAR
STARTCHAR 03BB
ENCODING 955
SWIDTH 1000 0
DWIDTH 32 0
BBX 17 22 7 2
BITMAP
03C000
1FF000
3C7000
183800
003800
003800
003800
003800
007800
007800
00F800
01D800
039800
039800
071C00
0E1C00
1E0C00
1C0E00
380E00
700700
F00700
E00380
ENDCHAR
STARTCHAR 03BC
ENCODING 956
SWIDTH 1000 0
DWIDTH 32 0
BBX 21 20 6 -4
BITMAP
070180
060380
0E0380
0E0380
0E0300
0C0300
1C0700
1C0700
1C0600
1C0600
3C0E00
3C0E18
3C1E38
363E38
77F7F0
73E3E0
71C1C0
600000
E00000
E00000
ENDCHAR
STARTCHAR 03BD
ENCODING 957
SWIDTH 1000 0
DWIDTH 32 0
BBX 15 17 9 1
BITMAP
2000
E00E
700E
700E
780E
380C
381C
381C
3838
3838
3870
30E0
31C0
7780
7F00
7C00
C000
ENDCHAR
STARTCHAR 03BE
ENCODING 958
SWIDTH 1000 0
DWIDTH 32 0
BBX 15 28 8 -3
BITMAP
0200
0F7E
03FC
0380
0F00
0E00
1C00
1C00
1C00
0E00
0FF8
03FC
0F78
3C00
7000
E000
E000
E000
F000
7C00
3FE0
07F8
007C
001C
001C
303C
3FF8
0FE0
ENDCHAR
STARTCHAR 03BF
ENCODING 959
SWIDTH 1000 0
DWIDTH 32 0
BBX 14 17 9 0
BITMAP
03E0
0FF8
1C38
383C
701C
701C
701C
E01C
E01C
E01C
E038
E038
E038
7070
70E0
3FC0
1F80
ENDCHAR
STARTCHAR 03C0
ENCODING 960
SWIDTH 1000 0
DWIDTH 32 0
BBX 18 18 8 1
BITMAP
000180
3FFFC0
FFFF00
EE3800
8C3000
0C3000
1C7000
186000
186000
386000
304000
70C080
70C1C0
60C380
E0C780
E0FF00
00FE00
007800
ENDCHAR
STARTCHAR 03C1
ENCODING 961
SWIDTH 1000 0
DWIDTH 32 0
BBX 16 20 7 -4
BITMAP
00F8
03FC
070E
0E0E
1C07
1C07
3807
3807
3807
3807
780E
780E
7C1C
6E3C
67F8
63E0
E000
E000
E000
E000
ENDCHAR
STARTCHAR 03C2
ENCODING 962
SWIDTH 593 0
DWIDTH 19 0
BBX 15 23 2 -6
BITMAP
07C0
1FF0
3878
301C
601C
600E
600E
6000
6000
7000
3800
1C00
1E00
0780
03C0
01C0
00E0
0060
0060
4060
E0C0
FFC0
3F00
ENDCHAR
STARTCHAR 03C3
ENCODING 963
SWIDTH 1000 0
DWIDTH 32 0
BBX 17 17 9 0
BITMAP
03FF80
0FFF00
1C7800
383800
381C00
701C00
701C00
E01C00
E01C00
E01C00
E03800
E03800
E03800
707000
70E000
3FC000
0F8000
ENDCHAR
STARTCHAR 03C4
ENCODING 964
SWIDTH 1000 0
DWIDTH 32 0
BBX 17 18 8 1
BITMAP
000100
3FFF80
FFFF00
7D8000
438000
038000
030000
070000
070000
070000
0E0000
0E0000
0E0800
0E1C00
0E1C00
0E3800
07F000
03C000
ENDCHAR
STARTCHAR 03C5
ENCODING 965
SWIDTH 1000 0
DWIDTH 32 0
BBX 17 18 7 0
BITMAP
000200
1E0E00
7F0700
F30700
C30780
070380
060380
0E0380
0E0380
1C0380
1C0380
380700
380700
380E00
381C00
1C3800
1FF000
07C000
ENDCHAR
STARTCHAR 03C6
ENCODING 966
SWIDTH 1000 0
DWIDTH 32 0
BBX 18 26 7 -3
BITMAP
001800
001800
003800
003800
003000
003000
07FC00
1FFF00
3C6780
786380
70E1C0
E0C1C0
E0C1C0
E0C1C0
E1C1C0
E181C0
E18380
718780
7B8F00
3FFE00
0FF800
070000
070000
070000
060000
0E0000
ENDCHAR
STARTCHAR 03C7
ENCODING 967
SWIDTH 1000 0
DWIDTH 32 0
BBX 17 20 7 -3
BITMAP
0E0380
3F0700
738E00
238E00
019C00
01B800
01F800
01F000
00E000
01C000
01C000
03C000
07C000
0EE000
0E6000
1C6100
386380
787380
703F00
E01C00
ENDCHAR
STARTCHAR 03C8
ENCODING 968
SWIDTH 1000 0
DWIDTH 32 0
BBX 19 26 6 -2
BITMAP
000C00
000C00
001C00
001C00
001800
023800
0E3880
1F31C0
3C31C0
7871C0
7070E0
E060E0
E060E0
E0E0E0
E0E0E0
E0C1E0
F0C1C0
71C3C0
3DCF80
1FFE00
07F800
038000
038000
030000
070000
070000
ENDCHAR
STARTCHAR 03C9
ENCODING 969
SWIDTH 1000 0
DWIDTH 32 0
BBX 21 17 5 1
BITMAP
030060
0780E0
0F0070
1E0070
3C1830
381838
703838
703838
E03838
E03038
E07038
E07078
E0F070
F1F8F0
7F9FE0
3F0FC0
1E0780
ENDCHAR
STARTCHAR 0401
ENCODING 1025
SWIDTH 1000 0
DWIDTH 32 0
BBX 17 26 8 2
BITMAP
1C1C00
1C1C00
1C1C00
000000
FFFF80
FFFF80
FFFF80
E00000
E00000
E00000
E00000
E00000
E00000
FFFF00
FFFF00
FFFF00
E00000
E00000
E00000
E00000
E00000
E00000
E00000
FFFF80
FFFF80
FFFF80
ENDCHAR
STARTCHAR 0410
ENCODING 1040
SWIDTH 1000 0
DWIDTH 32 0
BBX 20 22 6 2
BITMAP
00F000
01F800
01F800
019800
039C00
039C00
070C00
070E00
070E00
0E0700
0E0700
0E0700
1C0380
1FFF80
3FFFC0
3801C0
3801C0
7000E0
7000E0
F000F0
E00070
E00070
ENDCHAR
STARTCHAR 0411
ENCODING 1041
SWIDTH 1000 0
DWIDTH 32 0
BBX 18 22 8 2
BITMAP
FFFF80
FFFF80
FFFF80
E00000
E00000
E00000
E00000
E00000
E00000
FFF800
FFFE00
FFFF80
E00780
E003C0
E001C0
E001C0
E001C0
E003C0
E00780
FFFF80
FFFF00
FFF800
ENDCHAR
STARTCHAR 0412
ENCODING 1042
SWIDTH 1000 0
DWIDTH 32 0
BBX 18 22 8 2
BITMAP
FFF800
FFFE00
FFFF00
E00780
E00380
E00380
E00380
E00300
E00F00
FFFC00
FFFE00
E00700
E00380
E001C0
E001C0
E001C0
E001C0
E003C0
E00780
FFFF80
FFFF00
FFF800
ENDCHAR
STARTCHAR 0413
ENCODING 1043
SWIDTH 1000 0
DWIDTH 32 0
BBX 17 22 8 2
BITMAP
FFFF80
FFFF80
FFFF80
E00000
E00000
E00000
E00000
E00000
E00000
E00000
E00000
E00000
E00000
E00000
E00000
E00000
E00000
E00000
E00000
E00000
E00000
E00000
ENDCHAR
STARTCHAR 0414
ENCODING 1044
SWIDTH 1000 0
DWIDTH 32 0
BBX 22 26 5 -2
BITMAP
03FFE0
03FFE0
03FFE0
0380E0
0380E0
0380E0
0380E0
0380E0
0300E0
0300E0
0700E0
0700E0
0700E0
0700E0
0E00E0
0E00E0
0E00E0
1C00E0
1C00E0
FFFFFC
FFFFFC
FFFFFC
E0001C
E0001C
E0001C
E0001C
ENDCHAR
STARTCHAR 0415
ENCODING 1045
SWIDTH 1000 0
DWIDTH 32 0
BBX 17 22 8 2
BITMAP
FFFF80
FFFF80
FFFF80
E00000
E00000
E00000
E00000
E00000
E00000
FFFF00
FFFF00
FFFF00
E00000
E00000
E00000
E00000
E00000
E00000
E00000
FFFF80
FFFF80
FFFF80
ENDCHAR
STARTCHAR 0416
ENCODING 1046
SWIDTH 1000 0
DWIDTH 32 0
BBX 25 22 4 3
BITMAP
701C0700
701C0700
301C0600
381C0E00
381C0E00
181C1C00
1C1C1C00
0E1C3800
07FFF000
03FFE000
03FFE000
039CE000
071C7000
0E1C3800
0E1C3800
1C1C1C00
1C1C1C00
381C0E00
781C0F00
701C0700
E01C0380
E01C0380
ENDCHAR
STARTCHAR 0417
ENCODING 1047
SWIDTH 1000 0
DWIDTH 32 0
BBX 19 24 6 0
BITMAP
01F800
0FFF00
1E0780
380380
3801C0
0001C0
0001C0
0003C0
000780
00FF00
00FC00
00FF00
000380
0001C0
0000E0
0000E0
0000E0
F000E0
7000E0
7001C0
3803C0
1E0780
0FFF00
03FC00
ENDCHAR
STARTCHAR 0418
ENCODING 1048
SWIDTH 1000 0
DWIDTH 32 0
BBX 18 22 7 2
BITMAP
E001C0
E001C0
E001C0
E003C0
E003C0
E007C0
E00FC0
E01DC0
E039C0
E071C0
E0E1C0
E1C1C0
E381C0
E701C0
EE01C0
FE01C0
FC01C0
F801C0
F001C0
E001C0
E001C0
E001C0
ENDCHAR
STARTCHAR 0419
ENCODING 1049
SWIDTH 1000 0
DWIDTH 32 0
BBX 18 26 7 1
BITMAP
0C0C00
0E1C00
07F800
03F000
E001C0
E001C0
E001C0
E003C0
E003C0
E007C0
E00FC0
E01DC0
E039C0
E071C0
E0E1C0
E1C1C0
E381C0
E701C0
EE01C0
FE01C0
FC01C0
F801C0
F001C0
E001C0
E001C0
E001C0
ENDCHAR
STARTCHAR 041A
ENCODING 1050
SWIDTH 1000 0
DWIDTH 32 0
BBX 19 22 7 3
BITMAP
E00180
E00380
E00380
E00380
E00700
E00F00
E01E00
E03C00
E0F800
FFF000
FFE000
F87000
E03800
E03800
E01C00
E00E00
E00F00
E00700
E00380
E003C0
E001E0
E000E0
ENDCHAR
STARTCHAR 041B
ENCODING 1051
SWIDTH 1000 0
DWIDTH 32 0
BBX 22 24 3 0
BITMAP
007FFC
007FFC
007FFC
00701C
00701C
00701C
00701C
00701C
00701C
00701C
00701C
00701C
00701C
00701C
00E01C
00E01C
00E01C
60E01C
E0E01C
61C01C
73C01C
7F801C
3F801C
1E0000
ENDCHAR
STARTCHAR 041C
ENCODING 1052
SWIDTH 1000 0
DWIDTH 32 0
BBX 22 22 5 2
BITMAP
F8007C
F8007C
F8007C
FC00FC
EC00DC
EC00DC
EE01DC
E6019C
E6019C
E7039C
E3031C
E3031C
E3871C
E1861C
E18E1C
E1CE1C
E0CC1C
E0DC1C
E0FC1C
E0781C
E0781C
E0781C
ENDCHAR
STARTCHAR 041D
ENCODING 1053
SWIDTH 1000 0
DWIDTH 32 0
BBX 18 22 7 2
BITMAP
E001C0
E001C0
E001C0
E001C0
E001C0
E001C0
E001C0
E001C0
E001C0
FFFFC0
FFFFC0
FFFFC0
E001C0
E001C0
E001C0
E001C0
E001C0
E001C0
E001C0
E001C0
E001C0
E001C0
ENDCHAR
STARTCHAR 041E
ENCODING 1054
SWIDTH 1000 0
DWIDTH 32 0
BBX 20 24 6 0
BITMAP
01F800
07FE00
0F0F00
1C0380
3801C0
7801C0
7000E0
7000E0
E00070
E00070
E00070
E00070
E00070
E00070
E00070
E00070
7000E0
7000E0
7801E0
3801C0
1C0380
0F0F00
07FE00
01F800
ENDCHAR
STARTCHAR 041F
ENCODING 1055
SWIDTH 1000 0
DWIDTH 32 0
BBX 18 23 7 1
BITMAP
FFFFC0
FFFFC0
FFFFC0
E001C0
E001C0
E001C0
E001C0
E001C0
E001C0
E001C0
E001C0
E001C0
E001C0
E001C0
E001C0
E001C0
E001C0
E001C0
E001C0
E001C0
E001C0
E001C0
E001C0
ENDCHAR
STARTCHAR 0420
ENCODING 1056
SWIDTH 1000 0
DWIDTH 32 0
BBX 17 23 8 1
BITMAP
FFF800
FFFE00
FFFF00
E00F00
E00780
E00380
E00380
E00380
E00780
E00F00
FFFF00
FFFE00
FFF800
E00000
E00000
E00000
E00000
E00000
E00000
E00000
E00000
E00000
E00000
ENDCHAR
STARTCHAR 0421
ENCODING 1057
SWIDTH 1000 0
DWIDTH 32 0
BBX 21 24 5 0
BITMAP
00FC00
07FF80
0FFFC0
1F03E0
3C00F0
380070
700078
700000
E00000
E00000
E00000
E00000
E00000
E00000
E00000
E00038
700038
700070
7800F0
3C01E0
1F03E0
0FFFC0
07FF00
01FC00
ENDCHAR
STARTCHAR 0422
ENCODING 1058
SWIDTH 1000 0
DWIDTH 32 0
BBX 19 22 7 2
BITMAP
FFFFE0
FFFFE0
FFFFE0
00E000
00E000
00E000
00E000
00E000
00E000
00E000
00E000
00E000
00E000
00E000
00E000
00E000
00E000
00E000
00E000
00E000
00E000
00E000
ENDCHAR
STARTCHAR 0423
ENCODING 1059
SWIDTH 1000 0
DWIDTH 32 0
BBX 19 23 7 1
BITMAP
F000E0
7001E0
7801C0
3801C0
1C0380
1C0380
0E0700
0E0700
070700
070E00
038E00
039C00
01DC00
01D800
00F800
00F800
007000
007000
00E000
01E000
7FC000
7F8000
7C0000
ENDCHAR
STARTCHAR 0424
ENCODING 1060
SWIDTH 1000 0
DWIDTH 32 0
BBX 23 22 5 2
BITMAP
003800
003800
003800
00FE00
0FFFE0
1FFFF0
3C3878
78383C
F0381C
E0380E
E0380E
E0380E
E0380E
E0381E
70381C
38383C
1F39F8
0FFFE0
03FF80
003800
003800
003800
ENDCHAR
STARTCHAR 0425
ENCODING 1061
SWIDTH 1000 0
DWIDTH 32 0
BBX 22 22 5 2
BITMAP
3800F0
1C00E0
1E01E0
0F03C0
070380
038700
03CF00
01CE00
00FC00
007800
007800
00F800
00FC00
01CE00
03CF00
078780
0F03C0
0E01C0
1E01E0
3C00F0
780078
F0003C
ENDCHAR
STARTCHAR 0426
ENCODING 1062
SWIDTH 1000 0
DWIDTH 32 0
BBX 21 27 7 -2
BITMAP
E00380
E00380
E00380
E00380
E00380
E00380
E00380
E00380
E00380
E00380
E00380
E00380
E00380
E00380
E00380
E00380
E00380
E00380
E00380
E00380
FFFFF8
FFFFF8
FFFFF8
000038
000038
000038
000038
ENDCHAR
STARTCHAR 0427
ENCODING 1063
SWIDTH 1000 0
DWIDTH 32 0
BBX 16 22 8 2
BITMAP
E007
E007
E007
E007
E007
E007
E007
E007
E007
E007
E00F
F83F
7FFF
3FF7
1FC7
0007
0007
0007
0007
0007
0007
0007
ENDCHAR
STARTCHAR 0428
ENCODING 1064
SWIDTH 1000 0
DWIDTH 32 0
BBX 22 23 5 2
BITMAP
E0381C
E0381C
E0381C
E0381C
E0381C
E0381C
E0381C
E0381C
E0381C
E0381C
E0381C
E0381C
E0381C
E0381C
E0381C
E0381C
E0381C
E0381C
E0381C
E0381C
FFFFFC
FFFFFC
FFFFFC
ENDCHAR
STARTCHAR 0429
ENCODING 1065
SWIDTH 1000 0
DWIDTH 32 0
BBX 25 27 4 -2
BITMAP
E0380E00
E0380E00
E0380E00
E0380E00
E0380E00
E0380E00
E0380E00
E0380E00
E0380E00
E0380E00
E0380E00
E0380E00
E0380E00
E0380E00
E0380E00
E0380E00
E0380E00
E0380E00
E0380E00
E0380E00
FFFFFF80
FFFFFF80
FFFFFF80
00000380
00000380
00000380
00000380
ENDCHAR
STARTCHAR 042A
ENCODING 1066
SWIDTH 1000 0
DWIDTH 32 0
BBX 23 22 4 2
BITMAP
FF8000
FF8000
FF8000
038000
038000
038000
038000
038000
038000
03FFC0
03FFF8
03FFFC
03803C
03801E
03800E
03800E
03800E
03801E
03803C
03FFF8
03FFF0
03FFC0
ENDCHAR
STARTCHAR 042B
ENCODING 1067
SWIDTH 1000 0
DWIDTH 32 0
BBX 20 22 6 3
BITMAP
E00070
E00070
E00070
E00070
E00070
E00070
E00070
E00070
E00070
FFC070
FFF870
FFFC70
E03C70
E01E70
E00E70
E00E70
E00E70
E01E70
E03C70
FFFC70
FFF070
FFC070
ENDCHAR
STARTCHAR 042C
ENCODING 1068
SWIDTH 1000 0
DWIDTH 32 0
BBX 18 22 8 3
BITMAP
E00000
E00000
E00000
E00000
E00000
E00000
E00000
E00000
E00000
FFF800
FFFE00
FFFF80
E00780
E003C0
E001C0
E001C0
E001C0
E003C0
E00780
FFFF80
FFFF00
FFF800
ENDCHAR
STARTCHAR 042D
ENCODING 1069
SWIDTH 1000 0
DWIDTH 32 0
BBX 21 24 6 0
BITMAP
01F800
0FFF00
1FFF80
3E07C0
7801E0
F000E0
0000F0
000070
000078
0F8038
1FFE38
1FFE38
007E38
000038
000038
000038
E00070
F00070
7000F0
3801E0
3E07C0
1FFF80
07FF00
01FC00
ENDCHAR
STARTCHAR 042E
ENCODING 1070
SWIDTH 1000 0
DWIDTH 32 0
BBX 24 24 5 0
BITMAP
E00FC0
E03FF0
E07FF8
E0F87C
E0E01C
E1E00E
E1C00E
E1C00E
E38007
FF8007
FF8007
FF8007
E38007
E38007
E18007
E18007
E1800E
E1C00E
E0C01E
E0E01C
E0703C
E03878
E01FF0
000FC0
ENDCHAR
STARTCHAR 042F
ENCODING 1071
SWIDTH 1000 0
DWIDTH 32 0
BBX 18 22 6 2
BITMAP
07FFC0
1FFFC0
3FFFC0
7C01C0
7001C0
7001C0
7001C0
7001C0
3C01C0
3FFFC0
1FFFC0
03FFC0
03C1C0
0381C0
0781C0
0701C0
0E01C0
1E01C0
1C01C0
3801C0
7801C0
F001C0
ENDCHAR
STARTCHAR 0430
ENCODING 1072
SWIDTH 1000 0
DWIDTH 32 0
BBX 16 17 8 0
BITMAP
0FC0
3FF0
7838
701C
601C
001C
07FC
3FFC
7C1C
F01C
E01C
E01C
E01C
E03C
70ED
3FCF
1F06
ENDCHAR
STARTCHAR 0431
ENCODING 1073
SWIDTH 1000 0
DWIDTH 32 0
BBX 14 24 9 0
BITMAP
003C
0078
03F0
0FC0
1E00
3800
3000
6000
67C0
7FE0
F870
F038
F038
E01C
E01C
E01C
E01C
E01C
601C
7038
7038
3870
1FE0
0FC0
ENDCHAR
STARTCHAR 0432
ENCODING 1074
SWIDTH 1000 0
DWIDTH 32 0
BBX 13 15 10 2
BITMAP
FFC0
FFF0
E078
E038
E038
E070
FFE0
FFE0
E070
E038
E038
E038
E078
FFF0
FFC0
ENDCHAR
STARTCHAR 0433
ENCODING 1075
SWIDTH 1000 0
DWIDTH 32 0
BBX 13 16 10 1
BITMAP
FFF8
FFF8
FFF8
E000
E000
E000
E000
E000
E000
E000
E000
E000
E000
E000
E000
E000
ENDCHAR
STARTCHAR 0434
ENCODING 1076
SWIDTH 1000 0
DWIDTH 32 0
BBX 17 19 7 -2
BITMAP
03FE00
03FE00
030E00
070E00
070E00
070E00
060E00
060E00
0E0E00
0E0E00
0C0E00
1C0E00
180E00
FFFF80
FFFF80
E00380
E00380
E00380
E00380
ENDCHAR
STARTCHAR 0435
ENCODING 1077
SWIDTH 1000 0
DWIDTH 32 0
BBX 16 17 8 0
BITMAP
07E0
1FF8
3C3C
700C
600E
E006
FFFF
FFFF
E000
E000
E007
E006
700E
781E
3C3C
1FF8
07E0
ENDCHAR
STARTCHAR 0436
ENCODING 1078
SWIDTH 1000 0
DWIDTH 32 0
BBX 21 15 6 3
BITMAP
707070
707070
307060
3870E0
1C71C0
1F77C0
07FF00
0FFF80
0E7380
1C71C0
1870C0
3870E0
707070
707070
E07038
ENDCHAR
STARTCHAR 0437
ENCODING 1079
SWIDTH 1000 0
DWIDTH 32 0
BBX 13 17 9 0
BITMAP
0FC0
3FF0
7078
E038
0038
0038
0FF0
0FC0
0FF0
0070
0038
0038
E038
E038
7870
3FE0
0FC0
ENDCHAR
STARTCHAR 0438
ENCODING 1080
SWIDTH 1000 0
DWIDTH 32 0
BBX 14 15 9 1
BITMAP
E01C
E01C
E03C
E07C
E0FC
E1FC
E3DC
E79C
EF1C
FE1C
FC1C
F81C
F01C
E01C
E01C
ENDCHAR
STARTCHAR 0439
ENCODING 1081
SWIDTH 1000 0
DWIDTH 32 0
BBX 14 20 9 2
BITMAP
3030
3870
1FE0
07C0
0000
E01C
E01C
E03C
E07C
E0FC
E1FC
E3DC
E79C
EF1C
FE1C
FC1C
F81C
F01C
E01C
E01C
ENDCHAR
STARTCHAR 043A
ENCODING 1082
SWIDTH 1000 0
DWIDTH 32 0
BBX 15 15 9 3
BITMAP
E018
E038
E038
E070
E0F0
E1E0
FFC0
FF80
E1C0
E0E0
E070
E078
E038
E01C
E00E
ENDCHAR
STARTCHAR 043B
ENCODING 1083
SWIDTH 1000 0
DWIDTH 32 0
BBX 18 17 5 0
BITMAP
00FFC0
00FFC0
00FFC0
01C1C0
01C1C0
01C1C0
01C1C0
01C1C0
01C1C0
01C1C0
01C1C0
E181C0
6381C0
7381C0
7F01C0
3F01C0
1E0000
ENDCHAR
STARTCHAR 043C
ENCODING 1084
SWIDTH 1000 0
DWIDTH 32 0
BBX 16 16 8 1
BITMAP
F81F
F81F
F81F
F83F
EC37
EC37
EC77
EE67
E667
E667
E6E7
E3C7
E3C7
E3C7
E187
E187
ENDCHAR
STARTCHAR 043D
ENCODING 1085
SWIDTH 1000 0
DWIDTH 32 0
BBX 14 16 9 1
BITMAP
E01C
E01C
E01C
E01C
E01C
E01C
FFFC
FFFC
FFFC
E01C
E01C
E01C
E01C
E01C
E01C
E01C
ENDCHAR
STARTCHAR 043E
ENCODING 1086
SWIDTH 1000 0
DWIDTH 32 0
BBX 16 17 8 0
BITMAP
07E0
1FF8
3C3C
781E
700E
F00F
E007
E007
E007
E007
E007
700F
700E
381E
1C3C
0FF8
07E0
ENDCHAR
STARTCHAR 043F
ENCODING 1087
SWIDTH 1000 0
DWIDTH 32 0
BBX 14 16 9 1
BITMAP
FFFC
FFFC
FFFC
E01C
E01C
E01C
E01C
E01C
E01C
E01C
E01C
E01C
E01C
E01C
E01C
E01C
ENDCHAR
STARTCHAR 0440
ENCODING 1088
SWIDTH 1000 0
DWIDTH 32 0
BBX 16 20 9 -4
BITMAP
C3E0
EFF8
FC3C
F80E
F00E
E007
E007
E007
E007
E007
E007
F00E
F80E
FC3C
EFF8
E3E0
E000
E000
E000
E000
ENDCHAR
STARTCHAR 0441
ENCODING 1089
SWIDTH 1000 0
DWIDTH 32 0
BBX 16 17 8 0
BITMAP
07E0
1FF8
3C3C
700E
700E
E000
E000
E000
E000
E000
E007
F00E
700E
781C
3C3C
1FF8
07E0
ENDCHAR
STARTCHAR 0442
ENCODING 1090
SWIDTH 1000 0
DWIDTH 32 0
BBX 15 16 9 1
BITMAP
FFFE
FFFE
FFFE
0380
0380
0380
0380
0380
0380
0380
0380
0380
0380
0380
0380
0380
ENDCHAR
STARTCHAR 0443
ENCODING 1091
SWIDTH 1000 0
DWIDTH 32 0
BBX 16 20 8 -4
BITMAP
E007
7007
7007
380E
380E
1C1C
1C1C
0E38
0E38
0670
0770
0360
03E0
01C0
01C0
01C0
0380
0780
7F00
7E00
ENDCHAR
STARTCHAR 0444
ENCODING 1092
SWIDTH 1000 0
DWIDTH 32 0
BBX 21 27 6 -3
BITMAP
007000
007000
007000
007000
007000
007000
007000
1F77C0
3FFFE0
78F8F0
707070
E07038
E07038
E07038
E07038
E07038
E07038
E07038
707070
78F8F0
3FFFE0
1F77C0
007000
007000
007000
007000
007000
ENDCHAR
STARTCHAR 0445
ENCODING 1093
SWIDTH 1000 0
DWIDTH 32 0
BBX 18 15 7 2
BITMAP
780780
3C0F00
1E1E00
0E1C00
073800
03F000
01E000
01E000
03F000
073800
0F3C00
1E1E00
3C0F00
780780
F003C0
ENDCHAR
STARTCHAR 0446
ENCODING 1094
SWIDTH 1000 0
DWIDTH 32 0
BBX 16 20 9 -2
BITMAP
E038
E038
E038
E038
E038
E038
E038
E038
E038
E038
E038
E038
E038
FFFF
FFFF
FFFF
0007
0007
0007
0007
ENDCHAR
STARTCHAR 0447
ENCODING 1095
SWIDTH 1000 0
DWIDTH 32 0
BBX 14 15 9 1
BITMAP
E01C
E01C
E01C
E01C
E01C
E01C
F07C
FFFC
7FFC
1F9C
001C
001C
001C
001C
001C
ENDCHAR
STARTCHAR 0448
ENCODING 1096
SWIDTH 1000 0
DWIDTH 32 0
BBX 20 16 6 2
BITMAP
E07070
E07070
E07070
E07070
E07070
E07070
E07070
E07070
E07070
E07070
E07070
E07070
E07070
FFFFF0
FFFFF0
FFFFF0
ENDCHAR
STARTCHAR 0449
ENCODING 1097
SWIDTH 1000 0
DWIDTH 32 0
BBX 22 20 6 -2
BITMAP
E07070
E07070
E07070
E07070
E07070
E07070
E07070
E07070
E07070
E07070
E07070
E07070
E07070
FFFFFC
FFFFFC
FFFFFC
00001C
00001C
00001C
00001C
ENDCHAR
STARTCHAR 044A
ENCODING 1098
SWIDTH 1000 0
DWIDTH 32 0
BBX 18 15 7 2
BITMAP
FE0000
FE0000
0E0000
0E0000
0E0000
0FFE00
0FFF00
0E0380
0E01C0
0E01C0
0E01C0
0E01C0
0E0380
0FFF80
0FFE00
ENDCHAR
STARTCHAR 044B
ENCODING 1099
SWIDTH 1000 0
DWIDTH 32 0
BBX 18 15 7 2
BITMAP
E001C0
E001C0
E001C0
E001C0
E001C0
FFC1C0
FFE1C0
E071C0
E039C0
E039C0
E039C0
E039C0
E071C0
FFE1C0
FFC1C0
ENDCHAR
STARTCHAR 044C
ENCODING 1100
SWIDTH 1000 0
DWIDTH 32 0
BBX 14 15 9 2
BITMAP
E000
E000
E000
E000
E000
FFE0
FFF8
E038
E01C
E01C
E01C
E01C
E038
FFF8
FFE0
ENDCHAR
STARTCHAR 044D
ENCODING 1101
SWIDTH 1000 0
DWIDTH 32 0
BBX 16 17 8 0
BITMAP
07E0
1FF8
3C3C
700E
000E
0007
1E27
1FE7
01E7
0007
E007
700E
700E
381C
3C3C
1FF8
07E0
ENDCHAR
STARTCHAR 044E
ENCODING 1102
SWIDTH 1000 0
DWIDTH 32 0
BBX 22 17 6 0
BITMAP
E01F80
E07FE0
E0F0F0
E1E078
E1C038
E3801C
FF801C
FF801C
FF801C
E3801C
E3801C
E1803C
E1C038
E0E078
E0F0F0
E07FE0
001F80
ENDCHAR
STARTCHAR 044F
ENCODING 1103
SWIDTH 1000 0
DWIDTH 32 0
BBX 15 15 7 2
BITMAP
0FFE
1FFE
3C0E
380E
380E
3C0E
1FFE
07FE
070E
0E0E
0E0E
1C0E
380E
780E
F00E
ENDCHAR
STARTCHAR 0451
ENCODING 1105
SWIDTH 1000 0
DWIDTH 32 0
BBX 16 22 8 0
BITMAP
1C38
1C38
1C38
0000
0000
07E0
1FF8
3C3C
700C
600E
E006
FFFF
FFFF
E000
E000
E007
E006
700E
781E
3C3C
1FF8
07E0
ENDCHAR
STARTCHAR 1E3E
ENCODING 7742
SWIDTH 906 0
DWIDTH 29 0
BBX 23 29 3 0
BITMAP
000E00
001C00
001800
003800
000000
000000
F8003E
F8003E
F8003E
FC007E
EC006E
EE00EE
EE00EE
E600CE
E701CE
E7018E
E3838E
E3838E
E1830E
E1C70E
E1C70E
E0C60E
E0EE0E
E06C0E
E06C0E
E07C0E
E0380E
E0380E
E0000E
ENDCHAR
STARTCHAR 1E3F
ENCODING 7743
SWIDTH 875 0
DWIDTH 28 0
BBX 22 23 3 0
BITMAP
000600
000E00
000C00
001800
000000
000000
000000
E7C1E0
EFF7F8
F87638
F03C1C
F0381C
E0381C
E0381C
E0381C
E0381C
E0381C
E0381C
E0381C
E0381C
E0381C
E0381C
E0381C
ENDCHAR
STARTCHAR 1F70
ENCODING 8048
SWIDTH 625 0
DWIDTH 20 0
BBX 17 23 1 0
BITMAP
0E0000
070000
030000
018000
000000
000000
000000
07E300
1FFF00
3C3F00
780F00
700700
E00700
E00700
E00700
E00700
E00700
E00700
700F00
701F00
3C3F00
1FF300
0FC380
ENDCHAR
STARTCHAR 1F71
ENCODING 8049
SWIDTH 625 0
DWIDTH 20 0
BBX 17 23 1 0
BITMAP
007000
00E000
00C000
018000
000000
000000
000000
07E300
1FFF00
3C3F00
780F00
700700
E00700
E00700
E00700
E00700
E00700
E00700
700F00
701F00
3C3F00
1FF300
0FC380
ENDCHAR
STARTCHAR 1F72
ENCODING 8050
SWIDTH 500 0
DWIDTH 16 0
BBX 13 23 2 0
BITMAP
1C00
0E00
0600
0300
0000
0000
0000
1FF8
7FF0
F010
E000
E000
F000
7FC0
0FC0
7FC0
7000
E000
E000
E000
F018
7FF8
1FF0
ENDCHAR
STARTCHAR 1F73
ENCODING 8051
SWIDTH 500 0
DWIDTH 16 0
BBX 13 23 2 0
BITMAP
00E0
01C0
0180
0300
0000
0000
0000
1FF8
7FF0
F010
E000
E000
F000
7FC0
0FC0
7FC0
7000
E000
E000
E000
F018
7FF8
1FF0
ENDCHAR
STARTCHAR 2002
ENCODING 8194
SWIDTH 500 0
DWIDTH 16 0
BBX 0 0 0 0
BITMAP
ENDCHAR
STARTCHAR 2003
ENCODING 8195
SWIDTH 1000 0
DWIDTH 32 0
BBX 0 0 0 0
BITMAP
ENDCHAR
STARTCHAR 2010
ENCODING 8208
SWIDTH 343 0
DWIDTH 11 0
BBX 8 2 2 9
BITMAP
FF
FF
ENDCHAR
STARTCHAR 2011
ENCODING 8209
SWIDTH 343 0
DWIDTH 11 0
BBX 8 2 2 9
BITMAP
FF
FF
ENDCHAR
STARTCHAR 2012
ENCODING 8210
SWIDTH 343 0
DWIDTH 11 0
BBX 8 2 2 9
BITMAP
FF
FF
ENDCHAR
STARTCHAR 2013
ENCODING 8211
SWIDTH 562 0
DWIDTH 18 0
BBX 14 2 2 9
BITMAP
FFFC
FFFC
ENDCHAR
STARTCHAR 2014
ENCODING 8212
SWIDTH 968 0
DWIDTH 31 0
BBX 27 2 2 11
BITMAP
FFFFFFE0
FFFFFFE0
ENDCHAR
STARTCHAR 2015
ENCODING 8213
SWIDTH 1000 0
DWIDTH 32 0
BBX 28 3 2 10
BITMAP
FFFFFFF0
FFFFFFF0
FFFFFFF0
ENDCHAR
STARTCHAR 2016
ENCODING 8214
SWIDTH 1000 0
DWIDTH 32 0
BBX 10 32 11 -3
BITMAP
C0C0
C0C0
C0C0
C0C0
C0C0
C0C0
C0C0
C0C0
C0C0
C0C0
C0C0
C0C0
C0C0
C0C0
C0C0
C0C0
C0C0
C0C0
C0C0
C0C0
C0C0
C0C0
C0C0
C0C0
C0C0
C0C0
C0C0
C0C0
C0C0
C0C0
C0C0
C0C0
ENDCHAR
STARTCHAR 2018
ENCODING 8216
SWIDTH 1000 0
DWIDTH 32 0
BBX 5 9 26 18
BITMAP
18
30
60
60
C0
F0
F0
F0
F0
ENDCHAR
STARTCHAR 2019
ENCODING 8217
SWIDTH 1000 0
DWIDTH 32 0
BBX 5 9 1 18
BITMAP
78
78
78
78
18
30
30
60
C0
ENDCHAR
STARTCHAR 201C
ENCODING 8220
SWIDTH 1000 0
DWIDTH 32 0
BBX 12 9 19 18
BITMAP
1870
3060
60C0
6180
C180
F1E0
F1E0
F1E0
F1E0
ENDCHAR
STARTCHAR 201D
ENCODING 8221
SWIDTH 1000 0
DWIDTH 32 0
BBX 12 9 1 18
BITMAP
78F0
78F0
78F0
78F0
1830
1860
3060
60C0
E180
ENDCHAR
STARTCHAR 2020
ENCODING 8224
SWIDTH 1000 0
DWIDTH 32 0
BBX 16 28 8 -3
BITMAP
03C0
03C0
03C0
03C0
0180
718E
FFFF
FFFF
799E
0180
03C0
03C0
03C0
03C0
03C0
0180
0180
0180
0180
0180
0180
0180
0180
0180
0180
0180
0180
0180
ENDCHAR
STARTCHAR 2021
ENCODING 8225
SWIDTH 1000 0
DWIDTH 32 0
BBX 14 30 9 -3
BITMAP
0780
0780
0780
0300
F33C
FFFC
FFFC
F33C
0300
0780
0300
0300
0300
0300
0300
0300
0300
0300
0300
0780
0780
0300
F33C
FFFC
FB7C
0300
0700
0780
0780
0780
ENDCHAR
STARTCHAR 2022
ENCODING 8226
SWIDTH 343 0
DWIDTH 11 0
BBX 8 8 2 7
BITMAP
3C
7E
FF
FF
FF
FF
7E
3C
ENDCHAR
STARTCHAR 2025
ENCODING 8229
SWIDTH 1000 0
DWIDTH 32 0
BBX 20 4 6 10
BITMAP
F000F0
F000F0
F000F0
F000F0
ENDCHAR
STARTCHAR 2026
ENCODING 8230
SWIDTH 1000 0
DWIDTH 32 0
BBX 24 4 4 10
BITMAP
F03C0F
F03C0F
F03C0F
F03C0F
ENDCHAR
STARTCHAR 2030
ENCODING 8240
SWIDTH 1000 0
DWIDTH 32 0
BBX 28 28 2 -2
BITMAP
0000E000
3C00C000
7E018000
66018000
C3030000
C3070000
C3060000
C30C0000
C31C0000
C3180000
C3380000
66300000
7E600000
3CE00000
00CF03C0
019F87E0
01998660
0330CC30
0730CC30
0630CC30
0C30CC30
1C30CC30
1830CC30
3830CC30
30198660
601F87E0
E00F03C0
C0000000
ENDCHAR
STARTCHAR 2032
ENCODING 8242
SWIDTH 281 0
DWIDTH 9 0
BBX 4 9 2 18
BITMAP
30
30
70
60
60
60
40
C0
80
ENDCHAR
STARTCHAR 2033
ENCODING 8243
SWIDTH 437 0
DWIDTH 14 0
BBX 9 9 2 18
BITMAP
3180
3180
7180
6300
6300
6300
4200
C600
8600
ENDCHAR
STARTCHAR 203B
ENCODING 8251
SWIDTH 1000 0
DWIDTH 32 0
BBX 26 26 3 -1
BITMAP
40000080
E00C01C0
701E0380
381E0700
1C0C0E00
0E001C00
07003800
03807000
01C0E000
00E1C000
00738000
603F0380
F01E0780
F01E0780
603F0300
00738000
00E1C000
01C0E000
03807000
07003800
0E001C00
1C0C0E00
381E0700
701E0380
E00C01C0
C00000C0
ENDCHAR
STARTCHAR 203C
ENCODING 8252
SWIDTH 500 0
DWIDTH 16 0
BBX 10 23 3 0
BITMAP
E1C0
E1C0
E1C0
E1C0
E1C0
E1C0
E1C0
E1C0
E1C0
E1C0
E1C0
E1C0
E1C0
E1C0
E1C0
E1C0
60C0
0000
0000
0000
E1C0
E1C0
E1C0
ENDCHAR
STARTCHAR 203E
ENCODING 8254
SWIDTH 500 0
DWIDTH 16 0
BBX 8 2 4 20
BITMAP
FF
FF
ENDCHAR
STARTCHAR 203F
ENCODING 8255
SWIDTH 437 0
DWIDTH 14 0
BBX 14 4 0 -4
BITMAP
C004
F03C
3FF8
0FC0
ENDCHAR
STARTCHAR 2042
ENCODING 8258
SWIDTH 1000 0
DWIDTH 32 0
BBX 24 24 4 0
BITMAP
001800
001800
019980
01DB80
00F700
001800
007600
01DB80
019980
001800
001800
000000
000000
0C0030
0C0030
CCC333
E5C3A7
3F00FC
0C0030
7781EE
E5C3A7
CCC333
0C0030
0C0030
ENDCHAR
STARTCHAR 2047
ENCODING 8263
SWIDTH 1000 0
DWIDTH 32 0
BBX 30 23 1 0
BITMAP
0FC00FC0
1FF03FF0
78787878
7038E038
E01CE01C
E01DC01C
C01DC01C
001C001C
00380038
00780078
00F000F0
01E001E0
01C001C0
03800380
03000300
07000700
07000700
07000700
00000000
00000000
07000700
07000700
07000700
ENDCHAR
STARTCHAR 2048
ENCODING 8264
SWIDTH 781 0
DWIDTH 25 0
BBX 19 23 2 0
BITMAP
0FC0E0
3FF0E0
7878E0
F038E0
E01CE0
C01CE0
401CE0
001CE0
0038E0
0078E0
00F0E0
01E0E0
0380E0
0300E0
0300E0
0700E0
0700E0
070000
000000
000000
0700E0
0700E0
0700E0
ENDCHAR
STARTCHAR 2049
ENCODING 8265
SWIDTH 781 0
DWIDTH 25 0
BBX 20 23 3 0
BITMAP
E03F00
E0FFC0
E1E1E0
E380E0
E38070
E70070
E30070
E00070
E000E0
E001E0
E003C0
E00780
E00E00
E00C00
E00C00
E01C00
601C00
001C00
000000
000000
E01C00
E01C00
E01C00
ENDCHAR
STARTCHAR 2051
ENCODING 8273
SWIDTH 1000 0
DWIDTH 32 0
BBX 10 24 11 0
BITMAP
0C00
0C00
CCC0
E980
1E00
1E00
E9C0
CCC0
0C00
0C00
0000
0000
0000
0000
0C00
0C00
CCC0
EDC0
3B00
0C00
FBC0
CCC0
0C00
0C00
ENDCHAR
STARTCHAR 205A
ENCODING 8282
SWIDTH 1000 0
DWIDTH 32 0
BBX 4 20 14 2
BITMAP
F0
F0
F0
F0
00
00
00
00
00
00
00
00
00
00
00
00
F0
F0
F0
F0
ENDCHAR
STARTCHAR 205D
ENCODING 8285
SWIDTH 1000 0
DWIDTH 32 0
BBX 4 25 14 0
BITMAP
F0
F0
F0
F0
00
00
00
00
00
00
00
F0
F0
F0
F0
00
00
00
00
00
00
F0
F0
F0
F0
ENDCHAR
STARTCHAR 20AC
ENCODING 8364
SWIDTH 625 0
DWIDTH 20 0
BBX 18 23 1 0
BITMAP
00FC00
03FF00
0783C0
0F0180
0E0000
1C0000
1C0000
380000
FFFF00
FFFF00
380000
380000
380000
FFFF00
FFFF00
380000
380000
1C0000
1C0000
0E0180
0783C0
03FF80
00FC00
ENDCHAR
STARTCHAR 2103
ENCODING 8451
SWIDTH 1000 0
DWIDTH 32 0
BBX 26 25 2 1
BITMAP
38000000
44000000
8207F000
821FFC00
823FFE00
44781F00
38E00780
01C00380
01C001C0
01800000
03800000
03800000
03800000
03800000
03800000
03800000
03800000
03C001C0
01C001C0
01E003C0
00F00780
007C1F00
007FFE00
001FFC00
0007F000
ENDCHAR
STARTCHAR 210F
ENCODING 8463
SWIDTH 593 0
DWIDTH 19 0
BBX 15 24 1 0
BITMAP
0600
0E00
0E00
0FE0
7FE0
7C00
1C00
1C00
1C78
19FC
1B1E
3E0E
3C0E
3C0E
380E
700E
701C
701C
601C
601C
E018
E038
E038
C038
ENDCHAR
STARTCHAR 2113
ENCODING 8467
SWIDTH 1000 0
DWIDTH 32 0
BBX 17 23 7 0
BITMAP
003800
00FC00
01CE00
018600
030600
030600
060600
060600
060E00
0C0C00
0C0C00
0C1C00
0C1800
0C3800
0C7000
0C6000
0CE000
0FC100
0F8380
1E0700
FF0E00
73FC00
00F800
ENDCHAR
STARTCHAR 2116
ENCODING 8470
SWIDTH 1000 0
DWIDTH 32 0
BBX 28 23 2 1
BITMAP
E0300000
F0300000
F0300000
F0300000
F8300000
D8300000
DC307800
CC30FC00
CE31CE00
CE318600
C7330300
C7330300
C3330300
C3B30300
C1B30300
C1F30300
C0F30300
C0F30300
C0F30300
C0718670
C071CE70
C030FC70
00007800
ENDCHAR
STARTCHAR 2121
ENCODING 8481
SWIDTH 1000 0
DWIDTH 32 0
BBX 29 22 2 2
BITMAP
FFE00000
FFE00000
0E000000
0E000000
0E000000
0E000000
0E3FC600
0E3FC600
0E300600
0E300600
0E300600
0E300600
0E300600
0E3F8600
0E3F8600
0E300600
0E300600
0E300600
0E300600
0E300600
0E3FE7F8
0E3FE7F8
ENDCHAR
STARTCHAR 2127
ENCODING 8487
SWIDTH 843 0
DWIDTH 27 0
BBX 21 23 3 0
BITMAP
FF07F8
FF07F8
030600
070700
0E0380
1C01C0
3800E0
3800E0
3800E0
700070
700070
700070
700070
700070
700070
700070
3800E0
3800E0
3C01E0
1E03C0
0F0780
07FF00
01FC00
ENDCHAR
STARTCHAR 212B
ENCODING 8491
SWIDTH 1000 0
DWIDTH 32 0
BBX 20 25 6 2
BITMAP
00F000
019800
010800
010800
011800
00F000
00F000
00F000
01F800
01D800
039C00
039C00
070C00
070E00
060600
0E0700
0C0300
1FFF80
1FFF80
3801C0
3000C0
7000E0
7000E0
E00070
E00070
ENDCHAR
STARTCHAR 2135
ENCODING 8501
SWIDTH 687 0
DWIDTH 22 0
BBX 19 23 1 -1
BITMAP
080100
180300
380300
700380
7001C0
7003E0
780360
3E0660
1F0E00
07CC00
1FF800
39F800
387C00
383F00
380F80
380780
1C03C0
1C01C0
1C01C0
1C01C0
1C01C0
F80380
700300
ENDCHAR
STARTCHAR 2153
ENCODING 8531
SWIDTH 843 0
DWIDTH 27 0
BBX 22 25 3 -1
BITMAP
000020
780060
F80060
9800C0
180180
180380
180300
180600
180C00
180C00
181800
1830E0
1833F8
00631C
00C60C
01800C
01801C
0300F0
0600F8
06000C
0C000C
18071C
3003F8
3001F0
200000
ENDCHAR
STARTCHAR 2154
ENCODING 8532
SWIDTH 843 0
DWIDTH 27 0
BBX 23 25 2 -1
BITMAP
000010
3E0038
7F0030
E18060
4180C0
0380C0
070180
1E0300
380700
600600
C00C00
FF9800
FF987C
0031FE
006186
00C006
00C006
018078
03007C
070006
060006
0C038E
1801FC
1800F8
100000
ENDCHAR
STARTCHAR 2155
ENCODING 8533
SWIDTH 843 0
DWIDTH 27 0
BBX 23 25 3 -1
BITMAP
000020
780060
F80060
9800C0
180180
180380
180300
180600
180C00
180C00
181800
183000
1831FC
0063FC
00C300
018300
018370
0303FC
06030E
060006
0C0006
18030E
3003FC
3001F8
200000
ENDCHAR
STARTCHAR 2160
ENCODING 8544
SWIDTH 1000 0
DWIDTH 32 0
BBX 3 22 14 2
BITMAP
E0
E0
E0
E0
E0
E0
E0
E0
E0
E0
E0
E0
E0
E0
E0
E0
E0
E0
E0
E0
E0
E0
ENDCHAR
STARTCHAR 2161
ENCODING 8545
SWIDTH 1000 0
DWIDTH 32 0
BBX 12 22 10 2
BITMAP
E070
E070
E070
E070
E070
E070
E070
E070
E070
E070
E070
E070
E070
E070
E070
E070
E070
E070
E070
E070
E070
E070
ENDCHAR
STARTCHAR 2162
ENCODING 8546
SWIDTH 1000 0
DWIDTH 32 0
BBX 20 22 6 2
BITMAP
E07070
E07070
E07070
E07070
E07070
E07070
E07070
E07070
E07070
E07070
E07070
E07070
E07070
E07070
E07070
E07070
E07070
E07070
E07070
E07070
E07070
E07070
ENDCHAR
STARTCHAR 2163
ENCODING 8547
SWIDTH 1000 0
DWIDTH 32 0
BBX 24 22 5 2
BITMAP
E70007
E78007
E3800E
E3800E
E1C00E
E1C01C
E1C01C
E0E03C
E0E038
E0E038
E07070
E07070
E03870
E038E0
E038E0
E01CE0
E01DC0
E01DC0
E00F80
E00F80
E00780
E00700
ENDCHAR
STARTCHAR 2164
ENCODING 8548
SWIDTH 1000 0
DWIDTH 32 0
BBX 20 22 6 2
BITMAP
E00070
E00070
7000E0
7000E0
7801E0
3801C0
3801C0
1C0380
1C0380
1C0380
0E0700
0E0700
070E00
070E00
070E00
039C00
039C00
01F800
01F800
01F800
00F000
00F000
ENDCHAR
STARTCHAR 2165
ENCODING 8549
SWIDTH 1000 0
DWIDTH 32 0
BBX 24 22 3 2
BITMAP
E000E7
E001E7
7001C7
7001C7
700387
380387
380387
3C0707
1C0707
1C0707
0E0E07
0E0E07
0E1C07
071C07
071C07
073807
03B807
03B807
01F007
01F007
01E007
00E007
ENDCHAR
STARTCHAR 2166
ENCODING 8550
SWIDTH 1000 0
DWIDTH 32 0
BBX 27 22 2 3
BITMAP
E00738E0
E00E38E0
700E38E0
700E38E0
700E38E0
301C38E0
381C38E0
381C38E0
381838E0
1C3838E0
1C3838E0
1C3838E0
0C7038E0
0E7038E0
0E7038E0
0E6038E0
06E038E0
07E038E0
07E038E0
03C038E0
03C038E0
03C038E0
ENDCHAR
STARTCHAR 2167
ENCODING 8551
SWIDTH 1000 0
DWIDTH 32 0
BBX 28 22 1 3
BITMAP
E01CE770
601CE770
701CE770
7018E770
7038E770
3038E770
3038E770
3830E770
3870E770
1870E770
1870E770
1C60E770
1C60E770
0CE0E770
0CE0E770
0EC0E770
0EC0E770
07C0E770
07C0E770
0780E770
0780E770
0380E770
ENDCHAR
STARTCHAR 2168
ENCODING 8552
SWIDTH 1000 0
DWIDTH 32 0
BBX 24 22 5 2
BITMAP
E1E00E
E0E01C
E0701C
E07038
E03878
E03C70
E01CE0
E00FE0
E00FC0
E00780
E00780
E007C0
E00FC0
E01EE0
E01CF0
E03870
E07838
E0703C
E0E01C
E1E01E
E1C00F
E3C007
ENDCHAR
STARTCHAR 2169
ENCODING 8553
SWIDTH 1000 0
DWIDTH 32 0
BBX 22 22 5 2
BITMAP
3800F0
1C00E0
1E01E0
0F03C0
070380
038700
03CF00
01CE00
00FC00
007800
007800
00F800
00FC00
01CE00
03CF00
078780
0F03C0
0E01C0
1E01E0
3C00F0
780078
F0003C
ENDCHAR
STARTCHAR 216A
ENCODING 8554
SWIDTH 1000 0
DWIDTH 32 0
BBX 24 22 3 2
BITMAP
700787
380707
380E07
1C0E07
1E1C07
0E3C07
073807
077007
03F007
03E007
01E007
03E007
03F007
077807
0F3807
0E1C07
1C1E07
3C0E07
380707
700787
F00387
E003C7
ENDCHAR
STARTCHAR 216B
ENCODING 8555
SWIDTH 1000 0
DWIDTH 32 0
BBX 27 22 2 3
BITMAP
380E38E0
381C38E0
1C1C38E0
1C3838E0
0E3838E0
0E7038E0
077038E0
07E038E0
03E038E0
03C038E0
03C038E0
03C038E0
07E038E0
077038E0
0E7038E0
0E3838E0
1C3838E0
1C1C38E0
381C38E0
780E38E0
700E38E0
E00738E0
ENDCHAR
STARTCHAR 2170
ENCODING 8560
SWIDTH 1000 0
DWIDTH 32 0
BBX 4 22 14 1
BITMAP
E0
E0
E0
00
00
00
00
70
70
70
70
70
70
70
70
70
70
70
70
70
70
70
ENDCHAR
STARTCHAR 2171
ENCODING 8561
SWIDTH 1000 0
DWIDTH 32 0
BBX 12 22 10 1
BITMAP
E070
E070
E070
0000
0000
0000
0000
E070
E070
E070
E070
E070
E070
E070
E070
E070
E070
E070
E070
E070
E070
E070
ENDCHAR
STARTCHAR 2172
ENCODING 8562
SWIDTH 1000 0
DWIDTH 32 0
BBX 18 22 7 1
BITMAP
E0E1C0
E0E1C0
E0E1C0
000000
000000
000000
000000
70E380
70E380
70E380
70E380
70E380
70E380
70E380
70E380
70E380
70E380
70E380
70E380
70E380
70E380
70E380
ENDCHAR
STARTCHAR 2173
ENCODING 8563
SWIDTH 1000 0
DWIDTH 32 0
BBX 20 22 7 1
BITMAP
E00000
E00000
E00000
000000
000000
000000
000000
E70070
E38070
E38070
E1C0E0
E1C0E0
E0C1C0
E0E1C0
E0E180
E07380
E07380
E03F00
E03F00
E01E00
E01E00
E01C00
ENDCHAR
STARTCHAR 2174
ENCODING 8564
SWIDTH 1000 0
DWIDTH 32 0
BBX 16 15 8 2
BITMAP
E007
E007
700E
700E
381C
381C
381C
1C38
1C38
0E70
0E70
07E0
07E0
03C0
03C0
ENDCHAR
STARTCHAR 2175
ENCODING 8565
SWIDTH 1000 0
DWIDTH 32 0
BBX 20 22 5 1
BITMAP
000070
000070
000070
000000
000000
000000
000000
E00E70
E01C70
E01C70
703870
703870
387070
387070
187070
1CE070
1CE070
0FC070
0FC070
078070
078070
038070
ENDCHAR
STARTCHAR 2176
ENCODING 8566
SWIDTH 1000 0
DWIDTH 32 0
BBX 24 22 4 2
BITMAP
0001C7
0001C7
0001C7
000000
000000
000000
000000
C03B8E
E03B8E
E0338E
60738E
70738E
30638E
38E38E
38E38E
18C38E
1DC38E
1D838E
0D838E
0F838E
0F038E
07038E
ENDCHAR
STARTCHAR 2177
ENCODING 8567
SWIDTH 1000 0
DWIDTH 32 0
BBX 27 22 2 2
BITMAP
0001CEE0
0001CEE0
0001CEE0
00000000
00000000
00000000
00000000
E019DCE0
E039DCE0
6039DCE0
7031DCE0
3071DCE0
3871DCE0
3861DCE0
18E1DCE0
1CE1DCE0
1CC1DCE0
0DC1DCE0
0F81DCE0
0F81DCE0
0781DCE0
0701DCE0
ENDCHAR
STARTCHAR 2178
ENCODING 8568
SWIDTH 1000 0
DWIDTH 32 0
BBX 21 22 6 2
BITMAP
E00000
E00000
E00000
000000
000000
000000
000000
E38078
E1C0F0
E0E0E0
E071C0
E07B80
E03F00
E01F00
E01E00
E03F00
E03B80
E071C0
E0E1E0
E1C0F0
E3C078
E78038
ENDCHAR
STARTCHAR 2179
ENCODING 8569
SWIDTH 1000 0
DWIDTH 32 0
BBX 18 15 7 2
BITMAP
780780
3C0F00
1E1E00
0E1C00
073800
03F000
01E000
01E000
03F000
073800
0F3C00
1E1E00
3C0F00
780780
F003C0
ENDCHAR
STARTCHAR 217A
ENCODING 8570
SWIDTH 1000 0
DWIDTH 32 0
BBX 21 22 5 2
BITMAP
000038
000038
000038
000000
000000
000000
000000
F00E38
781C38
383838
1C7038
0EF038
07E038
07C038
03C038
07E038
0EE038
1C7038
3C3838
781C38
F01E38
E00F38
ENDCHAR
STARTCHAR 217B
ENCODING 8571
SWIDTH 1000 0
DWIDTH 32 0
BBX 25 22 3 3
BITMAP
0000E380
0000E380
0000E380
00000000
00000000
00000000
00000000
7038E380
7070E380
3870E380
1CE0E380
0DC0E380
0FC0E380
0780E380
0780E380
0F80E380
0FC0E380
1CE0E380
3870E380
7870E380
7038E380
E01CE380
ENDCHAR
STARTCHAR 2190
ENCODING 8592
SWIDTH 1000 0
DWIDTH 32 0
BBX 28 12 2 6
BITMAP
03C00000
07800000
0E000000
1C000000
78000000
FFFFFFF0
FFFFFFF0
78000000
1C000000
0E000000
07800000
03C00000
ENDCHAR
STARTCHAR 2191
ENCODING 8593
SWIDTH 1000 0
DWIDTH 32 0
BBX 12 28 10 -1
BITMAP
0600
0F00
1F80
1F80
3FC0
76E0
E670
C630
8610
8610
0600
0600
0600
0600
0600
0600
0600
0600
0600
0600
0600
0600
0600
0600
0600
0600
0600
0600
ENDCHAR
STARTCHAR 2192
ENCODING 8594
SWIDTH 1000 0
DWIDTH 32 0
BBX 28 12 2 6
BITMAP
00003C00
00001E00
00000700
00000380
000001E0
FFFFFFF0
FFFFFFF0
000001E0
00000380
00000700
00001E00
00003C00
ENDCHAR
STARTCHAR 2193
ENCODING 8595
SWIDTH 1000 0
DWIDTH 32 0
BBX 12 28 10 -3
BITMAP
0600
0600
0600
0600
0600
0600
0600
0600
0600
0600
0600
0600
0600
0600
0600
0600
0600
0600
8610
C630
E670
E670
76E0
3FC0
1F80
0F00
0600
0600
ENDCHAR
STARTCHAR 2194
ENCODING 8596
SWIDTH 750 0
DWIDTH 24 0
BBX 20 14 2 4
BITMAP
040600
0E0600
1C0300
180180
3000C0
6000E0
FFFFF0
FFFFF0
600060
3000C0
180180
0C0300
0E0600
040400
ENDCHAR
STARTCHAR 2196
ENCODING 8598
SWIDTH 1000 0
DWIDTH 32 0
BBX 23 23 5 1
BITMAP
F80000
FFC000
FFE000
F80000
FC0000
6E0000
670000
638000
61C000
60E000
207000
003800
001C00
000E00
000700
000380
0001C0
0000E0
000070
000038
00001C
00000E
000004
ENDCHAR
STARTCHAR 2197
ENCODING 8599
SWIDTH 1000 0
DWIDTH 32 0
BBX 23 23 4 1
BITMAP
00003E
0007FE
000FFE
00003E
00007E
0000EC
0001CC
00038C
00070C
000E0C
001C08
003800
007000
00E000
01C000
038000
070000
0E0000
1C0000
380000
700000
E00000
400000
ENDCHAR
STARTCHAR 2198
ENCODING 8600
SWIDTH 1000 0
DWIDTH 32 0
BBX 23 23 4 0
BITMAP
400000
E00000
700000
380000
1C0000
0E0000
070000
038000
01C000
00E000
007000
003800
001C08
000E0C
00070C
00038C
0001CC
0000EC
00007E
00003E
000FFE
0007FE
00003E
ENDCHAR
STARTCHAR 2199
ENCODING 8601
SWIDTH 1000 0
DWIDTH 32 0
BBX 23 23 5 0
BITMAP
000004
00000E
00001C
000038
000070
0000E0
0001C0
000380
000700
000E00
001C00
003800
207000
60E000
61C000
638000
670000
6E0000
FC0000
F80000
FFE000
FFC000
F80000
ENDCHAR
STARTCHAR 21C4
ENCODING 8644
SWIDTH 1000 0
DWIDTH 32 0
BBX 28 24 2 0
BITMAP
00003C00
00000E00
00000780
000001C0
FFFFFFF0
FFFFFFF0
000001C0
00000380
00000F00
00001E00
00003C00
00000000
00000000
03C00000
07000000
1E000000
38000000
FFFFFFF0
FFFFFFF0
38000000
1C000000
0F000000
07800000
03C00000
ENDCHAR
STARTCHAR 21D2
ENCODING 8658
SWIDTH 750 0
DWIDTH 24 0
BBX 20 15 2 3
BITMAP
000400
000E00
000700
000380
FFFF80
FFFFC0
000060
000030
000060
FFFFC0
FFFF80
000380
000700
000E00
000400
ENDCHAR
STARTCHAR 21D4
ENCODING 8660
SWIDTH 750 0
DWIDTH 24 0
BBX 20 15 2 3
BITMAP
020400
060E00
0C0700
180380
3FFF80
7FFFC0
E00060
C00030
E00060
7FFFC0
3FFF80
180380
0C0700
060E00
020400
ENDCHAR
STARTCHAR 21E6
ENCODING 8678
SWIDTH 1000 0
DWIDTH 32 0
BBX 27 11 2 6
BITMAP
01800000
03800000
0C800000
18FFFFE0
60FFFFE0
C0000020
60FFFFE0
18FFFFE0
0C800000
03800000
01800000
ENDCHAR
STARTCHAR 21E7
ENCODING 8679
SWIDTH 1000 0
DWIDTH 32 0
BBX 10 27 11 0
BITMAP
0800
0C00
1E00
1200
3100
2100
4080
C0C0
F3C0
1200
1200
1200
1200
1200
1200
1200
1200
1200
1200
1200
1200
1200
1200
1200
1200
1200
1E00
ENDCHAR
STARTCHAR 21E8
ENCODING 8680
SWIDTH 1000 0
DWIDTH 32 0
BBX 27 11 3 6
BITMAP
00003000
00003800
00002600
FFFFE300
FFFFE0C0
80000060
FFFFE0C0
FFFFE300
00002600
00003800
00003000
ENDCHAR
STARTCHAR 21E9
ENCODING 8681
SWIDTH 1000 0
DWIDTH 32 0
BBX 10 26 11 -2
BITMAP
1E00
1200
1200
1200
1200
1200
1200
1200
1200
1200
1200
1200
1200
1200
1200
1200
1200
1200
F3C0
C0C0
4080
2100
3300
1200
1E00
0C00
ENDCHAR
STARTCHAR 2200
ENCODING 8704
SWIDTH 750 0
DWIDTH 24 0
BBX 22 24 1 -1
BITMAP
400000
C0000C
E00018
600018
700030
300030
380060
180060
1FFFC0
0FFFC0
0C01C0
060180
060380
030300
030300
038600
018600
018C00
00CC00
00D800
007800
007000
003000
002000
ENDCHAR
STARTCHAR 2202
ENCODING 8706
SWIDTH 593 0
DWIDTH 19 0
BBX 15 26 2 -1
BITMAP
03C0
0FF0
1E38
181C
100C
000C
0006
0006
0006
0006
07C6
1FE6
3C76
783E
701E
F01E
E01C
E01C
E01C
E01C
E038
E038
7070
78E0
3FC0
0F80
ENDCHAR
STARTCHAR 2203
ENCODING 8707
SWIDTH 750 0
DWIDTH 24 0
BBX 17 23 2 0
BITMAP
FFFF80
FFFF80
000180
000180
000180
000180
000180
000180
000180
000180
FFFF80
FFFF80
000180
000180
000180
000180
000180
000180
000180
000180
000180
FFFF80
FFFF80
ENDCHAR
STARTCHAR 2205
ENCODING 8709
SWIDTH 781 0
DWIDTH 25 0
BBX 21 20 2 1
BITMAP
01FC10
07FF30
0F03E0
1C00C0
3001E0
700330
600630
E00C18
C01818
C03018
C06018
C0C018
C18018
630030
660070
3C0060
3801E0
3E0780
67FF00
41FC00
ENDCHAR
STARTCHAR 2207
ENCODING 8711
SWIDTH 750 0
DWIDTH 24 0
BBX 21 23 1 -2
BITMAP
FFFFF8
7FFFF8
700038
380030
380030
1C0060
1C0060
1C00C0
0E00C0
0E0180
070180
070300
038300
038300
01C600
01C600
01CC00
00EC00
00F800
007800
007000
003000
002000
ENDCHAR
STARTCHAR 2208
ENCODING 8712
SWIDTH 687 0
DWIDTH 22 0
BBX 18 16 2 2
BITMAP
03FFC0
1FFFC0
3C0000
700000
600000
C00000
C00000
FFFFC0
FFFFC0
C00000
C00000
600000
700000
380000
1FFFC0
07FFC0
ENDCHAR
STARTCHAR 2209
ENCODING 8713
SWIDTH 687 0
DWIDTH 22 0
BBX 18 20 2 0
BITMAP
000C00
000C00
03FFC0
1FFFC0
3C1800
703000
603000
C06000
C06000
FFFFC0
FFFFC0
C0C000
C18000
618000
718000
3B0000
1FFFC0
07FFC0
060000
060000
ENDCHAR
STARTCHAR 220B
ENCODING 8715
SWIDTH 687 0
DWIDTH 22 0
BBX 18 16 2 2
BITMAP
FFF000
FFFE00
000F00
000380
000180
0001C0
0000C0
FFFFC0
FFFFC0
0000C0
0000C0
000180
000380
000F00
FFFE00
FFF800
ENDCHAR
STARTCHAR 2212
ENCODING 8722
SWIDTH 687 0
DWIDTH 22 0
BBX 18 2 2 9
BITMAP
FFFFC0
FFFFC0
ENDCHAR
STARTCHAR 2213
ENCODING 8723
SWIDTH 687 0
DWIDTH 22 0
BBX 18 19 2 0
BITMAP
FFFFC0
FFFFC0
000000
000000
00C000
00C000
00C000
00C000
00C000
00C000
FFFFC0
FFFFC0
00C000
00C000
00C000
00C000
00C000
00C000
00C000
ENDCHAR
STARTCHAR 2219
ENCODING 8729
SWIDTH 250 0
DWIDTH 8 0
BBX 4 4 2 8
BITMAP
F0
F0
F0
F0
ENDCHAR
STARTCHAR 221A
ENCODING 8730
SWIDTH 625 0
DWIDTH 20 0
BBX 18 30 2 -2
BITMAP
0000C0
0000C0
000180
000180
000180
000300
000300
000700
000600
000600
000E00
000C00
000C00
001C00
101800
101800
183800
383000
3C3000
6C6000
6C6000
CE6000
C6C000
C7C000
83C000
838000
038000
018000
010000
010000
ENDCHAR
STARTCHAR 221D
ENCODING 8733
SWIDTH 687 0
DWIDTH 22 0
BBX 16 10 3 5
BITMAP
1E0F
7F1F
63B0
C1E0
C0C0
C0E0
C1E0
63B0
7F3F
3E0F
ENDCHAR
STARTCHAR 221E
ENCODING 8734
SWIDTH 687 0
DWIDTH 22 0
BBX 19 10 1 5
BITMAP
1E0F80
7F1FC0
61B8C0
C0F060
C0E060
C0E060
C0F060
61B8C0
7F1FC0
1E0F00
ENDCHAR
STARTCHAR 221F
ENCODING 8735
SWIDTH 687 0
DWIDTH 22 0
BBX 17 20 3 2
BITMAP
C00000
C00000
C00000
C00000
C00000
C00000
C00000
C00000
C00000
C00000
C00000
C00000
C00000
C00000
C00000
C00000
C00000
C00000
FFFF80
FFFF80
ENDCHAR
STARTCHAR 2220
ENCODING 8736
SWIDTH 687 0
DWIDTH 22 0
BBX 20 20 1 3
BITMAP
001000
003000
007000
006000
00E000
00C000
018000
018000
030000
030000
060000
060000
0C0000
0C0000
180000
380000
300000
600000
7FFFF0
FFFFF0
ENDCHAR
STARTCHAR 2225
ENCODING 8741
SWIDTH 687 0
DWIDTH 22 0
BBX 18 28 2 -1
BITMAP
0031C0
006180
006180
00E380
00C300
00C300
01C700
018600
018600
038C00
030C00
031C00
071800
061800
063800
0C3000
0C3000
1C7000
186000
186000
38E000
30C000
30C000
71C000
618000
618000
E30000
410000
ENDCHAR
STARTCHAR 2226
ENCODING 8742
SWIDTH 687 0
DWIDTH 22 0
BBX 18 28 2 -2
BITMAP
002180
007180
006180
006380
00C300
00C300
01C700
C18600
F18600
3B8E00
1F0C00
0F0C00
079C00
07D800
06F800
0E7000
0C3800
0C7E00
186700
186380
38E1C0
30C080
30C000
71C000
618000
618000
E38000
C30000
ENDCHAR
STARTCHAR 2227
ENCODING 8743
SWIDTH 687 0
DWIDTH 22 0
BBX 17 18 2 1
BITMAP
00C000
00C000
01E000
01E000
033000
033000
061800
061800
0C0C00
0C0C00
180C00
180600
300600
300300
600300
600180
C00180
400080
ENDCHAR
STARTCHAR 2228
ENCODING 8744
SWIDTH 687 0
DWIDTH 22 0
BBX 17 18 2 1
BITMAP
400080
C00180
600180
600300
300300
300600
180600
180C00
0C0C00
0C1C00
061800
061800
033000
033000
01E000
01E000
00C000
00C000
ENDCHAR
STARTCHAR 2229
ENCODING 8745
SWIDTH 687 0
DWIDTH 22 0
BBX 16 19 3 1
BITMAP
07E0
1FF8
381C
700E
6006
C007
C003
C003
C003
C003
C003
C003
C003
C003
C003
C003
C003
C003
C003
ENDCHAR
STARTCHAR 222A
ENCODING 8746
SWIDTH 687 0
DWIDTH 22 0
BBX 16 19 3 1
BITMAP
C003
C003
C003
C003
C003
C003
C003
C003
C003
C003
C003
C003
C003
C007
6006
700E
381C
1FF8
07E0
ENDCHAR
STARTCHAR 222B
ENCODING 8747
SWIDTH 562 0
DWIDTH 18 0
BBX 16 29 1 -6
BITMAP
003C
007E
00E6
00C3
00C3
00C0
00C0
00C0
01C0
01C0
0180
0180
0180
0180
0180
0180
0180
0180
0180
0180
0380
0380
0300
0300
C300
E300
6700
7E00
3C00
ENDCHAR
STARTCHAR 222C
ENCODING 8748
SWIDTH 906 0
DWIDTH 29 0
BBX 27 29 1 -6
BITMAP
003C0780
007E0FC0
00E61CC0
00C318E0
00C31860
00C01800
00C01800
00C03800
01C03800
01C03000
01803000
01803000
01803000
01803000
01803000
01803000
01803000
01803000
01803000
01807000
03807000
03806000
03006000
03006000
C3186000
E3186000
670CC000
7E0FC000
3C078000
ENDCHAR
STARTCHAR 222E
ENCODING 8750
SWIDTH 562 0
DWIDTH 18 0
BBX 16 29 1 -6
BITMAP
003C
007E
00E6
00C3
00C3
00C0
00C0
00C0
01C0
01C0
07E0
0D90
1988
1188
1188
1188
1998
0DB0
03C0
0380
0380
0380
0300
0300
C300
E300
6700
7E00
3C00
ENDCHAR
STARTCHAR 2234
ENCODING 8756
SWIDTH 687 0
DWIDTH 22 0
BBX 17 16 2 2
BITMAP
00C000
01E000
01E000
00C000
000000
000000
000000
000000
000000
000000
000000
000000
600300
F00780
F00780
600300
ENDCHAR
STARTCHAR 2235
ENCODING 8757
SWIDTH 687 0
DWIDTH 22 0
BBX 17 16 2 2
BITMAP
600300
F00780
F00780
600300
000000
000000
000000
000000
000000
000000
000000
000000
00C000
01E000
01E000
00C000
ENDCHAR
STARTCHAR 223C
ENCODING 8764
SWIDTH 500 0
DWIDTH 16 0
BBX 10 4 3 19
BITMAP
7000
FCC0
CFC0
0780
ENDCHAR
STARTCHAR 223D
ENCODING 8765
SWIDTH 687 0
DWIDTH 22 0
BBX 19 10 1 5
BITMAP
1C0F00
7C1FC0
6038C0
C07060
C06060
C0C060
C1C060
6380C0
7F07C0
1E0780
ENDCHAR
STARTCHAR 2243
ENCODING 8771
SWIDTH 687 0
DWIDTH 22 0
BBX 18 9 2 6
BITMAP
3E00C0
7FE180
E1FF80
003E00
000000
000000
000000
FFFFC0
FFFFC0
ENDCHAR
STARTCHAR 2245
ENCODING 8773
SWIDTH 687 0
DWIDTH 22 0
BBX 18 12 2 4
BITMAP
3E0080
7FC1C0
E1FF80
803E00
000000
000000
FFFFC0
FFFFC0
000000
000000
FFFFC0
FFFFC0
ENDCHAR
STARTCHAR 2248
ENCODING 8776
SWIDTH 687 0
DWIDTH 22 0
BBX 18 10 2 4
BITMAP
3E0080
7F80C0
E3E180
C07F80
001E00
000000
3E0080
7FE1C0
E1FF80
C03E00
ENDCHAR
STARTCHAR 2252
ENCODING 8786
SWIDTH 687 0
DWIDTH 22 0
BBX 18 20 2 0
BITMAP
180000
3C0000
3C0000
180000
000000
000000
FFFFC0
FFFFC0
000000
000000
000000
000000
FFFFC0
FFFFC0
000000
000000
000600
000F00
000F00
000600
ENDCHAR
STARTCHAR 2260
ENCODING 8800
SWIDTH 687 0
DWIDTH 22 0
BBX 18 20 2 0
BITMAP
001000
001800
003000
003000
003000
006000
FFFFC0
FFFFC0
00C000
00C000
00C000
018000
FFFFC0
FFFFC0
030000
030000
030000
060000
060000
020000
ENDCHAR
STARTCHAR 2261
ENCODING 8801
SWIDTH 687 0
DWIDTH 22 0
BBX 18 12 2 4
BITMAP
FFFFC0
FFFFC0
000000
000000
000000
FFFFC0
FFFFC0
000000
000000
000000
FFFFC0
FFFFC0
ENDCHAR
STARTCHAR 2262
ENCODING 8802
SWIDTH 687 0
DWIDTH 22 0
BBX 18 20 2 0
BITMAP
001000
001800
003000
003000
FFFFC0
FFFFC0
006000
006000
00C000
FFFFC0
FFFFC0
018000
018000
018000
FFFFC0
FFFFC0
030000
060000
060000
020000
ENDCHAR
STARTCHAR 2266
ENCODING 8806
SWIDTH 687 0
DWIDTH 22 0
BBX 18 20 2 2
BITMAP
0000C0
000FC0
007E00
03F000
1F0000
F80000
E00000
7E0000
0FC000
01F800
001F80
0003C0
000000
000000
FFFFC0
FFFFC0
000000
000000
FFFFC0
FFFFC0
ENDCHAR
STARTCHAR 2267
ENCODING 8807
SWIDTH 687 0
DWIDTH 22 0
BBX 18 20 2 2
BITMAP
C00000
F80000
1F0000
03F000
007E00
0007C0
0003C0
001F80
00F800
0FC000
7E0000
F00000
800000
000000
FFFFC0
FFFFC0
000000
000000
FFFFC0
FFFFC0
ENDCHAR
STARTCHAR 226A
ENCODING 8810
SWIDTH 687 0
DWIDTH 22 0
BBX 18 18 2 2
BITMAP
002080
00E1C0
01C380
038E00
0E1C00
1C3800
38E000
61C000
C38000
E38000
70C000
387000
0E3800
071C00
038700
00E380
0061C0
002000
ENDCHAR
STARTCHAR 226B
ENCODING 8811
SWIDTH 687 0
DWIDTH 22 0
BBX 18 18 2 2
BITMAP
810000
E38000
70E000
387000
0E3800
070E00
038700
00E380
0070C0
0061C0
01C380
038E00
071C00
1C3800
38E000
71C000
C38000
010000
ENDCHAR
STARTCHAR 2276
ENCODING 8822
SWIDTH 687 0
DWIDTH 22 0
BBX 18 22 2 0
BITMAP
000040
0003C0
003F80
01F800
1F8000
F80000
F00000
3E0000
07E000
007E00
800FC0
F800C0
3F0000
03F000
003E00
0007C0
0007C0
007E00
07F000
3F0000
F80000
800000
ENDCHAR
STARTCHAR 2277
ENCODING 8823
SWIDTH 687 0
DWIDTH 22 0
BBX 18 22 2 0
BITMAP
800000
F00000
7E0000
07E000
007C00
000FC0
0003C0
003F00
03F800
1F8000
FC00C0
C007C0
007F00
03F000
3F0000
F00000
F80000
1F0000
03F000
003F00
0007C0
000040
ENDCHAR
STARTCHAR 2282
ENCODING 8834
SWIDTH 687 0
DWIDTH 22 0
BBX 18 16 2 2
BITMAP
03FFC0
1FFFC0
3C0000
700000
600000
E00000
C00000
C00000
C00000
C00000
C00000
600000
700000
3C0000
1FFFC0
07FFC0
ENDCHAR
STARTCHAR 2283
ENCODING 8835
SWIDTH 687 0
DWIDTH 22 0
BBX 18 16 2 2
BITMAP
FFF000
FFFC00
000F00
000380
000180
0001C0
0000C0
0000C0
0000C0
0000C0
0001C0
000180
000380
000F00
FFFE00
FFF800
ENDCHAR
STARTCHAR 2284
ENCODING 8836
SWIDTH 687 0
DWIDTH 22 0
BBX 18 20 2 0
BITMAP
000600
000600
03FFC0
1FFFC0
3C0C00
701800
601800
E03000
C03000
C03000
C06000
C06000
C0C000
60C000
718000
3D8000
1FFFC0
07FFC0
030000
030000
ENDCHAR
STARTCHAR 2285
ENCODING 8837
SWIDTH 687 0
DWIDTH 22 0
BBX 18 21 2 0
BITMAP
003000
003000
FFF800
FFFE00
006700
00C380
00C180
0180C0
0180C0
0180C0
0300C0
0300C0
0601C0
060180
0C0300
0C0E00
FFFC00
FFF000
180000
180000
100000
ENDCHAR
STARTCHAR 2286
ENCODING 8838
SWIDTH 687 0
DWIDTH 22 0
BBX 18 19 2 2
BITMAP
0FFFC0
1FFFC0
780000
600000
E00000
C00000
C00000
C00000
C00000
C00000
600000
780000
3FFFC0
0FFFC0
000000
000000
000000
FFFFC0
FFFFC0
ENDCHAR
STARTCHAR 2287
ENCODING 8839
SWIDTH 687 0
DWIDTH 22 0
BBX 18 19 2 2
BITMAP
FFF800
FFFE00
000700
000180
0001C0
0000C0
0000C0
0000C0
0000C0
0001C0
000180
000780
FFFF00
FFFC00
000000
000000
000000
FFFFC0
FFFFC0
ENDCHAR
STARTCHAR 228A
ENCODING 8842
SWIDTH 687 0
DWIDTH 22 0
BBX 18 22 2 -1
BITMAP
0FFFC0
1FFFC0
380000
600000
E00000
C00000
C00000
C00000
C00000
C00000
600000
780000
3FFFC0
0FFFC0
000000
002000
006000
FFFFC0
FFFFC0
018000
018000
010000
ENDCHAR
STARTCHAR 228B
ENCODING 8843
SWIDTH 687 0
DWIDTH 22 0
BBX 18 22 2 -1
BITMAP
FFF800
FFFE00
000700
000180
0001C0
0000C0
0000C0
0000C0
0000C0
0001C0
000180
000780
FFFF00
FFFC00
000000
002000
006000
FFFFC0
FFFFC0
018000
018000
010000
ENDCHAR
STARTCHAR 2295
ENCODING 8853
SWIDTH 843 0
DWIDTH 27 0
BBX 24 23 2 0
BITMAP
007E00
03FFC0
0F81E0
1E1878
38181C
30180C
60180E
601806
C01807
C01803
CFFFF3
CFFFF3
C01803
C01803
C01803
601806
701806
30180C
38181C
1C1878
0781F0
03FFC0
00FF00
ENDCHAR
STARTCHAR 2296
ENCODING 8854
SWIDTH 843 0
DWIDTH 27 0
BBX 24 23 2 0
BITMAP
007E00
03FFC0
0781E0
1E0078
38001C
30000C
60000E
600006
C00007
C00003
DFFFF3
DFFFF3
C00003
C00003
C00003
600006
700006
30000C
38001C
1C0078
0781F0
03FFC0
00FF00
ENDCHAR
STARTCHAR 2297
ENCODING 8855
SWIDTH 843 0
DWIDTH 27 0
BBX 24 23 2 0
BITMAP
007E00
03FFC0
0781E0
1E0078
38001C
3600CC
6701CE
638386
C1C707
C0EE03
C07C03
C03803
C07C03
C0EE03
C1C703
638386
7701C6
3600CC
38001C
1C0078
0781F0
03FFC0
00FF00
ENDCHAR
STARTCHAR 22A5
ENCODING 8869
SWIDTH 687 0
DWIDTH 22 0
BBX 18 20 2 2
BITMAP
00C000
00C000
00C000
00C000
00C000
00C000
00C000
00C000
00C000
00C000
00C000
00C000
00C000
00C000
00C000
00C000
00C000
00C000
FFFFC0
FFFFC0
ENDCHAR
STARTCHAR 22BF
ENCODING 8895
SWIDTH 687 0
DWIDTH 22 0
BBX 19 20 2 3
BITMAP
000020
000060
0000E0
0001E0
0001E0
000360
000660
000C60
001860
003060
006060
00C060
018060
030060
060060
0C0060
180060
300060
7FFFE0
FFFFE0
ENDCHAR
STARTCHAR 22DA
ENCODING 8922
SWIDTH 687 0
DWIDTH 22 0
BBX 18 23 2 -1
BITMAP
000040
000FC0
00FF00
1FE000
FC0000
F80000
3FC000
01FE00
000FC0
000040
000000
FFFFC0
FFFFC0
000000
800000
FC0000
1FE000
007F00
0003C0
003FC0
07F800
FF0000
E00000
ENDCHAR
STARTCHAR 22DB
ENCODING 8923
SWIDTH 687 0
DWIDTH 22 0
BBX 18 22 2 0
BITMAP
F80000
7FC000
01FE00
000FC0
0007C0
01FE00
3FE000
FC0000
800000
000000
FFFFC0
FFFFC0
000000
0000C0
001FC0
03FE00
7F8000
F00000
FE0000
07F800
003FC0
0001C0
ENDCHAR
STARTCHAR 2305
ENCODING 8965
SWIDTH 687 0
DWIDTH 22 0
BBX 18 14 2 1
BITMAP
FFFFC0
FFFFC0
01C000
01E000
036000
033000
073000
061800
061800
0C1800
0C0C00
180C00
180600
380600
ENDCHAR
STARTCHAR 2306
ENCODING 8966
SWIDTH 687 0
DWIDTH 22 0
BBX 18 19 2 0
BITMAP
FFFFC0
FFFFC0
000000
000000
FFFFC0
FFFFC0
01C000
01E000
036000
033000
033000
063800
061800
0C1800
0C0C00
1C0C00
180E00
180600
100400
ENDCHAR
STARTCHAR 2312
ENCODING 8978
SWIDTH 1000 0
DWIDTH 32 0
BBX 30 7 1 19
BITMAP
003FF000
03FFFF00
0FC00FC0
3E0001F0
70000038
C000000C
80000004
ENDCHAR
STARTCHAR 2318
ENCODING 8984
SWIDTH 1000 0
DWIDTH 32 0
BBX 28 28 2 -2
BITMAP
3E0007C0
7F000FE0
C3801C70
C1801830
C1801830
C1801830
E1801870
7FFFFFE0
3FFFFFC0
01801800
01801800
01801800
01801800
01801800
01801800
01801800
01801800
01801800
01801800
3FFFFFC0
7FFFFFE0
E1801870
C1801830
C1801830
C1801830
E3801C70
7F000FE0
3E0007C0
ENDCHAR
STARTCHAR 23BE
ENCODING 9150
SWIDTH 1000 0
DWIDTH 32 0
BBX 16 33 15 -5
BITMAP
FFFF
FFFF
8000
8000
8000
8000
8000
8000
8000
8000
8000
8000
8000
8000
8000
8000
8000
8000
8000
8000
8000
8000
8000
8000
8000
8000
8000
8000
8000
8000
8000
8000
8000
ENDCHAR
STARTCHAR 23BF
ENCODING 9151
SWIDTH 1000 0
DWIDTH 32 0
BBX 16 33 15 -4
BITMAP
8000
8000
8000
8000
8000
8000
8000
8000
8000
8000
8000
8000
8000
8000
8000
8000
8000
8000
8000
8000
8000
8000
8000
8000
8000
8000
8000
8000
8000
8000
8000
FFFF
FFFF
ENDCHAR
STARTCHAR 23C0
ENCODING 9152
SWIDTH 1000 0
DWIDTH 32 0
BBX 25 32 3 -3
BITMAP
00080000
00080000
00080000
00080000
00FF8000
0388E000
06083000
08081800
10080C00
20080600
40080300
40080100
80080100
80080080
80080080
80080080
80080080
80080080
80080080
40080100
40080100
60080300
30080600
18080C00
0C081800
06087000
01EBE000
007F0000
00080000
00080000
00080000
00080000
ENDCHAR
STARTCHAR 23C1
ENCODING 9153
SWIDTH 1000 0
DWIDTH 32 0
BBX 31 33 0 -5
BITMAP
FFFFFFFE
FFFFFFFE
00010000
00010000
00010000
001FF000
00711C00
00C10600
01010180
02010180
040100C0
08010060
08010020
10010030
10010010
10010010
10010010
10010010
10010010
10010010
08010020
08010020
0C010060
060100C0
03010180
01810300
00E10E00
003FF800
0007E000
00010000
00010000
00010000
00010000
ENDCHAR
STARTCHAR 23C2
ENCODING 9154
SWIDTH 1000 0
DWIDTH 32 0
BBX 31 33 0 -4
BITMAP
00010000
00010000
00010000
00010000
0007C000
003FF800
00E10E00
01810300
02010180
040100C0
04010040
08010060
08010020
10010030
10010010
10010010
10010010
10010010
10010010
10010030
08010020
08010060
040100C0
060101C0
03010380
01810700
00611C00
001FF000
00010000
00010000
00010000
FFFFFFFE
FFFFFFFE
ENDCHAR
STARTCHAR 23C3
ENCODING 9155
SWIDTH 1000 0
DWIDTH 32 0
BBX 27 33 2 -5
BITMAP
00040000
00040000
00040000
00040000
00040000
00040000
000E0000
001E0000
00150000
00358000
00248000
0064C000
00444000
00C42000
00842000
01041000
03041800
02040800
06040C00
04040400
08040200
08040200
10040100
30040180
20040080
40040040
7FFFFFC0
FFFFFFE0
00040000
00040000
00040000
00040000
00040000
ENDCHAR
STARTCHAR 23C4
ENCODING 9156
SWIDTH 1000 0
DWIDTH 32 0
BBX 31 32 0 -5
BITMAP
FFFFFFFE
FFFFFFFE
00010000
00010000
00010000
00010000
00038000
00038000
00054000
000D6000
00092000
00193000
00111000
00210800
00610C00
00410400
00810200
00810200
01010100
03010180
02010080
04010040
04010040
08010020
10010010
1FFFFFF0
3FFFFFF8
00010000
00010000
00010000
00010000
00010000
ENDCHAR
STARTCHAR 23C5
ENCODING 9157
SWIDTH 1000 0
DWIDTH 32 0
BBX 31 33 0 -4
BITMAP
00010000
00010000
00010000
00010000
00010000
00010000
00038000
00078000
00054000
000D6000
00092000
00193000
00111000
00310800
00210800
00410400
00C10600
00810200
01810300
01010100
02010080
02010080
04010040
0C010060
08010020
10010010
1FFFFFF0
3FFFFFF8
00010000
00010000
00010000
FFFFFFFE
FFFFFFFE
ENDCHAR
STARTCHAR 23C6
ENCODING 9158
SWIDTH 1000 0
DWIDTH 32 0
BBX 27 32 2 -3
BITMAP
00040000
00040000
00040000
00040000
00040000
00040000
00040000
00040000
00040000
00040000
00040000
00040000
1F840000
60E40000
803C0000
000C0000
00060000
00058060
0004E0C0
00041F00
00040000
00040000
00040000
00040000
00040000
00040000
00040000
00040000
00040000
00040000
00040000
00040000
ENDCHAR
STARTCHAR 23C7
ENCODING 9159
SWIDTH 1000 0
DWIDTH 32 0
BBX 31 33 0 -5
BITMAP
FFFFFFFE
FFFFFFFE
00010000
00010000
00010000
00010000
00010000
00010000
00010000
00010000
00010000
00010000
00010000
07E10000
18390000
200F0000
00030000
00018008
00016018
00013830
000107C0
00010000
00010000
00010000
00010000
00010000
00010000
00010000
00010000
00010000
00010000
00010000
00010000
ENDCHAR
STARTCHAR 23C8
ENCODING 9160
SWIDTH 1000 0
DWIDTH 32 0
BBX 31 33 0 -4
BITMAP
00010000
00010000
00010000
00010000
00010000
00010000
00010000
00010000
00010000
00010000
00010000
00010000
07C10000
18390000
300D0000
20030000
00018000
0001C008
00013830
00010FC0
00010000
00010000
00010000
00010000
00010000
00010000
00010000
00010000
00010000
00010000
00010000
FFFFFFFE
FFFFFFFE
ENDCHAR
STARTCHAR 23C9
ENCODING 9161
SWIDTH 1000 0
DWIDTH 32 0
BBX 31 33 0 -5
BITMAP
FFFFFFFE
FFFFFFFE
00010000
00010000
00010000
00010000
00010000
00010000
00010000
00010000
00010000
00010000
00010000
00010000
00010000
00010000
00010000
00010000
00010000
00010000
00010000
00010000
00010000
00010000
00010000
00010000
00010000
00010000
00010000
00010000
00010000
00010000
00010000
ENDCHAR
STARTCHAR 23CA
ENCODING 9162
SWIDTH 1000 0
DWIDTH 32 0
BBX 31 33 0 -4
BITMAP
00010000
00010000
00010000
00010000
00010000
00010000
00010000
00010000
00010000
00010000
00010000
00010000
00010000
00010000
00010000
00010000
00010000
00010000
00010000
00010000
00010000
00010000
00010000
00010000
00010000
00010000
00010000
00010000
00010000
00010000
00010000
FFFFFFFE
FFFFFFFE
ENDCHAR
STARTCHAR 23CB
ENCODING 9163
SWIDTH 1000 0
DWIDTH 32 0
BBX 16 33 1 -5
BITMAP
FFFF
FFFF
0001
0001
0001
0001
0001
0001
0001
0001
0001
0001
0001
0001
0001
0001
0001
0001
0001
0001
0001
0001
0001
0001
0001
0001
0001
0001
0001
0001
0001
0001
0001
ENDCHAR
STARTCHAR 23CC
ENCODING 9164
SWIDTH 1000 0
DWIDTH 32 0
BBX 16 33 1 -4
BITMAP
0001
0001
0001
0001
0001
0001
0001
0001
0001
0001
0001
0001
0001
0001
0001
0001
0001
0001
0001
0001
0001
0001
0001
0001
0001
0001
0001
0001
0001
0001
0001
FFFF
FFFF
ENDCHAR
STARTCHAR 23CE
ENCODING 9166
SWIDTH 1000 0
DWIDTH 32 0
BBX 27 27 2 -3
BITMAP
00007FE0
00007FE0
00006060
00006060
00006060
00006060
00006060
00006060
00106060
00306060
00706060
01F06060
03306060
063FE060
0C3FC060
18000060
70000060
C0000060
700000C0
180003C0
0C3FFF00
063FFE00
03300000
01F00000
00700000
00300000
00100000
ENDCHAR
STARTCHAR 2423
ENCODING 9251
SWIDTH 1000 0
DWIDTH 32 0
BBX 24 7 4 -1
BITMAP
C00003
C00003
C00003
C00003
C00003
FFFFFF
FFFFFF
ENDCHAR
STARTCHAR 2460
ENCODING 9312
SWIDTH 1000 0
DWIDTH 32 0
BBX 30 30 1 -3
BITMAP
001FE000
00FFF800
03F03E00
07800700
0E0001C0
1C0780C0
381F8060
303F8030
70338030
60038018
60038018
C003800C
C003800C
C003800C
C003800C
C003800C
C003800C
C003800C
C003801C
60038018
60038018
30038030
30038030
18038060
1C0380E0
0E0001C0
07800780
01E03E00
007FF800
001FE000
ENDCHAR
STARTCHAR 2461
ENCODING 9313
SWIDTH 1000 0
DWIDTH 32 0
BBX 30 30 1 -3
BITMAP
001FE000
00FFF800
03F03E00
07800700
0E07C1C0
1C1FF0C0
383C3860
30781830
70700C30
60600C18
60E00C18
C0000C0C
C000180C
C000780C
C000F00C
C003C00C
C007800C
C00E000C
C01C001C
60380018
60700018
30700030
30FFFC30
18FFFC60
1C0000E0
0E0001C0
07800780
01E03E00
007FF800
001FE000
ENDCHAR
STARTCHAR 2462
ENCODING 9314
SWIDTH 1000 0
DWIDTH 32 0
BBX 30 30 1 -3
BITMAP
001FE000
00FFF800
03F03E00
07800700
0E0F81C0
1C3FE0C0
38387060
30703830
70E01830
60E01818
60001818
C000380C
C000700C
C00FE00C
C00FE00C
C000700C
C000180C
C0000C0C
C0000C1C
60C00C18
60E00C18
30E01C30
30783830
183FF060
1C0FC0E0
0E0001C0
07800780
01E03E00
007FF800
001FE000
ENDCHAR
STARTCHAR 2463
ENCODING 9315
SWIDTH 1000 0
DWIDTH 32 0
BBX 30 30 1 -3
BITMAP
001FE000
00FFF800
03F03E00
07800700
0E0001C0
1C01E0C0
3803E060
3003E030
7007E030
600EE018
600EE018
C01CE00C
C038E00C
C070E00C
C070E00C
C0E0E00C
C1C0E00C
C180E00C
C3FFFE1C
63FFFE18
6000E018
3000E030
3000E030
1800E060
1C00E0E0
0E0001C0
07800780
01E03E00
007FF800
001FE000
ENDCHAR
STARTCHAR 2464
ENCODING 9316
SWIDTH 1000 0
DWIDTH 32 0
BBX 30 30 1 -3
BITMAP
001FE000
00FFF800
03F03E00
07800700
0E0001C0
1C3FF8C0
387FF860
30700030
70700030
60700018
60700018
C077C00C
C07FF00C
C078380C
C070180C
C0600C0C
C0000C0C
C0000C0C
C0000C1C
60000C18
60601C18
30701830
30383830
181FF060
1C0FC0E0
0E0001C0
07800780
01E03E00
007FF800
001FE000
ENDCHAR
STARTCHAR 2465
ENCODING 9317
SWIDTH 1000 0
DWIDTH 32 0
BBX 30 30 1 -3
BITMAP
001FE000
00FFF800
03F03E00
07800700
0E07C1C0
1C1FF0C0
383C7060
30383830
70701830
60600018
60600018
C0E0000C
C0E7C00C
C0EFF00C
C0F8380C
C0F0180C
C0E00C0C
C0E00C0C
C0E00C1C
60600C18
60600C18
30701830
30383830
181FF060
1C07C0E0
0E0001C0
07800780
01E03E00
007FF800
001FE000
ENDCHAR
STARTCHAR 2466
ENCODING 9318
SWIDTH 1000 0
DWIDTH 32 0
BBX 30 30 1 -3
BITMAP
001FE000
007FF800
01F03E00
03800700
0E0001C0
1C0000C0
187FFC60
307FFC30
70001C30
60003818
60003818
C000700C
C000700C
C000600C
C000E00C
C000E00C
C001C00C
C001C00C
C001801C
60038018
60038018
70070030
30070030
18070060
1C0E00E0
0E0E01C0
07800780
01E03E00
007FF800
001FE000
ENDCHAR
STARTCHAR 2467
ENCODING 9319
SWIDTH 1000 0
DWIDTH 32 0
BBX 30 30 1 -3
BITMAP
001FE000
00FFF800
03F03E00
07800700
0E0FC1C0
1C3FF0C0
38703860
30601830
70C00C30
60C00C18
60C00C18
C0E01C0C
C070380C
C03FF00C
C01FE00C
C038700C
C060180C
C0C00C0C
C0C00C1C
60C00C18
60C00C18
30E01C30
30703830
183FF060
1C0FC0E0
0E0001C0
07800780
01E03E00
007FF800
001FE000
ENDCHAR
STARTCHAR 2468
ENCODING 9320
SWIDTH 1000 0
DWIDTH 32 0
BBX 30 30 1 -3
BITMAP
001FE000
00FFF800
03F03E00
07800700
0E07C1C0
1C1FE0C0
38387060
30303830
70603830
60601818
60601C18
C0601C0C
C0601C0C
C0703C0C
C0303C0C
C0387C0C
C01FEC0C
C00F8C0C
C0001C1C
60001818
60701818
30703830
30387030
181FE060
1C0F80E0
0E0001C0
07800780
01E03E00
007FF800
001FE000
ENDCHAR
STARTCHAR 2469
ENCODING 9321
SWIDTH 1000 0
DWIDTH 32 0
BBX 31 30 0 -3
BITMAP
000FF000
007FFC00
01F01F00
03800380
0F0001C0
1CE03C60
19E0FF30
3BE0C338
72E18198
60E1818C
60E300CC
C0E300C6
C0E300C6
C0E300C6
C0E300C6
C0E300C6
C0E300C6
C0E300C6
C0E300CE
60E300CC
60E1818C
30E18198
38E0C338
18E0FF30
0CE03C60
070001C0
03800380
01F01F00
007FFC00
000FE000
ENDCHAR
STARTCHAR 246A
ENCODING 9322
SWIDTH 1000 0
DWIDTH 32 0
BBX 31 30 0 -3
BITMAP
000FE000
007FFC00
01F01F00
03800380
0F0001C0
1C700E60
18F01E30
39F03E38
71702E18
60700E0C
60700E0C
C0700E06
C0700E06
C0700E06
C0700E06
C0700E06
C0700E06
C0700E06
C0700E0E
60700E0C
60700E0C
30700E18
38700E38
18700E30
0C700E60
070001C0
03800380
01F01F00
007FFC00
000FE000
ENDCHAR
STARTCHAR 246B
ENCODING 9323
SWIDTH 1000 0
DWIDTH 32 0
BBX 31 30 0 -3
BITMAP
000FF000
007FFC00
00F01F00
03800380
070001C0
0C007C60
18E0FE30
3BE1C338
33E18198
62E3818C
60E3818C
C0E38186
C0E00386
C0E00306
C0E00706
C0E01E06
C0E03C06
C0E07806
C0E0700E
60E0E00C
60E1C00C
70E18018
38E38038
18E3FFB0
0CE3FFE0
0F0001C0
03800380
01F01F00
007FFC00
000FE000
ENDCHAR
STARTCHAR 246C
ENCODING 9324
SWIDTH 1000 0
DWIDTH 32 0
BBX 31 30 0 -3
BITMAP
000FF000
007FFC00
01F01F00
03800380
0F0001C0
1CE07C60
19E0FF30
3BE1C338
72E38198
60E3818C
60E0018C
C0E00186
C0E00306
C0E07E06
C0E07E06
C0E00706
C0E00386
C0E00186
C0E0018E
60E3018C
60E3018C
30E38398
38E1C738
18E1FE30
0CE07C60
070001C0
03800380
01F01F00
007FFC00
000FE000
ENDCHAR
STARTCHAR 246D
ENCODING 9325
SWIDTH 1000 0
DWIDTH 32 0
BBX 31 30 0 -3
BITMAP
000FF000
007FFC00
01F01F00
03800380
070001C0
0C600E60
18E01E30
3BE01E38
33E03E18
60E07E0C
60E06E0C
C0E0EE06
C0E0CE06
C0E1CE06
C0E18E06
C0E38E06
C0E30E06
C0E60E06
C0E7FFCE
60E7FFCC
60E00E0C
30E00E18
38E00E38
18E00E30
0CE00E60
0F0001C0
03800380
01F01F00
007FFC00
000FE000
ENDCHAR
STARTCHAR 246E
ENCODING 9326
SWIDTH 1000 0
DWIDTH 32 0
BBX 31 30 0 -3
BITMAP
000FF000
007FFC00
01F01F00
03800380
070001C0
0CE1FF60
19E1FF30
3BE18038
72E18018
60E1800C
60E1800C
C0E3BC06
C0E3FE06
C0E3C706
C0E38306
C0E00186
C0E00186
C0E00186
C0E0018E
60E3018C
60E3038C
30E38318
38E1C738
18E0FE30
0CE07860
070001C0
03800380
01F01F00
007FFC00
000FE000
ENDCHAR
STARTCHAR 246F
ENCODING 9327
SWIDTH 1000 0
DWIDTH 32 0
BBX 31 30 0 -3
BITMAP
000FF000
007FFC00
01F01F00
03800380
0F0001C0
1CE03C60
19E07F30
3BE0C738
72E1C398
60E1838C
60E1800C
C0E30006
C0E33C06
C0E37E06
C0E3C706
C0E38386
C0E30186
C0E30186
C0E3018E
60E3018C
60E1018C
30E18318
38E1C738
18E0FE30
0CE07C60
070001C0
03800380
01F01F00
007FFC00
000FE000
ENDCHAR
STARTCHAR 2470
ENCODING 9328
SWIDTH 1000 0
DWIDTH 32 0
BBX 31 30 1 -3
BITMAP
000FE000
007FFC00
01F01F00
07800380
0F0001C0
1CE3FFE0
19E3FFB0
3BE00338
72E00718
60E0060C
60E00E0C
C0E00E06
C0E00C06
C0E01C06
C0E01806
C0E01806
C0E03806
C0E03806
C0E0300E
60E0700C
60E0700C
30E07018
38E06038
18E0E030
0C000060
070001C0
03800380
01F01F00
007FFC00
000FE000
ENDCHAR
STARTCHAR 2471
ENCODING 9329
SWIDTH 1000 0
DWIDTH 32 0
BBX 31 30 0 -3
BITMAP
000FF000
007FFC00
01F01F00
03800380
0F0001C0
1CE07C60
19E1FE30
3BE18338
72E30198
60E3018C
60E3018C
C0E30386
C0E1C706
C0E0FE06
C0E0FE06
C0E38706
C0E30306
C0E60186
C0E6018E
60E6018C
60E6018C
30E70398
38E38738
18E1FE30
0CE0FC60
070001C0
03800380
01F01F00
007FFC00
000FE000
ENDCHAR
STARTCHAR 2472
ENCODING 9330
SWIDTH 1000 0
DWIDTH 32 0
BBX 31 30 0 -3
BITMAP
000FF000
007FFC00
01F01F00
03800380
0F0001C0
1CE07C60
19E0FE30
3BE1C738
72E38318
60E3010C
60E3018C
C0E30186
C0E30186
C0E38386
C0E1C786
C0E0FF86
C0E07986
C0E00186
C0E0018E
60E0030C
60E3830C
30E18318
38E1C638
18E0FC30
0CE07860
070001C0
03800380
01F01F00
007FFC00
000FE000
ENDCHAR
STARTCHAR 2473
ENCODING 9331
SWIDTH 1000 0
DWIDTH 32 0
BBX 30 30 1 -3
BITMAP
001FE000
007FF800
01F03E00
03800700
060001C0
0C781CC0
19FC3E60
318E6330
33866330
63066198
6306C198
C306C18C
C00EC18C
C00CC18C
C01CC18C
C038C18C
C070C18C
C0E0C18C
C0C0C19C
61C0C198
6180C198
738063B0
33806330
1BFE6360
1FFE3EE0
0E001DC0
07800780
01E03E00
00FFF800
001FE000
ENDCHAR
STARTCHAR 24D0
ENCODING 9424
SWIDTH 1000 0
DWIDTH 32 0
BBX 30 30 1 -3
BITMAP
001FE000
00FFF800
03F03E00
07800700
0E000180
1C0000C0
38000060
30000030
700F8030
603FE018
60386018
C070700C
C000300C
C000F00C
C01FF00C
C03C300C
C070300C
C060300C
C060701C
6070F018
603FBC18
301E1C30
30000030
18000060
1C0000E0
0E0001C0
07800780
01E03E00
007FF800
001FE000
ENDCHAR
STARTCHAR 24D1
ENCODING 9425
SWIDTH 1000 0
DWIDTH 32 0
BBX 31 30 1 -3
BITMAP
001FE000
007FFC00
01F01F00
07800380
0F0001C0
1C380060
18380030
38380038
70380018
6038000C
6039F00C
C03BF806
C03E1C06
C03C0C06
C03C0606
C0380606
C0380606
C0380606
C038060E
603C0E0C
603C0C0C
303E1C18
383BF838
1801F030
0C000060
070001C0
03800380
01F01F00
007FFC00
000FE000
ENDCHAR
STARTCHAR 24D2
ENCODING 9426
SWIDTH 1000 0
DWIDTH 32 0
BBX 30 30 1 -3
BITMAP
001FE000
00FFF800
03F03E00
07800700
0E0001C0
1C0000C0
38000060
30000030
7007C030
601FE018
60387018
C030380C
C070380C
C060000C
C060000C
C060000C
C060000C
C060380C
C030381C
60387018
601FE018
3007C030
30000030
18000060
1C0000E0
0E0001C0
07800780
01E03E00
007FF800
001FE000
ENDCHAR
STARTCHAR 24D3
ENCODING 9427
SWIDTH 1000 0
DWIDTH 32 0
BBX 31 30 0 -3
BITMAP
001FE000
00FFFC00
03F01F00
07800380
0F0001C0
1C003860
38003830
38003838
70003818
6000380C
601F380C
C03FB806
C070F806
C0607806
C0C07806
C0C03806
C0C03806
C0C03806
C0C0380E
60C0780C
6060780C
3070F818
383FB838
181F0030
0C000060
070001C0
03800380
01F01F00
007FFC00
000FE000
ENDCHAR
STARTCHAR 24D4
ENCODING 9428
SWIDTH 1000 0
DWIDTH 32 0
BBX 30 31 1 -4
BITMAP
001FE000
007FF800
01F03E00
03800700
07000380
0C0000C0
18000060
38000070
30000030
6007C018
601FE018
E0387018
C030380C
C060180C
C07FF80C
C07FF80C
C060000C
C060000C
C030180C
E0387818
601FF018
6007C018
30000030
38000070
18000060
0C0000C0
0F000380
03800700
01E03E00
007FF800
001FE000
ENDCHAR
STARTCHAR 24D5
ENCODING 9429
SWIDTH 1000 0
DWIDTH 32 0
BBX 31 30 1 -3
BITMAP
001FE000
007FFC00
01F01F00
07800380
0F0001C0
1C000060
1803F030
3807F038
70070018
6007000C
6007000C
C0070006
C07FF006
C07FF006
C0070006
C0070006
C0070006
C0070006
C007000E
6007000C
6007000C
30070018
38070038
18070030
0C070060
0F0001C0
03800380
01F01F00
007FFC00
000FE000
ENDCHAR
STARTCHAR 24D6
ENCODING 9430
SWIDTH 1000 0
DWIDTH 32 0
BBX 30 30 1 -3
BITMAP
001FE000
00FFF800
01F03E00
07800780
0E0001C0
1C0000E0
18000060
300F9830
701FF830
60387818
60703818
C060180C
C060180C
C060180C
C070380C
C038780C
C01FD80C
C00F980C
C000181C
60303818
60383018
301FF030
300FC030
18000060
1C0000E0
0E0001C0
07800780
01E03E00
007FF800
001FE000
ENDCHAR
STARTCHAR 24D7
ENCODING 9431
SWIDTH 1000 0
DWIDTH 32 0
BBX 30 30 1 -3
BITMAP
001FE000
00FFF800
03F03E00
07800700
0E0001C0
1C3800C0
38380060
30380030
70380030
60380018
60380018
C039E00C
C03FF00C
C03E780C
C03C380C
C038380C
C038380C
C038380C
C038381C
60383818
60383818
30383830
30383830
18383860
1C0000E0
0E0001C0
07800780
01E03E00
007FF800
001FE000
ENDCHAR
STARTCHAR 24D8
ENCODING 9432
SWIDTH 1000 0
DWIDTH 32 0
BBX 31 30 1 -3
BITMAP
001FE000
007FFC00
01F01F00
07800380
0F0001C0
1C000060
18038030
38038038
70000018
6000000C
6000000C
C0038006
C0038006
C0038006
C0038006
C0038006
C0038006
C0038006
C003800E
6003800C
6003800C
30038018
38038038
18038030
0C000060
070001C0
03800380
01F01F00
007FFC00
000FE000
ENDCHAR
STARTCHAR 24D9
ENCODING 9433
SWIDTH 1000 0
DWIDTH 32 0
BBX 31 30 1 -3
BITMAP
001FE000
00FFFC00
01F01F00
0781C380
0F01C1C0
1C01C060
18000030
38000038
70000018
6001C00C
6001C00C
C001C006
C001C006
C001C006
C001C006
C001C006
C001C006
C001C006
C001C00E
6001C00C
6001C00C
3001C018
3801C038
1801C030
0C1FC060
071F81C0
03800380
01F01F00
007FFC00
000FE000
ENDCHAR
STARTCHAR 24DA
ENCODING 9434
SWIDTH 1000 0
DWIDTH 32 0
BBX 31 30 1 -3
BITMAP
001FE000
00FFFC00
03F01F00
07800380
0F0001C0
1C380060
38380030
38380038
70380018
6038000C
6038000C
C0383806
C0387006
C038E006
C039C006
C03B8006
C03FC006
C03EC006
C03CE00E
6038700C
6038380C
30381C18
38380E38
18380E30
0C000060
070001C0
03800380
01F01F00
007FFC00
000FE000
ENDCHAR
STARTCHAR 24DB
ENCODING 9435
SWIDTH 1000 0
DWIDTH 32 0
BBX 31 30 1 -3
BITMAP
001FE000
007FFC00
01F01F00
07800380
0F0001C0
1C000060
18038030
38038038
70038018
6003800C
6003800C
C0038006
C0038006
C0038006
C0038006
C0038006
C0038006
C0038006
C003800E
6003800C
6003800C
30038018
38038038
18038030
0C000060
070001C0
03800380
01F01F00
007FFC00
000FE000
ENDCHAR
STARTCHAR 24DC
ENCODING 9436
SWIDTH 1000 0
DWIDTH 32 0
BBX 30 30 1 -3
BITMAP
001FE000
00FFF800
03F03E00
07800700
0E0001C0
1C0000C0
38000060
30000030
718E3C30
61FF7C18
61E7CE18
C1E38E0C
C1C38E0C
C1C38E0C
C1C38E0C
C1C38E0C
C1C38E0C
C1C38E0C
C1C38E1C
61C38E18
61C38E18
30000030
30000030
18000060
1C0000E0
0E0001C0
07800780
01E03E00
007FF800
001FE000
ENDCHAR
STARTCHAR 24DD
ENCODING 9437
SWIDTH 1000 0
DWIDTH 32 0
BBX 30 30 1 -3
BITMAP
001FE000
00FFF800
03F03E00
07800700
0E000180
1C0000C0
38000060
30000030
7063E030
6077F018
607C7818
C078380C
C070380C
C070380C
C070380C
C070380C
C070380C
C070380C
C070381C
60703818
60703818
30000030
30000030
18000060
1C0000E0
0E0001C0
07800780
01E03E00
007FF800
001FE000
ENDCHAR
STARTCHAR 24DE
ENCODING 9438
SWIDTH 1000 0
DWIDTH 32 0
BBX 30 30 1 -3
BITMAP
001FE000
00FFF800
03F03E00
07800700
0E0001C0
1C0000C0
38000060
30000030
70078030
601FE018
60387018
C030300C
C070380C
C060180C
C060180C
C060180C
C060180C
C060380C
C030301C
60387018
601FE018
30078030
30000030
18000060
1C0000E0
0E0001C0
07800780
01E03E00
007FF800
001FE000
ENDCHAR
STARTCHAR 24DF
ENCODING 9439
SWIDTH 1000 0
DWIDTH 32 0
BBX 31 30 1 -3
BITMAP
001FE000
007FFC00
01F01F00
07800380
0F0001C0
1C000060
18000030
3831F038
703BF818
603F0C0C
603C060C
C0380306
C0380306
C0380306
C0380306
C0380306
C03C0606
C03E0E06
C03FFC0E
6039F00C
6038000C
30380018
38380038
18380030
0C000060
070001C0
03800380
01F01F00
007FFC00
000FE000
ENDCHAR
STARTCHAR 24E0
ENCODING 9440
SWIDTH 1000 0
DWIDTH 32 0
BBX 31 30 0 -3
BITMAP
001FE000
00FFFC00
03F01F00
07800380
0F0001C0
1C000060
38000030
381E1838
707FB818
60E0F80C
60C0780C
C1803806
C1803806
C1803806
C1803806
C1803806
C0C07806
C0E0F806
C07FF80E
601F380C
6000380C
30003818
38003838
18003830
0C000060
070001C0
03800380
01F01F00
007FFC00
000FE000
ENDCHAR
STARTCHAR 24E1
ENCODING 9441
SWIDTH 1000 0
DWIDTH 32 0
BBX 31 30 0 -3
BITMAP
000FF000
007FFC00
01F01F00
03800380
070001C0
0C000060
18000030
38000038
70000018
60071C0C
60073C0C
C0077806
C007C006
C0078006
C0070006
C0070006
C0070006
C0070006
C007000E
6007000C
6007000C
30070018
38000038
18000030
0C000060
070001C0
03800380
01F01F00
007FFC00
000FE000
ENDCHAR
STARTCHAR 24E2
ENCODING 9442
SWIDTH 1000 0
DWIDTH 32 0
BBX 30 30 1 -3
BITMAP
001FE000
00FFF800
03F03E00
07800700
0E0001C0
1C0000C0
38000060
30000030
700F8030
601FE018
60386018
C030700C
C030000C
C01C000C
C00F800C
C001E00C
C000700C
C070300C
C030301C
60387018
601FE018
300FC030
30000030
18000060
1C0000E0
0E0001C0
07800780
01E03E00
007FF800
001FE000
ENDCHAR
STARTCHAR 24E3
ENCODING 9443
SWIDTH 1000 0
DWIDTH 32 0
BBX 31 31 1 -3
BITMAP
000FE000
007FFC00
01F01F00
03800380
070001C0
0E0000E0
1C000070
38000038
30070018
6007000C
6007000C
603FE00C
C03FE006
C0070006
C0070006
C0070006
C0070006
C0070006
C0070006
E007000C
6007000C
6007000C
3007F018
3803F038
18000070
0C0000E0
070001C0
03800380
01F01F00
007FFC00
000FE000
ENDCHAR
STARTCHAR 24E4
ENCODING 9444
SWIDTH 1000 0
DWIDTH 32 0
BBX 30 30 1 -3
BITMAP
001FE000
00FFF800
03F03E00
07800700
0E000180
1C0000C0
38000060
30000030
70703830
60703818
60703818
C070380C
C070380C
C070380C
C070380C
C070380C
C070380C
C070380C
C070781C
6038F818
603FB818
301F0030
30000030
18000060
1C0000E0
0E0001C0
07800780
01E03E00
007FF800
001FE000
ENDCHAR
STARTCHAR 24E5
ENCODING 9445
SWIDTH 1000 0
DWIDTH 32 0
BBX 30 30 1 -3
BITMAP
001FE000
00FFF800
03F03E00
07800700
0E0001C0
1C0000C0
38000060
30000030
70000030
60C01C18
60E01C18
C060180C
C070380C
C030300C
C038700C
C018600C
C01CE00C
C00CC00C
C00CC01C
600FC018
60078018
30078030
30000030
18000060
1C0000E0
0E0001C0
07800780
01E03E00
007FF800
001FE000
ENDCHAR
STARTCHAR 24E6
ENCODING 9446
SWIDTH 1000 0
DWIDTH 32 0
BBX 30 30 1 -3
BITMAP
001FE000
00FFF800
03F03E00
07800700
0E0001C0
1C0000C0
38000060
30000030
70000030
67030398
67078398
C307830C
C387870C
C18F860C
C18CC60C
C1CCCE0C
C0CCCC0C
C0D86C0C
C0D87C1C
60787818
60787818
30703830
30000030
18000060
1C0000E0
0E0001C0
07800780
01E03E00
007FF800
001FE000
ENDCHAR
STARTCHAR 24E7
ENCODING 9447
SWIDTH 1000 0
DWIDTH 32 0
BBX 30 31 1 -3
BITMAP
001FE000
007FF800
01F03E00
03800700
07000380
0C0000C0
18000060
38000070
30000030
60E03C18
60703818
E0387018
C01CE00C
C00FC00C
C007800C
C007800C
C00FC00C
C01CC00C
C01CE00C
E0387018
60703818
60E01C18
30000030
38000070
18000060
0C0000C0
0F000380
03800700
01E03E00
007FF800
001FE000
ENDCHAR
STARTCHAR 24E8
ENCODING 9448
SWIDTH 1000 0
DWIDTH 32 0
BBX 30 30 1 -3
BITMAP
001FE000
00FFF800
03F03E00
07800700
0E0001C0
1C0000C0
38000060
30600E30
70700C30
60301C18
60381818
C018380C
C01C300C
C00C700C
C00E600C
C006E00C
C007C00C
C003C00C
C003801C
60038018
60030018
30070030
307E0030
187C0060
1C0000E0
0E0001C0
07800780
01E03E00
007FF800
001FE000
ENDCHAR
STARTCHAR 24E9
ENCODING 9449
SWIDTH 1000 0
DWIDTH 32 0
BBX 30 31 1 -3
BITMAP
001FE000
007FF800
01F03E00
03800700
07000380
0C0000C0
18000060
38000070
30000030
607FF818
607FF818
E0007018
C000E00C
C001C00C
C003800C
C007000C
C00E000C
C01C000C
C038000C
E0700018
607FF818
607FF818
30000030
38000070
18000060
0C0000C0
0F000380
03800700
01E03E00
007FF800
001FE000
ENDCHAR
STARTCHAR 24EB
ENCODING 9451
SWIDTH 1000 0
DWIDTH 32 0
BBX 30 30 1 -3
BITMAP
001FE000
00FFF800
01FFFE00
07FFFF80
0FFFFFC0
1F3FF1C0
1E3FE1E0
3C3FC1F0
7D3FD1F0
7F3FF1F8
7F3FF1F8
FF3FF1FC
FF3FF1FC
FF3FF1FC
FF3FF1FC
FF3FF1FC
FF3FF1FC
FF3FF1FC
FF3FF1FC
7F3FF1F8
7F3FF1F8
3F3FF1F0
3F3FF1F0
1F3FF1E0
1F3FF1E0
0FFFFFC0
07FFFF80
01FFFE00
007FF800
001FE000
ENDCHAR
STARTCHAR 24EC
ENCODING 9452
SWIDTH 1000 0
DWIDTH 32 0
BBX 30 31 1 -3
BITMAP
001FE000
007FF800
01FFFE00
03FFFF00
07FFFF80
0FFF83C0
1E3F01E0
383E38F0
383C7C70
7A3C7C78
7E3CFC78
FE3CFC78
FE3FF87C
FE3FF8FC
FE3FF0FC
FE3FE1FC
FE3FC3FC
FE3F87FC
FE3F1FFC
FE3F3FF8
7E3E3FF8
7E3E7FF8
3E3C7FF0
3E3C00F0
1E3C00E0
0E3C00C0
0FFFFF80
03FFFF00
01FFFE00
007FF800
001FE000
ENDCHAR
STARTCHAR 24ED
ENCODING 9453
SWIDTH 1000 0
DWIDTH 32 0
BBX 30 30 1 -3
BITMAP
001FE000
00FFF800
03FFFE00
07FFFF00
0FFFFFC0
1E3F83C0
3C3E01E0
383C78F0
7A3CFCF0
7E3CFCF8
7E3FFCF8
FE3FFCFC
FE3FF9FC
FE3F83FC
FE3F83FC
FE3FF0FC
FE3FF8FC
FE3FFC7C
FE3FFC7C
7E38FC78
7E3CFC78
3E3CF870
3E3C78F0
1E3E01E0
1E3F03E0
0FFFFFC0
07FFFF80
01FFFE00
007FF800
001FE000
ENDCHAR
STARTCHAR 24EE
ENCODING 9454
SWIDTH 1000 0
DWIDTH 32 0
BBX 30 30 1 -3
BITMAP
001FE000
00FFF800
01FFFE00
07FFFF00
0FFFFFC0
1F3FF1C0
1E3FE1E0
383FC1F0
783FC1F0
7E3F81F8
7E3F91F8
FE3F11FC
FE3F31FC
FE3E31FC
FE3C71FC
FE3CF1FC
FE38F1FC
FE39F1FC
FE30003C
7E300038
7E3FF1F8
7E3FF1F0
3E3FF1F0
1E3FF1E0
1E3FF1E0
0FFFFFC0
07FFFF80
01FFFE00
007FF800
001FE000
ENDCHAR
STARTCHAR 24EF
ENCODING 9455
SWIDTH 1000 0
DWIDTH 32 0
BBX 30 30 1 -3
BITMAP
001FE000
00FFF800
03FFFE00
07FFFF00
0FFFFFC0
1E3C00C0
3C3C00E0
383C7FF0
7A3C7FF0
7E3C7FF8
7E3C7FF8
FE3CC3FC
FE3C81FC
FE3C70FC
FE3CF8FC
FE3FFC7C
FE3FFC7C
FE3FFC7C
FE3FFC7C
7E38FC78
7E3CFC78
3E3CF8F0
3E3C70F0
1E3E01E0
1E3F87E0
0FFFFFC0
07FFFF80
01FFFE00
007FF800
001FE000
ENDCHAR
STARTCHAR 24F0
ENCODING 9456
SWIDTH 1000 0
DWIDTH 32 0
BBX 30 30 1 -3
BITMAP
001FE000
00FFF800
03FFFE00
07FFFF00
0FFFFFC0
1E3F83C0
3C3F01E0
383E38F0
7A3C7CF0
7E3C7C78
7E3CFFF8
FE38FFFC
FE38C3FC
FE3881FC
FE3830FC
FE38787C
FE38FC7C
FE38FC7C
FE38FC7C
7E38FC78
7E3CFC78
3E3C78F0
3E3C38F0
1E3E01E0
1E3F87E0
0FFFFFC0
07FFFF80
01FFFE00
007FF800
001FE000
ENDCHAR
STARTCHAR 24F1
ENCODING 9457
SWIDTH 1000 0
DWIDTH 32 0
BBX 30 30 1 -3
BITMAP
001FE000
00FFF800
03FFFE00
07FFFF00
0FFFFF80
1E3800C0
3C3800E0
383FF8F0
7A3FF9F0
7E3FF9F8
7E3FF1F8
FE3FF3FC
FE3FE3FC
FE3FE7FC
FE3FE7FC
FE3FC7FC
FE3FCFFC
FE3FCFFC
FE3F8FFC
7E3F8FF8
7E3F9FF8
3E3F1FF0
3E3F1FF0
1E3F1FE0
1FFFFFE0
0FFFFFC0
07FFFF80
01FFFE00
007FF800
001FE000
ENDCHAR
STARTCHAR 24F2
ENCODING 9458
SWIDTH 1000 0
DWIDTH 32 0
BBX 30 30 1 -3
BITMAP
001FE000
00FFF800
03FFFE00
07FFFF00
0FFFFFC0
1E3F87C0
3C3E01E0
383E79F0
7A3CFCF0
7E3CFCF8
7E3CFCF8
FE3CFCFC
FE3E79FC
FE3F03FC
FE3E01FC
FE3C78FC
FE3CFCFC
FE39FE7C
FE39FE7C
7E39FE78
7E39FE78
3E38FC70
3E3C78F0
1E3E01E0
1E3F03E0
0FFFFFC0
07FFFF80
01FFFE00
007FF800
001FE000
ENDCHAR
STARTCHAR 24F3
ENCODING 9459
SWIDTH 1000 0
DWIDTH 32 0
BBX 30 30 1 -3
BITMAP
001FE000
00FFF800
03FFFE00
07FFFF00
0FFFFFC0
1E3F83C0
3C3F01E0
383E78F0
7A3C78F0
7E3CFCF8
7E3CFC78
FE3CFC7C
FE3CFC7C
FE3C787C
FE3E787C
FE3E027C
FE3F847C
FE3FFC7C
FE3FFC7C
7E3FFCF8
7E3CFCF8
3E3C78F0
3E3E71F0
1E3E03E0
1E3F87E0
0FFFFFC0
07FFFF80
01FFFE00
007FF800
001FE000
ENDCHAR
STARTCHAR 24F4
ENCODING 9460
SWIDTH 1000 0
DWIDTH 32 0
BBX 30 31 1 -3
BITMAP
001FE000
007FF800
01FFFE00
03FFFF00
07FFFF80
0F0FE1C0
1E07C0E0
3C038070
3C638C70
78F38E78
78F31E38
79F31E38
FFF31E3C
FFE71E3C
FFE71E3C
FFCF1E3C
FF9F1E3C
FF3F1E3C
FF3F1E3C
FE7F1E38
7E7F1E38
7CFF1E78
3CFF8C70
3C038C70
180380E0
0803C1C0
0FFFE380
03FFFF00
01FFFE00
007FF800
001FE000
ENDCHAR
STARTCHAR 24F5
ENCODING 9461
SWIDTH 1000 0
DWIDTH 32 0
BBX 30 30 1 -3
BITMAP
001FC000
00E01800
01800600
060FC100
0C703880
18C00C40
11030220
22070110
641F0090
4C1F0048
48030048
98030064
90030024
90030024
90030024
90030024
90030024
90030024
9803004C
48030048
4C0300D8
64030090
22030130
11030220
18C00440
0C703880
060FE300
01800600
00E03800
001FE000
ENDCHAR
STARTCHAR 24F6
ENCODING 9462
SWIDTH 1000 0
DWIDTH 32 0
BBX 30 30 1 -3
BITMAP
001FE000
00601C00
01800600
060FC180
0C7038C0
18C00C60
1107C220
221FE110
64383090
4C301848
48701848
98701864
90003824
90007024
9000F024
9003C024
90078024
900E0024
981C0044
48380048
4C3000C8
647FF898
227FF910
11000230
18C00460
0C7038C0
060FE180
01800700
00E01C00
001FE000
ENDCHAR
STARTCHAR 24F7
ENCODING 9463
SWIDTH 1000 0
DWIDTH 32 0
BBX 30 30 1 -3
BITMAP
001FE000
00601C00
01800600
060FC180
0C7038C0
18C00C60
1107C220
221FF110
64383090
4C701848
48701848
98001864
90003024
9001F024
900F8024
900FF024
90001824
90000C24
98000C44
48600C48
4C701CC8
64783898
223FF110
110FC230
18C00460
0C7038C0
060FE180
01800700
00E01C00
001FE000
ENDCHAR
STARTCHAR 24F8
ENCODING 9464
SWIDTH 1000 0
DWIDTH 32 0
BBX 30 30 1 -3
BITMAP
001FE000
00E01800
01800600
061FC100
0CE03080
19800C40
1200C220
2401C110
6803C090
5807C0C8
5006C048
B00EC044
A01CC024
A038C024
A030C024
A060C024
A0E0C024
A1C0C024
B1FFFC4C
51FFFC48
5800C0C8
6800C098
2400C110
1200C220
19800C60
0CE038C0
061FC180
01800600
00E03C00
001FE000
ENDCHAR
STARTCHAR 24F9
ENCODING 9465
SWIDTH 1000 0
DWIDTH 32 0
BBX 30 30 1 -3
BITMAP
001FE000
00601800
01800600
060FC100
0C703880
18C00C40
11000220
223FF110
643FF090
4C300048
48300048
98300064
9033C024
903FE024
90387024
90303824
90001824
90001824
98001844
48001848
4C3038C8
64387098
221FE110
110FC230
18C00460
0C7038C0
060FE180
01800700
00E01C00
001FE000
ENDCHAR
STARTCHAR 24FA
ENCODING 9466
SWIDTH 1000 0
DWIDTH 32 0
BBX 30 30 1 -3
BITMAP
001FE000
00601C00
01800600
060FC180
0C7038C0
18C00C60
1107C220
220FE110
641C7090
4C383048
48303848
98700064
90600024
9067C024
906FE024
90787024
90703824
90601824
98601844
48201848
4C3038C8
64387098
221FE110
1107C230
18C00460
0C7038C0
060FE180
01800700
00E01C00
001FE000
ENDCHAR
STARTCHAR 24FB
ENCODING 9467
SWIDTH 1000 0
DWIDTH 32 0
BBX 30 30 1 -3
BITMAP
001FE000
00601C00
018FC700
06703980
0CC00CC0
19000260
12000130
247FF890
6C7FF8D8
48003848
48003048
90007024
90006024
9000E024
9000C024
9001C024
9001C024
90018024
8803804C
48030048
4C0700C8
64070098
22060110
110E0220
18C00C60
0C7038C0
060FC180
01800600
00E03C00
001FE000
ENDCHAR
STARTCHAR 24FC
ENCODING 9468
SWIDTH 1000 0
DWIDTH 32 0
BBX 30 30 1 -3
BITMAP
001FE000
00601C00
01800600
060FC180
0C7038C0
18C00C60
110FC220
221FE110
64387090
4C603848
48601848
98601864
90603824
90307024
901FE024
903FF024
90707824
90E01C24
98C00C44
48C00C48
4CC01CC8
64703898
223FF110
110FC230
18C00460
0C7038C0
060FE180
01800700
00E01C00
001FE000
ENDCHAR
STARTCHAR 24FD
ENCODING 9469
SWIDTH 1000 0
DWIDTH 32 0
BBX 30 30 1 -3
BITMAP
001FE000
00601C00
01800600
060FC180
0C7038C0
18C00C60
11078220
220FE110
641C7090
4C383048
48301048
98301864
90301824
90301824
90383824
901C7824
900FD824
90079824
98001844
48303048
4C3030C8
64386098
221FE110
110F8230
18C00460
0C7038C0
060FE180
01800700
00E01C00
001FE000
ENDCHAR
STARTCHAR 24FE
ENCODING 9470
SWIDTH 1000 0
DWIDTH 32 0
BBX 30 30 1 -3
BITMAP
001FE000
00E01800
01800600
061FC100
0CE03080
19800C40
12000220
2460F110
68E1F890
59E39CC8
51630C48
B0660644
A0660624
A0660624
A0660624
A0660624
A0660624
A0660624
B066064C
50630C48
58639CD8
4861F890
2460F130
12000220
11800C40
08E03880
061FC300
01000600
00E03800
001FE000
ENDCHAR
STARTCHAR 2500
ENCODING 9472
SWIDTH 1000 0
DWIDTH 32 0
BBX 32 1 0 12
BITMAP
FFFFFFFF
ENDCHAR
STARTCHAR 2501
ENCODING 9473
SWIDTH 1000 0
DWIDTH 32 0
BBX 32 4 0 10
BITMAP
FFFFFFFF
FFFFFFFF
FFFFFFFF
FFFFFFFF
ENDCHAR
STARTCHAR 2502
ENCODING 9474
SWIDTH 1000 0
DWIDTH 32 0
BBX 1 32 15 -3
BITMAP
80
80
80
80
80
80
80
80
80
80
80
80
80
80
80
80
80
80
80
80
80
80
80
80
80
80
80
80
80
80
80
80
ENDCHAR
STARTCHAR 2503
ENCODING 9475
SWIDTH 1000 0
DWIDTH 32 0
BBX 4 32 14 -4
BITMAP
F0
F0
F0
F0
F0
F0
F0
F0
F0
F0
F0
F0
F0
F0
F0
F0
F0
F0
F0
F0
F0
F0
F0
F0
F0
F0
F0
F0
F0
F0
F0
F0
ENDCHAR
STARTCHAR 250C
ENCODING 9484
SWIDTH 1000 0
DWIDTH 32 0
BBX 16 16 15 -4
BITMAP
FFFF
8000
8000
8000
8000
8000
8000
8000
8000
8000
8000
8000
8000
8000
8000
8000
ENDCHAR
STARTCHAR 250F
ENCODING 9487
SWIDTH 1000 0
DWIDTH 32 0
BBX 18 18 14 -4
BITMAP
FFFFC0
FFFFC0
FFFFC0
FFFFC0
F00000
F00000
F00000
F00000
F00000
F00000
F00000
F00000
F00000
F00000
F00000
F00000
F00000
F00000
ENDCHAR
STARTCHAR 2510
ENCODING 9488
SWIDTH 1000 0
DWIDTH 32 0
BBX 16 16 1 -4
BITMAP
FFFF
0001
0001
0001
0001
0001
0001
0001
0001
0001
0001
0001
0001
0001
0001
0001
ENDCHAR
STARTCHAR 2513
ENCODING 9491
SWIDTH 1000 0
DWIDTH 32 0
BBX 18 18 0 -4
BITMAP
FFFFC0
FFFFC0
FFFFC0
FFFFC0
0003C0
0003C0
0003C0
0003C0
0003C0
0003C0
0003C0
0003C0
0003C0
0003C0
0003C0
0003C0
0003C0
0003C0
ENDCHAR
STARTCHAR 2514
ENCODING 9492
SWIDTH 1000 0
DWIDTH 32 0
BBX 16 16 15 13
BITMAP
8000
8000
8000
8000
8000
8000
8000
8000
8000
8000
8000
8000
8000
8000
8000
FFFF
ENDCHAR
STARTCHAR 2517
ENCODING 9495
SWIDTH 1000 0
DWIDTH 32 0
BBX 18 18 14 10
BITMAP
F00000
F00000
F00000
F00000
F00000
F00000
F00000
F00000
F00000
F00000
F00000
F00000
F00000
F00000
FFFFC0
FFFFC0
FFFFC0
FFFFC0
ENDCHAR
STARTCHAR 2518
ENCODING 9496
SWIDTH 1000 0
DWIDTH 32 0
BBX 16 16 1 13
BITMAP
0001
0001
0001
0001
0001
0001
0001
0001
0001
0001
0001
0001
0001
0001
0001
FFFF
ENDCHAR
STARTCHAR 251B
ENCODING 9499
SWIDTH 1000 0
DWIDTH 32 0
BBX 18 18 0 10
BITMAP
0003C0
0003C0
0003C0
0003C0
0003C0
0003C0
0003C0
0003C0
0003C0
0003C0
0003C0
0003C0
0003C0
0003C0
FFFFC0
FFFFC0
FFFFC0
FFFFC0
ENDCHAR
STARTCHAR 251C
ENCODING 9500
SWIDTH 1000 0
DWIDTH 32 0
BBX 16 31 15 -3
BITMAP
8000
8000
8000
8000
8000
8000
8000
8000
8000
8000
8000
8000
8000
8000
8000
FFFF
8000
8000
8000
8000
8000
8000
8000
8000
8000
8000
8000
8000
8000
8000
8000
ENDCHAR
STARTCHAR 251D
ENCODING 9501
SWIDTH 1000 0
DWIDTH 32 0
BBX 17 32 15 -4
BITMAP
800000
800000
800000
800000
800000
800000
800000
800000
800000
800000
800000
800000
800000
800000
FFFF80
FFFF80
FFFF80
FFFF80
800000
800000
800000
800000
800000
800000
800000
800000
800000
800000
800000
800000
800000
800000
ENDCHAR
STARTCHAR 2520
ENCODING 9504
SWIDTH 1000 0
DWIDTH 32 0
BBX 18 32 14 -4
BITMAP
F00000
F00000
F00000
F00000
F00000
F00000
F00000
F00000
F00000
F00000
F00000
F00000
F00000
F00000
F00000
FFFFC0
F00000
F00000
F00000
F00000
F00000
F00000
F00000
F00000
F00000
F00000
F00000
F00000
F00000
F00000
F00000
F00000
ENDCHAR
STARTCHAR 2523
ENCODING 9507
SWIDTH 1000 0
DWIDTH 32 0
BBX 18 32 14 -4
BITMAP
F00000
F00000
F00000
F00000
F00000
F00000
F00000
F00000
F00000
F00000
F00000
F00000
F00000
F00000
FFFFC0
FFFFC0
FFFFC0
FFFFC0
F00000
F00000
F00000
F00000
F00000
F00000
F00000
F00000
F00000
F00000
F00000
F00000
F00000
F00000
ENDCHAR
STARTCHAR 2524
ENCODING 9508
SWIDTH 1000 0
DWIDTH 32 0
BBX 16 31 1 -3
BITMAP
0001
0001
0001
0001
0001
0001
0001
0001
0001
0001
0001
0001
0001
0001
0001
FFFF
0001
0001
0001
0001
0001
0001
0001
0001
0001
0001
0001
0001
0001
0001
0001
ENDCHAR
STARTCHAR 2525
ENCODING 9509
SWIDTH 1000 0
DWIDTH 32 0
BBX 17 32 0 -4
BITMAP
000080
000080
000080
000080
000080
000080
000080
000080
000080
000080
000080
000080
000080
000080
FFFF80
FFFF80
FFFF80
FFFF80
000080
000080
000080
000080
000080
000080
000080
000080
000080
000080
000080
000080
000080
000080
ENDCHAR
STARTCHAR 2528
ENCODING 9512
SWIDTH 1000 0
DWIDTH 32 0
BBX 18 32 0 -4
BITMAP
0003C0
0003C0
0003C0
0003C0
0003C0
0003C0
0003C0
0003C0
0003C0
0003C0
0003C0
0003C0
0003C0
0003C0
0003C0
FFFFC0
0003C0
0003C0
0003C0
0003C0
0003C0
0003C0
0003C0
0003C0
0003C0
0003C0
0003C0
0003C0
0003C0
0003C0
0003C0
0003C0
ENDCHAR
STARTCHAR 252B
ENCODING 9515
SWIDTH 1000 0
DWIDTH 32 0
BBX 18 32 0 -4
BITMAP
0003C0
0003C0
0003C0
0003C0
0003C0
0003C0
0003C0
0003C0
0003C0
0003C0
0003C0
0003C0
0003C0
0003C0
FFFFC0
FFFFC0
FFFFC0
FFFFC0
0003C0
0003C0
0003C0
0003C0
0003C0
0003C0
0003C0
0003C0
0003C0
0003C0
0003C0
0003C0
0003C0
0003C0
ENDCHAR
STARTCHAR 252C
ENCODING 9516
SWIDTH 1000 0
DWIDTH 32 0
BBX 31 16 0 -4
BITMAP
FFFFFFFE
00010000
00010000
00010000
00010000
00010000
00010000
00010000
00010000
00010000
00010000
00010000
00010000
00010000
00010000
00010000
ENDCHAR
STARTCHAR 252F
ENCODING 9519
SWIDTH 1000 0
DWIDTH 32 0
BBX 32 18 0 -5
BITMAP
FFFFFFFF
FFFFFFFF
FFFFFFFF
FFFFFFFF
00010000
00010000
00010000
00010000
00010000
00010000
00010000
00010000
00010000
00010000
00010000
00010000
00010000
00010000
ENDCHAR
STARTCHAR 2530
ENCODING 9520
SWIDTH 1000 0
DWIDTH 32 0
BBX 32 17 0 -4
BITMAP
FFFFFFFF
0003C000
0003C000
0003C000
0003C000
0003C000
0003C000
0003C000
0003C000
0003C000
0003C000
0003C000
0003C000
0003C000
0003C000
0003C000
0003C000
ENDCHAR
STARTCHAR 2533
ENCODING 9523
SWIDTH 1000 0
DWIDTH 32 0
BBX 32 18 0 -4
BITMAP
FFFFFFFF
FFFFFFFF
FFFFFFFF
FFFFFFFF
0003C000
0003C000
0003C000
0003C000
0003C000
0003C000
0003C000
0003C000
0003C000
0003C000
0003C000
0003C000
0003C000
0003C000
ENDCHAR
STARTCHAR 2534
ENCODING 9524
SWIDTH 1000 0
DWIDTH 32 0
BBX 31 16 0 13
BITMAP
00010000
00010000
00010000
00010000
00010000
00010000
00010000
00010000
00010000
00010000
00010000
00010000
00010000
00010000
00010000
FFFFFFFE
ENDCHAR
STARTCHAR 2537
ENCODING 9527
SWIDTH 1000 0
DWIDTH 32 0
BBX 32 18 0 11
BITMAP
00010000
00010000
00010000
00010000
00010000
00010000
00010000
00010000
00010000
00010000
00010000
00010000
00010000
00010000
FFFFFFFF
FFFFFFFF
FFFFFFFF
FFFFFFFF
ENDCHAR
STARTCHAR 2538
ENCODING 9528
SWIDTH 1000 0
DWIDTH 32 0
BBX 32 16 0 12
BITMAP
0003C000
0003C000
0003C000
0003C000
0003C000
0003C000
0003C000
0003C000
0003C000
0003C000
0003C000
0003C000
0003C000
0003C000
0003C000
FFFFFFFF
ENDCHAR
STARTCHAR 253B
ENCODING 9531
SWIDTH 1000 0
DWIDTH 32 0
BBX 32 18 0 10
BITMAP
0003C000
0003C000
0003C000
0003C000
0003C000
0003C000
0003C000
0003C000
0003C000
0003C000
0003C000
0003C000
0003C000
0003C000
FFFFFFFF
FFFFFFFF
FFFFFFFF
FFFFFFFF
ENDCHAR
STARTCHAR 253C
ENCODING 9532
SWIDTH 1000 0
DWIDTH 32 0
BBX 31 31 0 -3
BITMAP
00010000
00010000
00010000
00010000
00010000
00010000
00010000
00010000
00010000
00010000
00010000
00010000
00010000
00010000
00010000
FFFFFFFE
00010000
00010000
00010000
00010000
00010000
00010000
00010000
00010000
00010000
00010000
00010000
00010000
00010000
00010000
00010000
ENDCHAR
STARTCHAR 253F
ENCODING 9535
SWIDTH 1000 0
DWIDTH 32 0
BBX 32 32 0 -4
BITMAP
00010000
00010000
00010000
00010000
00010000
00010000
00010000
00010000
00010000
00010000
00010000
00010000
00010000
00010000
FFFFFFFF
FFFFFFFF
FFFFFFFF
FFFFFFFF
00010000
00010000
00010000
00010000
00010000
00010000
00010000
00010000
00010000
00010000
00010000
00010000
00010000
00010000
ENDCHAR
STARTCHAR 2542
ENCODING 9538
SWIDTH 1000 0
DWIDTH 32 0
BBX 32 32 0 -4
BITMAP
0003C000
0003C000
0003C000
0003C000
0003C000
0003C000
0003C000
0003C000
0003C000
0003C000
0003C000
0003C000
0003C000
0003C000
0003C000
FFFFFFFF
0003C000
0003C000
0003C000
0003C000
0003C000
0003C000
0003C000
0003C000
0003C000
0003C000
0003C000
0003C000
0003C000
0003C000
0003C000
0003C000
ENDCHAR
STARTCHAR 254B
ENCODING 9547
SWIDTH 1000 0
DWIDTH 32 0
BBX 32 32 0 -4
BITMAP
0003C000
0003C000
0003C000
0003C000
0003C000
0003C000
0003C000
0003C000
0003C000
0003C000
0003C000
0003C000
0003C000
0003C000
FFFFFFFF
FFFFFFFF
FFFFFFFF
FFFFFFFF
0003C000
0003C000
0003C000
0003C000
0003C000
0003C000
0003C000
0003C000
0003C000
0003C000
0003C000
0003C000
0003C000
0003C000
ENDCHAR
STARTCHAR 25A0
ENCODING 9632
SWIDTH 1000 0
DWIDTH 32 0
BBX 24 24 4 0
BITMAP
FFFFFF
FFFFFF
FFFFFF
FFFFFF
FFFFFF
FFFFFF
FFFFFF
FFFFFF
FFFFFF
FFFFFF
FFFFFF
FFFFFF
FFFFFF
FFFFFF
FFFFFF
FFFFFF
FFFFFF
FFFFFF
FFFFFF
FFFFFF
FFFFFF
FFFFFF
FFFFFF
FFFFFF
ENDCHAR
STARTCHAR 25A1
ENCODING 9633
SWIDTH 1000 0
DWIDTH 32 0
BBX 24 24 4 0
BITMAP
FFFFFF
FFFFFF
C00003
C00003
C00003
C00003
C00003
C00003
C00003
C00003
C00003
C00003
C00003
C00003
C00003
C00003
C00003
C00003
C00003
C00003
C00003
C00003
FFFFFF
FFFFFF
ENDCHAR
STARTCHAR 25B1
ENCODING 9649
SWIDTH 1000 0
DWIDTH 32 0
BBX 30 12 1 6
BITMAP
03FFFFFC
03FFFFF8
06000038
0E000030
0C000070
1C000060
180000E0
380000C0
300001C0
70000180
7FFFFF00
FFFFFF00
ENDCHAR
STARTCHAR 25B2
ENCODING 9650
SWIDTH 1000 0
DWIDTH 32 0
BBX 26 24 3 1
BITMAP
000C0000
000C0000
001E0000
001E0000
003F0000
003F0000
007F8000
007F8000
00FFC000
00FFC000
01FFE000
01FFE000
03FFF000
03FFF000
07FFF800
07FFF800
0FFFFC00
0FFFFC00
1FFFFE00
3FFFFE00
3FFFFF00
7FFFFF80
7FFFFF80
FFFFFFC0
ENDCHAR
STARTCHAR 25B3
ENCODING 9651
SWIDTH 1000 0
DWIDTH 32 0
BBX 26 24 3 1
BITMAP
000C0000
000C0000
001E0000
001E0000
003F0000
00330000
00738000
00618000
00E1C000
00C0C000
01C0E000
01806000
03807000
03003000
07003800
06001800
0E001C00
0C000C00
1C000E00
18000600
38000700
70000380
7FFFFF80
FFFFFFC0
ENDCHAR
STARTCHAR 25B6
ENCODING 9654
SWIDTH 1000 0
DWIDTH 32 0
BBX 24 25 4 -1
BITMAP
800000
E00000
F80000
FE0000
FF8000
FFE000
FFF000
FFFC00
FFFF00
FFFFC0
FFFFF0
FFFFFC
FFFFFF
FFFFFE
FFFFFC
FFFFF0
FFFFC0
FFFF00
FFFC00
FFF000
FFC000
FF0000
FC0000
F00000
C00000
ENDCHAR
STARTCHAR 25B7
ENCODING 9655
SWIDTH 1000 0
DWIDTH 32 0
BBX 24 25 4 -1
BITMAP
800000
E00000
F80000
FE0000
CF8000
C3C000
C0F000
C03C00
C01F00
C007C0
C001F0
C0007C
C0001F
C0001E
C00078
C001E0
C007C0
C01F00
C07C00
C1F000
C7C000
DF0000
FC0000
F00000
C00000
ENDCHAR
STARTCHAR 25BC
ENCODING 9660
SWIDTH 1000 0
DWIDTH 32 0
BBX 26 24 3 -1
BITMAP
FFFFFFC0
7FFFFF80
7FFFFF80
3FFFFF00
1FFFFF00
1FFFFE00
0FFFFC00
0FFFFC00
07FFF800
07FFF800
03FFF000
03FFF000
01FFE000
01FFE000
00FFC000
00FFC000
007F8000
007F8000
003F0000
003F0000
001E0000
001E0000
000C0000
000C0000
ENDCHAR
STARTCHAR 25BD
ENCODING 9661
SWIDTH 1000 0
DWIDTH 32 0
BBX 26 24 3 -1
BITMAP
FFFFFFC0
7FFFFF80
70000380
38000700
18000600
1C000E00
0C000C00
0E001C00
06001800
07003800
03003000
03807000
01806000
01C0E000
00C0C000
00E1C000
00618000
00738000
00330000
003F0000
001E0000
001E0000
000C0000
000C0000
ENDCHAR
STARTCHAR 25C0
ENCODING 9664
SWIDTH 1000 0
DWIDTH 32 0
BBX 24 25 4 -1
BITMAP
000001
000007
00001F
00007F
0001FF
0007FF
001FFF
003FFF
00FFFF
03FFFF
0FFFFF
3FFFFF
FFFFFF
7FFFFF
3FFFFF
0FFFFF
03FFFF
00FFFF
003FFF
000FFF
0003FF
0000FF
00003F
00000F
000003
ENDCHAR
STARTCHAR 25C1
ENCODING 9665
SWIDTH 1000 0
DWIDTH 32 0
BBX 24 25 4 -1
BITMAP
000001
000007
00001F
00007F
0001F3
0007C3
000F03
003E03
00F803
03E003
0F8003
3E0003
F80003
780003
1E0003
078003
03E003
00F803
003E03
000F83
0003E3
0000FB
00003F
00000F
000003
ENDCHAR
STARTCHAR 25C6
ENCODING 9670
SWIDTH 1000 0
DWIDTH 32 0
BBX 28 28 2 -2
BITMAP
00060000
000F0000
001F8000
003FC000
007FE000
00FFF000
01FFF800
03FFFC00
07FFFE00
0FFFFF00
1FFFFF80
3FFFFFC0
7FFFFFE0
FFFFFFF0
FFFFFFF0
7FFFFFE0
3FFFFFC0
1FFFFF80
0FFFFF00
07FFFE00
03FFFC00
01FFF800
00FFF000
007FE000
003FC000
001F8000
000F0000
00060000
ENDCHAR
STARTCHAR 25C7
ENCODING 9671
SWIDTH 1000 0
DWIDTH 32 0
BBX 28 28 2 -2
BITMAP
00060000
000F0000
001F8000
0039C000
0070E000
00E07000
01C03800
03801C00
07000E00
0E000700
1C000380
380001C0
700000E0
E0000070
E0000070
700000E0
380001C0
1C000380
0E000700
07000E00
03801C00
01C03800
00E07000
0070E000
0039C000
001F8000
000F0000
00060000
ENDCHAR
STARTCHAR 25C9
ENCODING 9673
SWIDTH 1000 0
DWIDTH 32 0
BBX 26 27 3 -1
BITMAP
003F0000
01FFE000
03C0F000
0F003C00
1C000E00
18000600
303F0300
70FFC380
61FFE180
63FFF180
C3FFF0C0
C7FFF8C0
C7FFF8C0
C7FFF8C0
C7FFF8C0
C7FFF8C0
C7FFF8C0
63FFF180
63FFF180
71FFE380
30FFC300
183F0600
1C000E00
0F001C00
03C07000
01FFE000
003F0000
ENDCHAR
STARTCHAR 25CB
ENCODING 9675
SWIDTH 1000 0
DWIDTH 32 0
BBX 26 26 3 -1
BITMAP
003F8000
01FFE000
07C0F800
0F003C00
1C000E00
38000700
30000300
70000380
60000180
E00001C0
C00000C0
C00000C0
C00000C0
C00000C0
C00000C0
C00000C0
E00001C0
60000180
70000380
30000300
38000700
1C000E00
0F003C00
07C0F800
01FFE000
007F8000
ENDCHAR
STARTCHAR 25CE
ENCODING 9678
SWIDTH 1000 0
DWIDTH 32 0
BBX 26 27 3 -1
BITMAP
003F0000
01FFE000
03C0F000
0F003C00
1C000E00
18000600
303F0300
70FFC380
61C1E180
63807180
C30030C0
C60038C0
C60018C0
C60018C0
C60018C0
C60018C0
C70038C0
63003180
63807180
71C1E380
30FFC300
183F0600
1C000E00
0F001C00
03C07000
01FFE000
003F0000
ENDCHAR
STARTCHAR 25CF
ENCODING 9679
SWIDTH 1000 0
DWIDTH 32 0
BBX 27 27 3 -1
BITMAP
003F8000
01FFF000
03FFF800
0FFFFC00
1FFFFF00
1FFFFF00
3FFFFF80
7FFFFFC0
7FFFFFC0
7FFFFFC0
FFFFFFE0
FFFFFFE0
FFFFFFE0
FFFFFFE0
FFFFFFE0
FFFFFFE0
FFFFFFE0
7FFFFFC0
7FFFFFC0
7FFFFFC0
3FFFFF80
1FFFFF00
1FFFFF00
0FFFFE00
03FFF800
01FFF000
003F8000
ENDCHAR
STARTCHAR 25D0
ENCODING 9680
SWIDTH 1000 0
DWIDTH 32 0
BBX 26 27 3 -1
BITMAP
003F0000
01FFE000
03FFF000
0FF87C00
1FF81E00
1FF80E00
3FF80700
7FF80380
7FF80180
7FF80180
FFF800C0
FFF800C0
FFF800C0
FFF800C0
FFF800C0
FFF800C0
FFF800C0
7FF80180
7FF80180
7FF80380
3FF80300
1FF80600
1FF80E00
0FF81C00
03F8F000
01FFE000
003F0000
ENDCHAR
STARTCHAR 25D1
ENCODING 9681
SWIDTH 1000 0
DWIDTH 32 0
BBX 26 27 3 -1
BITMAP
003F0000
01FFE000
03FFF000
0F87FC00
1E07FE00
1C07FE00
3807FF00
7007FF80
6007FF80
6007FF80
C007FFC0
C007FFC0
C007FFC0
C007FFC0
C007FFC0
C007FFC0
C007FFC0
6007FF80
6007FF80
7007FF80
3007FF00
1807FE00
1C07FE00
0E07FC00
0387F000
01FFE000
003F0000
ENDCHAR
STARTCHAR 25D2
ENCODING 9682
SWIDTH 1000 0
DWIDTH 32 0
BBX 26 26 3 -1
BITMAP
007F0000
03FFE000
07C0F000
0E001C00
1C000E00
38000600
70000300
60000180
60000180
C0000080
C00000C0
C00000C0
C00000C0
FFFFFFC0
FFFFFFC0
FFFFFFC0
7FFFFFC0
7FFFFF80
7FFFFF80
3FFFFF00
1FFFFF00
1FFFFE00
0FFFFC00
07FFF800
01FFE000
003F0000
ENDCHAR
STARTCHAR 25D3
ENCODING 9683
SWIDTH 1000 0
DWIDTH 32 0
BBX 26 26 3 -1
BITMAP
007F0000
01FFE000
07FFF800
0FFFFC00
1FFFFE00
3FFFFF00
3FFFFF00
7FFFFF80
7FFFFF80
FFFFFF80
FFFFFFC0
FFFFFFC0
FFFFFFC0
C00000C0
C00000C0
C00000C0
C00000C0
60000180
60000180
30000300
38000700
1C000E00
0E001C00
07C0F800
01FFE000
003F0000
ENDCHAR
STARTCHAR 25E6
ENCODING 9702
SWIDTH 1000 0
DWIDTH 32 0
BBX 11 11 11 7
BITMAP
1F00
3F80
71C0
E0E0
C060
C060
C060
E0E0
71C0
3F80
1F00
ENDCHAR
STARTCHAR 25EF
ENCODING 9711
SWIDTH 1000 0
DWIDTH 32 0
BBX 30 30 1 -3
BITMAP
001FE000
00E01800
03800600
06000100
0C0000C0
18000040
30000020
20000010
60000010
40000008
40000008
80000004
80000004
80000004
80000004
80000004
80000004
80000004
80000004
40000008
40000008
20000010
20000010
10000020
18000060
0C0000C0
06000180
01800600
00601800
001FE000
ENDCHAR
STARTCHAR 2600
ENCODING 9728
SWIDTH 1000 0
DWIDTH 32 0
BBX 29 30 1 -3
BITMAP
00020000
00020000
00020000
00020000
08020080
04000100
02000200
010FC400
003FE000
007FF800
00FFFC00
00FFFC00
01FFFE00
01FFFE00
F9FFFEF8
F9FFFEF8
01FFFE00
01FFFE00
00FFFC00
00FFF800
007FF000
003FE000
010FC400
02000200
04000100
08020080
00020000
00020000
00020000
00020000
ENDCHAR
STARTCHAR 2601
ENCODING 9729
SWIDTH 1000 0
DWIDTH 32 0
BBX 28 22 2 -2
BITMAP
007E0000
00FF8000
01FFC000
03FFE000
03FFE000
03FFF3C0
03FFF7E0
07FFFFF0
07FFFFF0
1FFFFFF0
3FFFFFF0
7FFFFFE0
FFFFFFC0
FFFFFFC0
FFFFFFE0
FFFFFFF0
FFFBFFF0
7FF3FFF0
3FE1FFE0
1F81FFE0
00007FC0
00003F00
ENDCHAR
STARTCHAR 2602
ENCODING 9730
SWIDTH 1000 0
DWIDTH 32 0
BBX 29 29 1 -3
BITMAP
00020000
00020000
003FE000
01FFFC00
07FFFF00
0FFFFF80
1FFFFFC0
3FFFFFE0
7FFFFFE0
7FFFFFF0
47CF9F10
C3870E18
81020408
81020408
00020000
00020000
00020000
00020000
00020000
00020000
00020000
00020000
00020000
00020000
00020000
00220000
00220000
00260000
003C0000
ENDCHAR
STARTCHAR 2603
ENCODING 9731
SWIDTH 1000 0
DWIDTH 32 0
BBX 30 29 1 -2
BITMAP
C0060000
400A1818
81842418
02804200
01808100
00010080
00020080
301C0080
30630130
0080C130
01003E00
0218C100
0218C100
7218C100
52000100
21084200
0087841C
01000614
06000188
C8000040
C8030040
10030020
10030020
10000020
10030020
18030060
08030040
06000180
01FFFE00
ENDCHAR
STARTCHAR 2605
ENCODING 9733
SWIDTH 1000 0
DWIDTH 32 0
BBX 28 27 2 -1
BITMAP
00040000
00060000
00060000
00060000
000F0000
000F0000
000F0000
001F8000
001F8000
001F8000
FFFFFFF0
3FFFFFC0
1FFFFF80
0FFFFF00
03FFFC00
01FFF800
00FFF000
00FFF000
00FFF000
01FFF800
01FFF800
01F9F800
03F07C00
03C03C00
03801C00
06000600
04000200
ENDCHAR
STARTCHAR 2606
ENCODING 9734
SWIDTH 1000 0
DWIDTH 32 0
BBX 28 28 2 -2
BITMAP
00040000
00060000
00060000
00060000
000F0000
000F0000
00090000
00198000
00198000
00108000
FFF0FFF0
3FF0FFC0
1C000380
0E000700
03000E00
01801800
00C03000
00C03000
00801000
01861800
018F1800
01198800
0370EC00
03E07C00
03801C00
07000E00
06000600
08000200
ENDCHAR
STARTCHAR 260E
ENCODING 9742
SWIDTH 1000 0
DWIDTH 32 0
BBX 30 24 1 0
BITMAP
07FFFF80
1FFFFFE0
3FFFFFF0
7FF03FF8
7C7038F8
F87038FC
F870387C
F87FF87C
00FFFC00
01FFFE00
03F87F00
03E01F00
03C00F00
07800780
07800780
0F8007C0
1F8007E0
3F8007E0
3FC00FF0
3FE01FF0
7FF07FF8
7FFFFFF8
7FFFFFF8
7FFFFFF8
ENDCHAR
STARTCHAR 2616
ENCODING 9750
SWIDTH 1000 0
DWIDTH 32 0
BBX 26 25 3 1
BITMAP
001E0000
007F0000
00F3C000
03C0F000
0F807C00
1E001E00
38000700
30000300
30000300
30000300
30000300
30000300
30000300
30000300
70000300
70000380
60000180
60000180
60000180
60000180
60000180
60000180
60000180
FFFFFFC0
FFFFFFC0
ENDCHAR
STARTCHAR 2617
ENCODING 9751
SWIDTH 1000 0
DWIDTH 32 0
BBX 26 25 3 1
BITMAP
001E0000
007F8000
00FFC000
03FFF000
0FFFFC00
1FFFFE00
3FFFFF00
3FFFFF00
3FFFFF00
3FFFFF00
3FFFFF00
3FFFFF00
3FFFFF00
3FFFFF00
7FFFFF00
7FFFFF80
7FFFFF80
7FFFFF80
7FFFFF80
7FFFFF80
7FFFFF80
7FFFFF80
7FFFFF80
FFFFFFC0
FFFFFFC0
ENDCHAR
STARTCHAR 261E
ENCODING 9758
SWIDTH 1000 0
DWIDTH 32 0
BBX 28 13 2 6
BITMAP
7C3FFFE0
47C04010
86006010
84049FE0
841BE400
87E3C200
8802A200
88029C00
84058400
8B066400
8AC21800
44391000
3807E000
ENDCHAR
STARTCHAR 2640
ENCODING 9792
SWIDTH 1000 0
DWIDTH 32 0
BBX 20 28 6 -3
BITMAP
01F000
03FC00
070E00
0E0700
0C0300
180180
180180
180180
180180
180180
0C0300
0E0700
070E00
03FC00
006000
006000
006000
006000
FFFFF0
FFFFF0
006000
006000
006000
006000
006000
006000
006000
006000
ENDCHAR
STARTCHAR 2642
ENCODING 9794
SWIDTH 1000 0
DWIDTH 32 0
BBX 25 26 4 -1
BITMAP
0003FF80
0003FF80
00000780
00000F80
00001D80
00003980
00007180
0000E180
0001C180
00038180
00070180
0F8E0000
1FFC0000
78780000
70380000
E0180000
C00C0000
C00C0000
C00C0000
C00C0000
C00C0000
60180000
70380000
38700000
1FE00000
07C00000
ENDCHAR
STARTCHAR 2660
ENCODING 9824
SWIDTH 1000 0
DWIDTH 32 0
BBX 24 29 4 -2
BITMAP
001800
003C00
007E00
00FF00
01FF80
03FFC0
03FFC0
07FFE0
0FFFF0
1FFFF8
1FFFF8
3FFFFC
7FFFFE
7FFFFE
FFFFFF
FFFFFF
FFFFFF
FFFFFF
FFFFFF
FFFFFF
7FDBFE
3F99FC
1F18F8
001800
003C00
003C00
007C00
007E00
008100
ENDCHAR
STARTCHAR 2661
ENCODING 9825
SWIDTH 1000 0
DWIDTH 32 0
BBX 26 27 3 -3
BITMAP
0FC0FC00
38618700
60330100
601E0180
C00C00C0
C00C00C0
C00000C0
C00000C0
C00000C0
C00001C0
60000180
60000180
70000380
30000300
18000600
1C000E00
0C000C00
06001800
07003800
03807000
01806000
00C0C000
00618000
00330000
001E0000
001E0000
000C0000
ENDCHAR
STARTCHAR 2662
ENCODING 9826
SWIDTH 1000 0
DWIDTH 32 0
BBX 24 30 4 -3
BITMAP
001800
003C00
006600
006600
00C300
018180
0300C0
0700C0
060060
0C0030
180018
38001C
30000C
600006
C00003
600006
30000C
30000C
180018
0C0030
0C0060
060060
0300C0
018180
018380
00C300
006600
003C00
003C00
001800
ENDCHAR
STARTCHAR 2663
ENCODING 9827
SWIDTH 1000 0
DWIDTH 32 0
BBX 28 30 2 -3
BITMAP
000F0000
003FC000
007FE000
007FE000
00FFF000
00FFF000
00FFF000
00FFF000
00FFF000
007FE000
007FE000
0F3FCF00
3FDFBFC0
7FEF7FE0
7FFFFFE0
FFFFFFF0
FFFFFFF0
FFFFFFF0
FFFFFFF0
FFFFFFF0
7FF6FFE0
7FE67FE0
3FC63FC0
0F061F00
00060000
000F0000
000F0000
001F0000
001F8000
00204000
ENDCHAR
STARTCHAR 2664
ENCODING 9828
SWIDTH 1000 0
DWIDTH 32 0
BBX 24 30 4 -2
BITMAP
001800
003C00
007C00
006600
00C300
018180
0300C0
060060
0C0030
080010
180018
30000C
200004
600006
400002
800001
800001
800001
800001
800001
802602
406602
21E784
1F24F8
006600
004200
004200
00C300
00FF00
010080
ENDCHAR
STARTCHAR 2665
ENCODING 9829
SWIDTH 1000 0
DWIDTH 32 0
BBX 26 26 3 -2
BITMAP
0F807C00
3FE1FF00
7FF3FF80
7FF3FF80
FFFFFFC0
FFFFFFC0
FFFFFFC0
FFFFFFC0
FFFFFFC0
FFFFFFC0
7FFFFF80
7FFFFF80
3FFFFF00
3FFFFF00
1FFFFE00
0FFFFC00
0FFFF800
07FFF800
03FFF000
01FFE000
00FFC000
00FF8000
007F8000
003F0000
001E0000
000C0000
ENDCHAR
STARTCHAR 2666
ENCODING 9830
SWIDTH 1000 0
DWIDTH 32 0
BBX 24 30 4 -3
BITMAP
001800
003C00
007C00
007E00
00FF00
01FF80
03FFC0
03FFC0
07FFE0
0FFFF0
1FFFF8
1FFFF8
3FFFFC
7FFFFE
FFFFFF
7FFFFE
3FFFFC
3FFFFC
1FFFF8
0FFFF0
07FFE0
07FFE0
03FFC0
01FF80
00FF00
00FF00
007E00
003C00
001800
001800
ENDCHAR
STARTCHAR 2667
ENCODING 9831
SWIDTH 1000 0
DWIDTH 32 0
BBX 28 30 2 -3
BITMAP
001F8000
0030C000
00606000
00C03000
01801800
01801800
01801800
01801800
01801800
01801800
0FC03F00
386071C0
6030C040
60108060
C0000030
C0000030
C0000030
C0000030
C0000030
C0090030
60198060
3039C0C0
18492180
0F999F00
00198000
00118000
00108000
0030C000
003FC000
00402000
ENDCHAR
STARTCHAR 2668
ENCODING 9832
SWIDTH 1000 0
DWIDTH 32 0
BBX 28 26 2 -1
BITMAP
00040000
000C0000
03083000
03182000
06186000
06186000
06186000
061C6000
070C3000
030C3000
03861800
01861800
01C70C00
00C30C00
00C30C00
30C30CC0
60C30C60
C1821830
C3061830
C0040030
E0040070
700000E0
380001C0
1F801F80
07FFFE00
00FFF000
ENDCHAR
STARTCHAR 2669
ENCODING 9833
SWIDTH 1000 0
DWIDTH 32 0
BBX 10 28 9 -2
BITMAP
00C0
00C0
00C0
00C0
00C0
00C0
00C0
00C0
00C0
00C0
00C0
00C0
00C0
00C0
00C0
00C0
00C0
00C0
00C0
00C0
00C0
3EC0
7FC0
FFC0
FF80
FF80
7F00
3E00
ENDCHAR
STARTCHAR 266A
ENCODING 9834
SWIDTH 1000 0
DWIDTH 32 0
BBX 21 28 6 -2
BITMAP
00C000
00C000
00E000
00F000
00FC00
00DE00
00CF00
00C7C0
00C1E0
00C0F0
00C070
00C038
00C018
00C018
00C018
00C010
00C030
00C060
00C0C0
00C180
00C000
3EC000
7FC000
FFC000
FF8000
FF8000
7F0000
3E0000
ENDCHAR
STARTCHAR 266B
ENCODING 9835
SWIDTH 1000 0
DWIDTH 32 0
BBX 24 30 2 -2
BITMAP
000007
00007F
0007FF
007FFF
00FFFB
00FF83
00F003
00C003
00C003
00C003
00C003
00C003
00C003
00C003
00C003
00C003
00C003
00C003
00C003
00C07B
00C0FF
00C1FF
00C1FF
3EC1FE
7FC1FC
FFC078
FFC000
FF8000
7F0000
3E0000
ENDCHAR
STARTCHAR 266C
ENCODING 9836
SWIDTH 1000 0
DWIDTH 32 0
BBX 24 30 2 -2
BITMAP
000007
00007F
0007FF
007FFF
00FFF3
00FF03
00E007
00C07F
00C7FF
00FFFF
00FFF3
00FF03
00E003
00C003
00C003
00C003
00C003
00C003
00C003
00C07B
00C0FF
00C1FF
00C1FF
3EC1FE
7FC1FC
FFC078
FFC000
FF8000
7F0000
3E0000
ENDCHAR
STARTCHAR 266D
ENCODING 9837
SWIDTH 1000 0
DWIDTH 32 0
BBX 13 27 11 -2
BITMAP
C000
C000
C000
C000
C000
C000
C000
C000
C000
C000
C3C0
CFF0
FC70
F038
E038
C038
C038
C038
C070
C0F0
C0E0
C1C0
C780
CF00
FC00
F000
C000
ENDCHAR
STARTCHAR 266E
ENCODING 9838
SWIDTH 1000 0
DWIDTH 32 0
BBX 10 27 11 -2
BITMAP
C000
C000
C000
C000
C000
C000
C000
C1C0
CFC0
FFC0
FCC0
E0C0
C0C0
C0C0
C0C0
C0C0
C7C0
FFC0
FFC0
F8C0
C0C0
00C0
00C0
00C0
00C0
00C0
00C0
ENDCHAR
STARTCHAR 266F
ENCODING 9839
SWIDTH 1000 0
DWIDTH 32 0
BBX 20 28 6 -2
BITMAP
000600
060600
060600
060600
060600
060600
060630
060FF0
07FFE0
FFFE00
FE0600
060600
060600
060600
060600
060600
060670
063FF0
0FFFC0
FFF600
FE0600
060600
060600
060600
060600
060600
060600
060000
ENDCHAR
STARTCHAR 2713
ENCODING 10003
SWIDTH 1000 0
DWIDTH 32 0
BBX 21 21 7 3
BITMAP
000008
000010
000030
000020
000040
000080
000180
000300
000600
000C00
000800
001800
403000
E06000
E0C000
718000
730000
3F0000
3E0000
1C0000
180000
ENDCHAR
STARTCHAR 2756
ENCODING 10070
SWIDTH 1000 0
DWIDTH 32 0
BBX 28 28 2 -2
BITMAP
00060000
000F0000
001F8000
003FC000
007FE000
00FFF000
00FFF000
007FE000
063FC600
0F1F8F00
1F8F1F80
3FC63FC0
7FE07FE0
FFF0FFF0
FFF0FFF0
7FE07FE0
3FC63FC0
1F8F1F80
0F1F8F00
063FC600
007FE000
00FFF000
00FFF000
007FE000
003FC000
001F8000
000F0000
00060000
ENDCHAR
STARTCHAR 2776
ENCODING 10102
SWIDTH 1000 0
DWIDTH 32 0
BBX 30 30 1 -3
BITMAP
001FE000
00FFF800
03FFFE00
07FFFF00
0FFFFFC0
1FF87FC0
3FE07FE0
3FC07FF0
7FCC7FF0
7FFC7FF8
7FFC7FF8
FFFC7FFC
FFFC7FFC
FFFC7FFC
FFFC7FFC
FFFC7FFC
FFFC7FFC
FFFC7FFC
FFFC7FFC
7FFC7FF8
7FFC7FF8
3FFC7FF0
3FFC7FF0
1FFC7FE0
1FFC7FE0
0FFFFFC0
07FFFF80
01FFFE00
007FF800
001FE000
ENDCHAR
STARTCHAR 2777
ENCODING 10103
SWIDTH 1000 0
DWIDTH 32 0
BBX 30 30 1 -3
BITMAP
001FE000
00FFF800
03FFFE00
07FFFF00
0FF83FC0
1FE00FC0
3FC787E0
3F8FC7F0
7F8FE3F0
7F9FE3F8
7F1FE3F8
FFFFE3FC
FFFFC7FC
FFFF87FC
FFFE0FFC
FFF81FFC
FFF07FFC
FFE1FFFC
FFC3FFFC
7FC7FFF8
7F8FFFF8
3F8FFFF0
3F0003F0
1F0003E0
1FFFFFE0
0FFFFFC0
07FFFF80
01FFFE00
007FF800
001FE000
ENDCHAR
STARTCHAR 2778
ENCODING 10104
SWIDTH 1000 0
DWIDTH 32 0
BBX 30 30 1 -3
BITMAP
001FE000
00FFF800
03FFFE00
07FFFF00
0FF07FC0
1FE01FC0
3FC00FE0
3F8787F0
7F0FE7F0
7F1FE7F8
7FFFE7F8
FFFFE7FC
FFFFCFFC
FFF01FFC
FFF03FFC
FFFF8FFC
FFFFE7FC
FFFFF3FC
FFFFF3FC
7F3FF3F8
7F1FF3F8
3F1FE7F0
3F87C7F0
1FC00FE0
1FF03FE0
0FFFFFC0
07FFFF80
01FFFE00
007FF800
001FE000
ENDCHAR
STARTCHAR 2779
ENCODING 10105
SWIDTH 1000 0
DWIDTH 32 0
BBX 30 30 1 -3
BITMAP
001FE000
00FFFC00
03FFFF00
07FFFF80
0FFFFFC0
1FFE1FE0
3FFE1FF0
3FFC1FF0
7FF81FF8
7FF11FF8
7FF11FF8
FFE31FFC
FFC71FFC
FFCF1FFC
FF8F1FFC
FF1F1FFC
FE3F1FFC
FE7F1FFC
FC0001FC
7C0001F8
7FFF1FF8
3FFF1FF0
3FFF1FF0
1FFF1FE0
1FFF1FE0
0FFFFFC0
07FFFF80
01FFFE00
007FF800
001FE000
ENDCHAR
STARTCHAR 277A
ENCODING 10106
SWIDTH 1000 0
DWIDTH 32 0
BBX 30 30 1 -3
BITMAP
001FE000
00FFF800
03FFFE00
07FFFF00
0FFFFFC0
1FC007C0
3FC007E0
3F8FFFF0
7F8FFFF0
7F8FFFF8
7F8FFFF8
FF883FFC
FF800FFC
FF87C7FC
FF8FE7FC
FF9FF3FC
FFFFF3FC
FFFFF3FC
FFFFF3FC
7FFFF3F8
7F1FE3F8
3F8FE7F0
3FC7CFF0
1FE00FE0
1FF03FE0
0FFFFFC0
07FFFF80
01FFFE00
007FF800
001FE000
ENDCHAR
STARTCHAR 277B
ENCODING 10107
SWIDTH 1000 0
DWIDTH 32 0
BBX 30 30 1 -3
BITMAP
001FE000
00FFF800
03FFFE00
07FFFF00
0FF83FC0
1FE00FC0
3FE00FE0
3FC3C7F0
7F8FE7F0
7F8FFFF8
7F9FFFF8
FF1FFFFC
FF183FFC
FF100FFC
FF0787FC
FF0FC7FC
FF1FE3FC
FF1FE3FC
FF1FE3FC
7F9FE3F8
7F9FE3F8
3F8FC7F0
3FC787F0
1FE00FE0
1FF83FE0
0FFFFFC0
07FFFF80
01FFFE00
007FF800
001FE000
ENDCHAR
STARTCHAR 277C
ENCODING 10108
SWIDTH 1000 0
DWIDTH 32 0
BBX 30 30 1 -3
BITMAP
001FE000
007FF800
01FFFE00
03FFFF00
0FFFFFC0
1FFFFFC0
1F8003E0
3F8003F0
7FFFE3F0
7FFFC7F8
7FFFC7F8
FFFF8FFC
FFFF8FFC
FFFF9FFC
FFFF1FFC
FFFF3FFC
FFFE3FFC
FFFE3FFC
FFFE7FFC
7FFC7FF8
7FFC7FF8
7FF8FFF0
3FF8FFF0
1FF8FFE0
1FF1FFE0
0FF1FFC0
07FFFF80
01FFFE00
007FF800
001FE000
ENDCHAR
STARTCHAR 277D
ENCODING 10109
SWIDTH 1000 0
DWIDTH 32 0
BBX 30 30 1 -3
BITMAP
001FE000
00FFF800
03FFFE00
07FFFF00
0FF03FC0
1FC00FC0
3F8007E0
3F8787F0
7F1FE3F0
7F1FE3F8
7F1FE3F8
FF1FE3FC
FF8787FC
FFC00FFC
FFE01FFC
FFC00FFC
FF8F87FC
FF1FE3FC
FF3FF3FC
7F3FF3F8
7F3FF3F8
3F1FE3F0
3F8FC7F0
1FC00FE0
1FF03FE0
0FFFFFC0
07FFFF80
01FFFE00
007FF800
001FE000
ENDCHAR
STARTCHAR 277E
ENCODING 10110
SWIDTH 1000 0
DWIDTH 32 0
BBX 30 30 1 -3
BITMAP
001FE000
00FFF800
03FFFE00
07FFFF00
0FF83FC0
1FE01FC0
3FC00FE0
3FC787F0
7F8FC7F0
7F9FE7F8
7F9FE3F8
FF9FE3FC
FF9FE3FC
FF9FE3FC
FFCFC3FC
FFC783FC
FFE013FC
FFF073FC
FFFFE3FC
7FFFE7F8
7F8FE7F8
3F8FCFF0
3FC78FF0
1FE01FE0
1FF07FE0
0FFFFFC0
07FFFF80
01FFFE00
007FF800
001FE000
ENDCHAR
STARTCHAR 277F
ENCODING 10111
SWIDTH 1000 0
DWIDTH 32 0
BBX 30 30 1 -3
BITMAP
001FE000
00FFF800
03FFFE00
07FFFF00
0FFFFFC0
1E3FC3C0
3C3F01E0
383F38F0
7A3E7CF0
7E3E7CF8
7E3CFE78
FE3CFE7C
FE3CFE7C
FE3CFE7C
FE3CFE7C
FE3CFE7C
FE3CFE7C
FE3CFE7C
FE3CFE7C
7E3CFE78
7E3E7CF8
3E3E7CF0
3E3E39F0
1E3F01E0
1E3F87E0
0FFFFFC0
07FFFF80
01FFFE00
007FF800
001FE000
ENDCHAR
STARTCHAR 2934
ENCODING 10548
SWIDTH 1000 0
DWIDTH 32 0
BBX 26 24 3 1
BITMAP
00000C00
00001E00
00003E00
00007F00
0000FF80
0001EDC0
0001CCC0
00018C40
00010C40
00000C00
00000C00
00000C00
00000C00
00000C00
00000C00
00000C00
00000C00
00001C00
00001800
00003800
00007000
0001E000
FFFFC000
FFFF0000
ENDCHAR
STARTCHAR 2935
ENCODING 10549
SWIDTH 1000 0
DWIDTH 32 0
BBX 26 24 3 -1
BITMAP
FFFF0000
FFFFC000
0001E000
00007000
00003800
00001800
00001C00
00000C00
00000C00
00000C00
00000C00
00000C00
00000C00
00000C00
00000C00
00010C40
00018C40
0001CCC0
0001EDC0
0000FF80
00007F00
00003E00
00001E00
00000C00
ENDCHAR
STARTCHAR 29BF
ENCODING 10687
SWIDTH 1000 0
DWIDTH 32 0
BBX 26 27 3 -1
BITMAP
007F0000
01FFE000
03C0F000
07003C00
0C000E00
18000600
30000300
70000380
60000180
600E0180
C03F80C0
C07F80C0
C07FC0C0
C07FC0C0
C07FC0C0
C07FC0C0
C03F80C0
601F0180
60000180
70000380
30000300
18000600
1C000E00
0F003C00
03C0F000
01FFE000
003F0000
ENDCHAR
STARTCHAR 29FA
ENCODING 10746
SWIDTH 687 0
DWIDTH 22 0
BBX 18 18 2 0
BITMAP
061800
061800
061800
061800
061800
061800
061800
061800
FFFFC0
FFFFC0
061800
061800
061800
061800
061800
061800
061800
061800
ENDCHAR
STARTCHAR 29FB
ENCODING 10747
SWIDTH 687 0
DWIDTH 22 0
BBX 18 18 2 0
BITMAP
18C600
18C600
18C600
18C600
18C600
18C600
18C600
18C600
FFFFC0
FFFFC0
18C600
18C600
18C600
18C600
18C600
18C600
18C600
18C600
ENDCHAR
STARTCHAR 2E83
ENCODING 11907
SWIDTH 1000 0
DWIDTH 32 0
BBX 20 24 7 1
BITMAP
C00000
C00000
C00000
C00000
C00000
C00000
C00000
C00000
C00000
C00000
C00000
C00000
C00000
C00000
C00000
C00000
C00030
C00070
C00070
C00070
C00070
E000F0
FFFFE0
7FFFE0
ENDCHAR
STARTCHAR 2E85
ENCODING 11909
SWIDTH 1000 0
DWIDTH 32 0
BBX 16 27 7 -2
BITMAP
0007
000E
000E
001C
0038
0070
0070
00E0
01E0
03E0
0F60
1E60
3C60
F860
6060
0060
0060
0060
0060
0060
0060
0060
0060
0060
0060
0060
0060
ENDCHAR
STARTCHAR 2E87
ENCODING 11911
SWIDTH 1000 0
DWIDTH 32 0
BBX 30 26 1 -2
BITMAP
0FFFFF80
0FFFFF80
0C000180
0C000180
0C000180
0C000180
0C000180
0C000180
0C000180
0C000180
0C000180
0C000180
0C000180
0C000180
0C000180
0C000180
0C000180
180000C0
180000CC
180000CC
180000CC
380000FC
30000078
70000078
E0000038
60000030
ENDCHAR
STARTCHAR 2E89
ENCODING 11913
SWIDTH 1000 0
DWIDTH 32 0
BBX 13 27 9 -2
BITMAP
0018
0018
C018
C018
C018
C018
C018
C018
C018
C018
C018
C018
C018
C018
C018
C018
C018
C018
C018
0018
0018
0018
0018
0018
0818
0FF8
0FF0
ENDCHAR
STARTCHAR 2E8E
ENCODING 11918
SWIDTH 1000 0
DWIDTH 32 0
BBX 29 24 1 -2
BITMAP
7FFFFFF8
7FFFFFF8
00603000
00603000
00603000
00603000
00603000
00603000
00603000
00603000
00603000
00603000
00603000
00C03000
00C03000
00C03000
01C03018
01803018
03803018
07003038
0E003038
3C003038
F8003FF0
70001FE0
ENDCHAR
STARTCHAR 2E8F
ENCODING 11919
SWIDTH 1000 0
DWIDTH 32 0
BBX 27 27 3 -2
BITMAP
00004000
01C0E000
01C07000
03803800
03801C00
07000E00
0E000F00
0E000700
1C000380
3860C1C0
7060C0C0
6060C080
0060C000
00E0C000
00E0C000
00E0C000
00C0C000
00C0C000
00C0C000
01C0C040
0180C060
0380C060
0700C060
0E00C0E0
7C00FFC0
F8007F80
40000000
ENDCHAR
STARTCHAR 2E90
ENCODING 11920
SWIDTH 1000 0
DWIDTH 32 0
BBX 28 28 2 -1
BITMAP
00180000
00180000
00180000
00180000
00180000
00180000
00180000
7FFFFFE0
7FFFFFE0
00198000
00198000
00198000
00198000
00318000
00318000
00318000
00318000
00618000
00618000
00C18040
01C18070
03818070
07018060
0E018060
3C0180E0
7801FFE0
F000FFC0
40000000
ENDCHAR
STARTCHAR 2E92
ENCODING 11922
SWIDTH 1000 0
DWIDTH 32 0
BBX 24 24 5 0
BITMAP
FFFFF8
FFFFF8
C00018
C00018
C00018
C00018
C00018
C00018
C00018
FFFFF8
FFFFF8
C00018
C00018
C00000
C00000
C00000
C00003
C00003
C00003
C00003
C00003
E00007
FFFFFE
3FFFFC
ENDCHAR
STARTCHAR 2E93
ENCODING 11923
SWIDTH 1000 0
DWIDTH 32 0
BBX 26 25 3 0
BITMAP
000C0000
001C0000
001C0000
00380000
00700000
00E03800
10E03800
39C07000
3F80F000
1F00E000
0F01C000
03838000
01C70000
00EF0000
007E0000
007C2000
00387000
00703800
00E01C00
01C00E00
03800600
0701FF00
FFFFFF80
FFFF81C0
7C000180
ENDCHAR
STARTCHAR 2E94
ENCODING 11924
SWIDTH 1000 0
DWIDTH 32 0
BBX 28 24 2 2
BITMAP
01C00000
01C00000
01800000
01800000
01FFFE00
01FFFE00
03800E00
03800E00
03000C00
03000C00
03000C00
07000C00
07000C00
06000C00
07FFFC00
0FFFFC00
0E001800
0C001800
0C001800
00001800
00003800
00003800
FFFFFFF0
FFFFFFF0
ENDCHAR
STARTCHAR 2E96
ENCODING 11926
SWIDTH 1000 0
DWIDTH 32 0
BBX 13 29 9 -3
BITMAP
0300
0300
0300
0300
0300
0300
0300
0360
3330
3330
3330
3318
7318
7318
6310
6300
E300
2300
0300
0300
0300
0300
0300
0300
0300
0300
0300
0300
0300
ENDCHAR
STARTCHAR 2E97
ENCODING 11927
SWIDTH 1000 0
DWIDTH 32 0
BBX 28 26 2 -2
BITMAP
00600000
00600000
00600000
00600000
00600000
00600000
00600000
10660E00
1C670600
18670700
18638380
18638380
3861C1C0
3861C1C0
3060C0E0
7060E0E0
7060E0E0
E0607070
E0606040
40600000
00600000
00600000
00600000
00600000
0FE00000
0FC00000
ENDCHAR
STARTCHAR 2E98
ENCODING 11928
SWIDTH 1000 0
DWIDTH 32 0
BBX 16 28 7 -1
BITMAP
0180
0180
0180
0180
0180
0180
7FFE
7FFE
0180
0180
0180
0180
0180
0187
01FF
3FF8
FF80
7980
0180
0180
0180
0180
0180
0180
0180
1180
1F80
1F00
ENDCHAR
STARTCHAR 2E99
ENCODING 11929
SWIDTH 1000 0
DWIDTH 32 0
BBX 27 27 3 -1
BITMAP
01C00000
01C00000
01800000
03800000
03800000
03FFFFC0
07FFFFC0
06003800
0E003000
1F003000
1B007000
3B806000
7180E000
E1C0E000
40E1C000
0061C000
00738000
003F0000
001F0000
001F0000
003F8000
0079E000
01E0F800
07C03F00
3F000FE0
FC0003C0
70000080
ENDCHAR
STARTCHAR 2E9B
ENCODING 11931
SWIDTH 1000 0
DWIDTH 32 0
BBX 27 26 3 -2
BITMAP
7FFFFF00
7FFFFF00
00060000
08060000
0C060000
0C060000
0C060000
1C060000
1C0E0000
1FFFFFE0
1FFFFFE0
380C0000
301C0000
101B0000
001B0000
003B0000
00730000
00730080
00E300C0
01C300C0
038300C0
0F0301C0
3E0301C0
F803FF80
F001FF00
40000000
ENDCHAR
STARTCHAR 2E9E
ENCODING 11934
SWIDTH 1000 0
DWIDTH 32 0
BBX 25 27 4 -1
BITMAP
000C0000
000C0000
000C0000
000FFF80
000FFF80
000C0000
00CC0000
01CC0000
01FFF800
03FFFC00
07001800
06003800
0E003000
1F807000
7BC0E000
E0E1E000
C079C000
001F8000
000F0000
000E0000
001C0000
00780000
00F00000
03E00000
0F800000
7E000000
38000000
ENDCHAR
STARTCHAR 2E9F
ENCODING 11935
SWIDTH 1000 0
DWIDTH 32 0
BBX 28 27 2 -2
BITMAP
07FFFF00
0FFFFF00
0E000300
0E100300
0E3C0300
0E1E0300
0C078300
0C03C300
0C018300
0C000300
FFFFFFF0
FFFFFFF0
1C000300
1C300300
1C380300
181E0300
180F0700
18038700
18018700
38000700
3FFFFFF0
3FFFFFF0
38000700
30000600
30000E00
0001FE00
0001FC00
ENDCHAR
STARTCHAR 2EA0
ENCODING 11936
SWIDTH 1000 0
DWIDTH 32 0
BBX 28 26 2 -3
BITMAP
1FFFFF80
1FFFFF80
18000180
18000180
18000180
18000180
1FFFFF80
1FFFFF80
18030180
18030180
18030000
18038000
1803FFF0
1FFFFFF0
1FFF8000
1801C000
1801C000
1800E000
1800E000
18007030
18007830
181F3C70
1BFE1E70
3FF00FE0
FF0007E0
700001C0
ENDCHAR
STARTCHAR 2EA1
ENCODING 11937
SWIDTH 1000 0
DWIDTH 32 0
BBX 10 25 11 -1
BITMAP
3000
7C00
1E00
0F00
0300
0000
0000
C000
F000
7800
1E00
0E00
0400
0000
00C0
01C0
01C0
0380
0700
0E00
0E00
1C00
3800
7000
6000
ENDCHAR
STARTCHAR 2EA3
ENCODING 11939
SWIDTH 1000 0
DWIDTH 32 0
BBX 26 10 3 6
BITMAP
00011C00
0C630E00
1C638600
18618700
38618300
3861C380
7061C1C0
7070C1C0
E070C0C0
40000000
ENDCHAR
STARTCHAR 2EA4
ENCODING 11940
SWIDTH 1000 0
DWIDTH 32 0
BBX 24 14 3 7
BITMAP
00001E
0007FF
0FFFF8
FFFE00
780006
001007
18300E
38380E
1C181C
0C1C1C
0E1C38
060C70
070870
020060
ENDCHAR
STARTCHAR 2EA6
ENCODING 11942
SWIDTH 1000 0
DWIDTH 32 0
BBX 11 28 8 -2
BITMAP
0060
0060
0060
0060
2060
6060
7060
3860
1C60
1C60
0E60
0460
0060
0060
0060
01E0
07E0
1F60
7E60
F860
E060
0060
0060
0060
0060
0060
0060
0060
ENDCHAR
STARTCHAR 2EA8
ENCODING 11944
SWIDTH 1000 0
DWIDTH 32 0
BBX 12 28 8 -2
BITMAP
0010
3830
1C70
0C60
0EC0
07C0
0380
0780
1FC0
3CC0
F0C0
E060
00E0
01E0
03F0
0330
0630
0E30
3C30
7830
F030
C030
0030
0070
0060
1060
1FE0
1F80
ENDCHAR
STARTCHAR 2EAA
ENCODING 11946
SWIDTH 1000 0
DWIDTH 32 0
BBX 17 25 7 -1
BITMAP
7FFF00
7FFF00
000E00
001C00
003000
00E000
00C000
30C000
30C000
30C000
30FF00
30FF00
30C000
30C000
30C000
30C000
30C000
30C000
30C300
30DF80
30FE00
3FF000
FF8000
FC0000
C00000
ENDCHAR
STARTCHAR 2EAB
ENCODING 11947
SWIDTH 1000 0
DWIDTH 32 0
BBX 24 13 4 6
BITMAP
FFFFFF
FFFFFF
C18303
C18303
C18303
C18303
C18303
C18303
C18303
FFFFFF
FFFFFF
C00003
C00003
ENDCHAR
STARTCHAR 2EAD
ENCODING 11949
SWIDTH 1000 0
DWIDTH 32 0
BBX 16 28 8 -3
BITMAP
0180
0180
0180
0180
0180
0180
7FFC
7FFE
001C
0018
0030
0070
00E0
01C0
03C0
07F0
1FB8
399E
F187
E183
0180
0180
0180
0180
0180
0180
0180
0180
ENDCHAR
STARTCHAR 2EB2
ENCODING 11954
SWIDTH 1000 0
DWIDTH 32 0
BBX 24 13 4 6
BITMAP
FFFFFF
FFFFFF
C18303
C18303
C18303
C18303
C18303
C18303
C18303
FFFFFF
FFFFFF
C00003
C00003
ENDCHAR
STARTCHAR 2EB9
ENCODING 11961
SWIDTH 1000 0
DWIDTH 32 0
BBX 28 22 2 3
BITMAP
000C0000
000C0080
000C01C0
000C0380
0FFFFF00
0FFFFF00
000C0E00
000C1C00
000C3800
000CF000
FFFFFFF0
FFFFFFF0
00078000
000E0000
003C0000
00780000
01E00000
07C00000
1F000000
7C000000
F8000000
60000000
ENDCHAR
STARTCHAR 2EBD
ENCODING 11965
SWIDTH 1000 0
DWIDTH 32 0
BBX 24 26 4 -1
BITMAP
00C000
07E000
7F87FF
F807FF
C00003
C00003
C00003
C00003
C00003
C00003
C00003
FFC7FF
FFC7FF
C00003
C00003
C00003
C00003
C00003
C00003
C00003
C00003
C00003
FFC7FF
FFC7FF
C00003
C00003
ENDCHAR
STARTCHAR 2EBE
ENCODING 11966
SWIDTH 1000 0
DWIDTH 32 0
BBX 28 11 2 10
BITMAP
00C03000
00C03000
00C03000
00C03000
00C03000
FFFFFFF0
FFFFFFF0
00C03000
00C03000
00C03000
00C03000
ENDCHAR
STARTCHAR 2EBF
ENCODING 11967
SWIDTH 1000 0
DWIDTH 32 0
BBX 29 11 2 10
BITMAP
03000C00
03000C00
03000C00
03000C00
03000C00
FFF9FFF8
FFF9FFF8
03000C00
03000C00
03000C00
03000C00
ENDCHAR
STARTCHAR 2EC0
ENCODING 11968
SWIDTH 1000 0
DWIDTH 32 0
BBX 28 11 2 9
BITMAP
00C03000
00C03000
00C03000
00C03000
00C03000
FFC03FF0
FFC03FF0
00C03000
00C03000
00C03000
00C03000
ENDCHAR
STARTCHAR 2EC1
ENCODING 11969
SWIDTH 1000 0
DWIDTH 32 0
BBX 28 30 2 -4
BITMAP
000C0000
000C0000
000C0000
000FFE00
000FFE00
000C0000
000C0000
1FFFFFE0
1FFFFFE0
180C0060
180C00E0
180FF840
1BFFF800
1BFC0100
180C0180
180C0380
180FFF00
180FFF00
18000000
18000000
18186000
18186000
18186000
38386000
30306030
30306030
70F06070
61E07FF0
E7803FE0
07000000
ENDCHAR
STARTCHAR 2EC2
ENCODING 11970
SWIDTH 1000 0
DWIDTH 32 0
BBX 17 28 6 -1
BITMAP
00C000
00C000
00C000
00C000
00C000
7FFF00
7FFF00
000700
000E00
000C00
001800
003000
006180
00C380
03C700
07FE00
1EFC00
3CCE00
F0C780
60C380
00C080
00C000
00C000
00C000
00C000
00C000
00C000
00C000
ENDCHAR
STARTCHAR 2EC3
ENCODING 11971
SWIDTH 1000 0
DWIDTH 32 0
BBX 26 15 3 6
BITMAP
FFFFFFC0
FFFFFFC0
00C18000
00C18000
00C18000
3FFFFF00
3FFFFF00
30C18300
30C18300
30C18300
30C18300
3FFFFF00
3FFFFF00
30000300
30000300
ENDCHAR
STARTCHAR 2EC4
ENCODING 11972
SWIDTH 1000 0
DWIDTH 32 0
BBX 28 25 2 -2
BITMAP
FFFFFFF0
FFFFFFF0
0060C000
0060C000
0060C000
0060C000
0060C000
3FFFFFC0
3FFFFFC0
3060C0C0
3060C0C0
3060C0C0
30C0C0C0
30C0C3C0
31C0C6C0
3380FEC0
37007EC0
360000C0
300000C0
300000C0
300000C0
3FFFFFC0
3FFFFFC0
300000C0
300000C0
ENDCHAR
ENDFONT
